<?xml version="1.0" encoding="utf-8"?>
<!-- Generator: Adobe Illustrator 27.9.0, SVG Export Plug-In . SVG Version: 6.00 Build 0)  -->
<svg version="1.1" id="Layer_1" xmlns="http://www.w3.org/2000/svg" xmlns:xlink="http://www.w3.org/1999/xlink" x="0px" y="0px"
	 viewBox="0 0 500 500" style="enable-background:new 0 0 500 500;" xml:space="preserve">
<style type="text/css">
	.st0{fill:#FFFFFF;}
</style>
<g>
	<path class="st0" d="M455.5,66.6H45.8c-14.5,0-26.2-11.9-26.2-26.6V13.8c0-3,2.4-5.3,5.3-5.3h448.4c2.9,0,5.3,2.4,5.3,5.3v29.5
		C478.5,56.2,468.2,66.6,455.5,66.6 M30.1,19.1V40c0,8.8,7,15.9,15.7,15.9h409.7c6.9,0,12.5-5.7,12.5-12.7V19.1H30.1z"/>
	<path class="st0" d="M456,148.3H42c-2.9,0-5.3-2.4-5.3-5.3V61.3c0-3,2.4-5.3,5.3-5.3c2.9,0,5.3,2.4,5.3,5.3v76.3h403.4V61.3
		c0-3,2.4-5.3,5.3-5.3c2.9,0,5.2,2.4,5.3,5.3V143C461.2,145.9,458.9,148.3,456,148.3"/>
	<path class="st0" d="M456,426.8H42c-2.9,0-5.3-2.4-5.3-5.3V143c0-3,2.3-5.4,5.3-5.4c2.9,0,5.3,2.4,5.3,5.3v0v273.1h403.4V143
		c0-3,2.4-5.4,5.3-5.4c2.9,0,5.3,2.4,5.3,5.3v0v278.4C461.2,424.4,458.9,426.8,456,426.8"/>
	<path class="st0" d="M432,489.6h-22c-2.7,0-5-2.1-5.2-4.9l-4.7-62.8c-0.2-3,2-5.5,4.9-5.7c2.9-0.2,5.4,2,5.6,4.9l4.4,57.9h12.3
		l4.3-57.9c0.2-2.9,2.8-5.1,5.7-4.9c2.9,0.2,5.1,2.8,4.9,5.7l-4.7,62.8C437,487.4,434.7,489.6,432,489.6"/>
	<path class="st0" d="M88.1,489.6h-22c-2.7,0-5-2.1-5.3-4.9l-4.7-62.8c-0.2-3,2-5.5,4.9-5.7c2.9-0.2,5.4,2,5.6,4.9l4.4,57.9h12.3
		l4.3-57.9c0.2-2.9,2.8-5.1,5.7-4.9c2.9,0.2,5.1,2.8,4.9,5.7l-4.7,62.8C93.1,487.4,90.8,489.6,88.1,489.6"/>
	<path class="st0" d="M404.8,426.8c-2.9,0-5.3-2.4-5.3-5.3V143c0-3,2.4-5.4,5.3-5.4c2.9,0,5.3,2.4,5.3,5.3v0v278.4
		C410.1,424.4,407.7,426.8,404.8,426.8"/>
	<path class="st0" d="M93.2,426.8c-2.9,0-5.3-2.4-5.3-5.3V143c0-3,2.4-5.4,5.3-5.4c2.9,0,5.3,2.4,5.3,5.3v0v278.4
		C98.5,424.4,96.2,426.8,93.2,426.8"/>
	<path class="st0" d="M404.8,385.4H93.2c-2.9,0-5.3-2.4-5.3-5.3c0-3,2.4-5.3,5.3-5.3h311.5c2.9,0,5.3,2.4,5.3,5.3
		C410,383,407.7,385.4,404.8,385.4"/>
	<path class="st0" d="M305.2,232H192.9c-7.7,0-15.3-1.4-22.5-4.2l-17.8-6.9c-7.1-2.8-11.8-9.7-11.9-17.5v-4.1
		c0-6.2,4.9-11.2,11-11.2c1.3,0,2.7,0.2,3.9,0.7l18.5,7.1c6,2.3,12.3,3.5,18.7,3.5h112.3c6.4,0,12.7-1.2,18.7-3.5l18.5-7.1
		c5.7-2.2,12.1,0.7,14.2,6.5c0.5,1.3,0.7,2.6,0.7,4v4.1c0,7.7-4.7,14.7-11.9,17.5l-17.8,6.9C320.5,230.6,312.8,232,305.2,232
		 M151.7,198.9c-0.1,0-0.2,0-0.3,0.1c-0.1,0.1-0.2,0.2-0.2,0.4v4.1c0,3.3,2,6.3,5.1,7.5l17.8,6.9c6,2.3,12.3,3.5,18.7,3.5h112.3
		c6.4,0,12.7-1.2,18.7-3.5l17.8-6.9c3-1.2,5.1-4.1,5.1-7.5v-4.1c0-0.3-0.2-0.5-0.5-0.5c-0.1,0-0.1,0-0.2,0l-18.5,7.1
		c-7.2,2.8-14.8,4.2-22.5,4.2H192.9c-7.7,0-15.3-1.4-22.5-4.2l-18.5-7.1L151.7,198.9"/>
	<path class="st0" d="M77.6,119.7c-9.6,0-17.3-7.9-17.3-17.6s7.8-17.6,17.3-17.6S95,92.4,95,102.1C94.9,111.8,87.2,119.7,77.6,119.7
		 M77.6,95.2c-3.7,0-6.8,3.1-6.8,6.9c0,3.8,3,6.9,6.8,6.9c3.7,0,6.8-3.1,6.8-6.9C84.4,98.3,81.4,95.3,77.6,95.2"/>
	<path class="st0" d="M129.9,120.5c-10,0-18.1-8.2-18.1-18.4c0-10.2,8.1-18.4,18.1-18.4S148,92,148,102.2
		C148,112.3,139.9,120.5,129.9,120.5 M129.9,94.4c-4.2,0-7.6,3.4-7.6,7.7c0,4.3,3.4,7.7,7.6,7.7c4.2,0,7.6-3.4,7.6-7.7v0
		C137.5,97.9,134.1,94.5,129.9,94.4"/>
	<path class="st0" d="M372.1,120.5c-10,0-18.1-8.2-18.1-18.4c0-10.2,8.1-18.4,18.1-18.4c10,0,18.1,8.2,18.1,18.4
		C390.2,112.3,382.1,120.5,372.1,120.5 M372.1,94.4c-4.2,0-7.6,3.4-7.6,7.7c0,4.3,3.4,7.7,7.6,7.7c4.2,0,7.6-3.4,7.6-7.7v0
		C379.6,97.9,376.2,94.5,372.1,94.4"/>
	<path class="st0" d="M424.3,120.5c-10,0-18.1-8.2-18.1-18.4c0-10.2,8.1-18.4,18.1-18.4c10,0,18.1,8.2,18.1,18.4
		C442.4,112.3,434.3,120.5,424.3,120.5 M424.3,94.4c-4.2,0-7.6,3.4-7.6,7.7c0,4.3,3.4,7.7,7.6,7.7c4.2,0,7.6-3.4,7.6-7.7v0
		C431.9,97.9,428.5,94.5,424.3,94.4"/>
	<path class="st0" d="M250.8,120.5c-10,0-18.1-8.2-18.1-18.4c0-10.2,8.1-18.4,18.1-18.4s18.1,8.2,18.1,18.4
		C268.9,112.3,260.8,120.5,250.8,120.5 M250.8,94.4c-4.2,0-7.6,3.4-7.6,7.7s3.4,7.7,7.6,7.7s7.6-3.5,7.6-7.7S255,94.4,250.8,94.4"/>
	<path class="st0" d="M303,120.5c-10,0-18.1-8.2-18.1-18.4c0-10.2,8.1-18.4,18.1-18.4c10,0,18.1,8.2,18.1,18.4
		C321.1,112.3,313.1,120.5,303,120.5 M303,94.4c-4.2,0-7.6,3.4-7.6,7.7c0,4.3,3.4,7.7,7.6,7.7c4.2,0,7.6-3.4,7.6-7.7v0
		C310.6,97.9,307.2,94.5,303,94.4"/>
	<path class="st0" d="M404.8,171H93.2c-2.9,0-5.3-2.4-5.3-5.4c0-2.9,2.4-5.3,5.3-5.3h311.5c2.9,0,5.3,2.4,5.3,5.3
		C410.1,168.6,407.7,171,404.8,171L404.8,171z"/>
</g>
</svg>
