<?xml version="1.0" encoding="utf-8"?>
<!-- Generator: Adobe Illustrator 27.9.0, SVG Export Plug-In . SVG Version: 6.00 Build 0)  -->
<svg version="1.1" id="Layer_1" xmlns="http://www.w3.org/2000/svg" xmlns:xlink="http://www.w3.org/1999/xlink" x="0px" y="0px"
	 viewBox="0 0 500 500" style="enable-background:new 0 0 500 500;" xml:space="preserve">
<style type="text/css">
	.st0{fill:#FFFFFF;}
</style>
<g>
	<path class="st0" d="M413.6,453.9H23.8c-2.9,0-5.3-2.4-5.3-5.3v0v-60.5c0-3,2.4-5.3,5.3-5.3h249.6c2.9,0,5.3,2.4,5.3,5.3
		c0,2.9-2.4,5.3-5.3,5.3H29.1v49.9h379.2v-51.2c-2.2-1.9-2.5-5.2-0.6-7.5c1-1.2,2.5-1.9,4-1.9h1.9c2.9,0,5.3,2.4,5.3,5.3v60.5
		C418.9,451.6,416.5,453.9,413.6,453.9"/>
	<path class="st0" d="M290.6,376.2c-1.4,0-2.8-0.5-3.8-1.5l-196-196c-2.1-2.1-2.1-5.4,0-7.5v0l43.8-43.8c2.1-2,5.4-2,7.5,0l196,196
		c2.1,2.1,2.1,5.4,0,7.5c-2.1,2.1-5.4,2.1-7.5,0L138.3,138.7l-36.2,36.2l192.3,192.3c2.1,2.1,2.1,5.4,0,7.5
		C293.4,375.7,292,376.2,290.6,376.2"/>
	<path class="st0" d="M265.9,264.1c-2.9,0-5.3-2.4-5.3-5.3c0-1.4,0.5-2.8,1.6-3.8l129.5-129.5l-36.2-36.2L225.9,218.8
		c-2,2.1-5.4,2.2-7.5,0.2c-2.1-2-2.2-5.4-0.2-7.5c0.1-0.1,0.1-0.1,0.2-0.2L351.7,78c2.1-2.1,5.4-2.1,7.5,0c0,0,0,0,0,0l43.8,43.7
		c2.1,2.1,2.1,5.4,0,7.5L269.7,262.5C268.7,263.5,267.3,264.1,265.9,264.1"/>
	<path class="st0" d="M236,234.2c-2.9,0-5.3-2.3-5.3-5.3c0-1.4,0.6-2.8,1.6-3.8l119.4-119.4c2-2.2,5.4-2.3,7.5-0.3
		c2.2,2,2.3,5.4,0.3,7.5c-0.1,0.1-0.2,0.2-0.3,0.3L239.8,232.6C238.8,233.6,237.4,234.2,236,234.2"/>
	<path class="st0" d="M383.4,115c-2.9,0-5.3-2.4-5.3-5.3c0-1.4,0.6-2.8,1.6-3.7L453.5,32l-9.3-9.3l-73.9,73.9
		c-2.1,2.1-5.4,2.1-7.5,0c-2.1-2.1-2.1-5.4,0-7.5l77.6-77.7c2.1-2,5.4-2,7.5,0l16.8,16.8c2.1,2.1,2.1,5.4,0,7.5c0,0,0,0,0,0
		l-77.6,77.6C386.1,114.4,384.8,115,383.4,115"/>
	<path class="st0" d="M397,488.1h-42c-2.9,0-5.3-2.4-5.3-5.3v-34.2c0-2.9,2.4-5.3,5.3-5.3s5.3,2.4,5.3,5.3v28.9h31.4v-28.9
		c0-2.9,2.4-5.3,5.3-5.3c2.9,0,5.3,2.4,5.3,5.3v34.2C402.3,485.7,399.9,488.1,397,488.1"/>
	<path class="st0" d="M82.4,488.1h-42c-2.9,0-5.3-2.4-5.3-5.3v0v-34.2c0-2.9,2.4-5.3,5.3-5.3c2.9,0,5.3,2.4,5.3,5.3v28.9h31.4v-28.9
		c0-2.9,2.4-5.3,5.3-5.3s5.3,2.4,5.3,5.3v34.2C87.7,485.7,85.3,488.1,82.4,488.1"/>
	<path class="st0" d="M36.6,393.4c-2.9,0-5.3-2.4-5.3-5.3v-26.6c0-11.3,4.5-22.1,12.4-30l103.7-103.7c2.1-2.1,5.4-2.1,7.5,0
		c2.1,2.1,2.1,5.4,0,7.5L51.3,339c-6,6-9.3,14.1-9.3,22.5v26.6C41.9,391,39.6,393.4,36.6,393.4z"/>
	<path class="st0" d="M413.6,443.8c-2.9,0-5.3-2.4-5.3-5.3v-33.3c0-40.5-32.8-73.3-73.3-73.3h0h-1.3c-2.9,0-5.3-2.4-5.3-5.3
		c0-2.9,2.4-5.3,5.3-5.3h1.3c46.3,0,83.9,37.6,83.9,83.9v33.4C418.9,441.4,416.5,443.8,413.6,443.8L413.6,443.8"/>
	<path class="st0" d="M273.4,393.4c-2.9,0-5.3-2.4-5.3-5.3c0-1.4,0.6-2.8,1.6-3.7l61.6-61.6c2.2-2,5.5-1.8,7.5,0.4
		c1.9,2.1,1.9,5.2-0.1,7.3L338,331l-60.8,60.9C276.2,392.8,274.8,393.4,273.4,393.4"/>
	<path class="st0" d="M455.5,423.9h-42c-2.9,0-5.3-2.4-5.3-5.3V277.1c0-13.6-11-24.6-24.6-24.6c-3.9,0-7.8,0.9-11.3,2.7l-9.5,4.9
		c-8.2,4.2-17.3,6.4-26.5,6.4c-18.7,0-33.9-15.2-33.9-33.9v-9.8c0-2.9,2.4-5.3,5.3-5.3c2.9,0,5.3,2.4,5.3,5.3v9.8
		c0,12.8,10.4,23.2,23.3,23.3c7.5,0,14.9-1.8,21.6-5.2l9.4-4.9c17.3-8.9,38.6-2.1,47.5,15.2c2.6,5,3.9,10.5,3.9,16.2v136.2h31.4
		V241.5c0-34.7-28.2-62.9-62.9-62.9h-30c-2.9,0.1-5.4-2.2-5.5-5.1c-0.1-2.9,2.2-5.4,5.1-5.5c0.1,0,0.2,0,0.3,0h30
		c40.6,0,73.5,32.9,73.6,73.5v177.1C460.8,421.5,458.5,423.9,455.5,423.9L455.5,423.9"/>
	<path class="st0" d="M61.4,435.5c-9.5,0-17.2-7.7-17.2-17.2c0-9.5,7.7-17.2,17.2-17.2s17.2,7.7,17.2,17.2
		C78.5,427.8,70.9,435.5,61.4,435.5 M61.4,411.8c-3.6,0-6.5,2.9-6.5,6.5s2.9,6.5,6.5,6.5s6.5-2.9,6.5-6.5
		C67.9,414.7,65,411.8,61.4,411.8"/>
	<path class="st0" d="M108.5,435.5c-9.5,0-17.2-7.7-17.2-17.2c0-9.5,7.7-17.2,17.2-17.2s17.2,7.7,17.2,17.2
		C125.7,427.8,118,435.5,108.5,435.5 M108.5,411.8c-3.6,0-6.5,2.9-6.5,6.5c0,3.6,2.9,6.5,6.5,6.5s6.5-2.9,6.5-6.5
		C115.1,414.7,112.1,411.8,108.5,411.8"/>
	<path class="st0" d="M355,418.4c-15.4,0-27.9-12.5-27.9-27.9c0-15.4,12.5-27.9,27.9-27.9c15.4,0,27.9,12.5,27.9,27.9
		C382.9,405.9,370.4,418.3,355,418.4 M355,373.2c-9.5,0-17.3,7.7-17.3,17.3s7.7,17.3,17.3,17.3c9.5,0,17.3-7.7,17.3-17.3
		C372.2,380.9,364.5,373.2,355,373.2"/>
	<path class="st0" d="M203.6,423.9h-52.4c-2.9,0-5.3-2.4-5.3-5.3c0-2.9,2.4-5.3,5.3-5.3h52.4c2.9,0,5.3,2.4,5.3,5.3
		C208.9,421.5,206.5,423.9,203.6,423.9"/>
	<path class="st0" d="M474.2,382.8h-18.7c-2.9,0-5.3-2.4-5.3-5.3s2.4-5.3,5.3-5.3h13.4v-27.8h-13.4c-2.9,0-5.3-2.4-5.3-5.3
		c0-2.9,2.4-5.3,5.3-5.3h18.7c2.9,0,5.3,2.4,5.3,5.3v38.4C479.5,380.5,477.1,382.9,474.2,382.8"/>
</g>
</svg>
