<?xml version="1.0" encoding="utf-8"?>
<!-- Generator: Adobe Illustrator 27.9.0, SVG Export Plug-In . SVG Version: 6.00 Build 0)  -->
<svg version="1.1" id="Layer_1" xmlns="http://www.w3.org/2000/svg" xmlns:xlink="http://www.w3.org/1999/xlink" x="0px" y="0px"
	 viewBox="0 0 500 500" style="enable-background:new 0 0 500 500;" xml:space="preserve">
<style type="text/css">
	.st0{fill:#FFFFFF;}
	.st1{fill:none;stroke:#1F2E35;stroke-width:0.173;}
	.st2{fill:none;stroke:#1F2E35;stroke-width:0.173;stroke-miterlimit:10;}
</style>
<g>
	<path class="st0" d="M437.3,13.6H60.7c-13,0-23.5,10.6-23.5,23.5v392.3c0,13,10.6,23.5,23.5,23.5v15.7c0,8.7,7,15.7,15.7,15.7h47.1
		c8.7,0,15.7-7,15.7-15.7V453h219.7v15.7c0,8.7,7,15.7,15.7,15.7h47.1c8.7,0,15.7-7,15.7-15.7V453c13,0,23.5-10.6,23.5-23.5V37.2
		C460.8,24.2,450.3,13.7,437.3,13.6 M445.1,272.5h-15.7c0-69.3-56.1-125.5-125.4-125.5c-19,0-37.9,4.3-55,12.7
		c-62.3-30.3-137.5-4.4-167.8,57.9c-8.3,17.1-12.7,35.9-12.7,55H52.8V131.3h392.3V272.5z M280.3,347.4c-4.8-1.5-9.4-3.4-13.8-5.8
		l-1.1-0.6c-0.6-0.3-1.1-0.6-1.7-0.9c-0.8-0.5-1.7-1-2.5-1.6l-0.5-0.3c-8.3-5.4-15.6-12.4-21.3-20.5l-0.7-1
		c-0.4-0.6-0.8-1.2-1.2-1.8c-0.4-0.6-0.8-1.3-1.2-1.9c-0.3-0.4-0.5-0.8-0.7-1.3c-0.4-0.7-0.8-1.4-1.2-2.1c-0.3-0.5-0.6-1.1-0.9-1.7
		c-0.3-0.6-0.5-1-0.8-1.5c-2.8-5.8-4.8-11.9-6.1-18.2h153.9c-7.5,36.5-39.6,62.7-76.9,62.8C295.9,351,288,349.8,280.3,347.4
		 M382.4,272.5H225.3c0-34.3,22.3-64.6,55.1-74.8c7.6-2.4,15.6-3.6,23.5-3.6C347.2,194.1,382.3,229.2,382.4,272.5 M398.1,272.5
		c0-1.8-0.1-3.6-0.2-5.4c-2.9-49.8-44.1-88.7-94-88.7c-9.6,0-19.1,1.4-28.2,4.3c-39.3,12.3-66,48.7-66.1,89.9h-15.5
		c0-1.8,0-3.5,0.1-5.3l0-0.7c0-0.5,0.1-1.1,0.1-1.6c0-0.6,0.1-0.9,0.1-1.4l0.1-0.7c1.2-13.7,5-27.1,11.2-39.5
		c0.1-0.2,0.2-0.4,0.3-0.6c0.2-0.3,0.3-0.6,0.5-0.9c9.2-17.6,23-32.4,39.9-42.9l1.1-0.7c0.2-0.1,0.5-0.3,0.7-0.4
		c1.5-0.9,3-1.7,4.5-2.5l0.1-0.1c53.7-28.3,120.1-7.7,148.3,46c8.3,15.8,12.6,33.3,12.6,51.2H398.1z M217.7,181.4
		c-7.7-2-15.7-3-23.6-3c-52,0-94.1,42.1-94.1,94.1H84.2c0.1-60.7,49.3-109.9,110-109.8c13,0,25.8,2.3,38,6.8
		C227.1,173.1,222.3,177.1,217.7,181.4 M194.1,194.1c3.8,0,7.5,0.3,11.2,0.9c-1.9,2.4-3.7,4.9-5.4,7.4l-0.2,0.2
		c-0.5,0.7-0.9,1.4-1.4,2.1l-0.4,0.6c-0.4,0.6-0.7,1.1-1.1,1.7c-0.2,0.3-0.4,0.6-0.6,0.9c-0.3,0.4-0.5,0.9-0.8,1.3
		c-0.2,0.4-0.5,0.8-0.8,1.3c-0.1,0.2-0.2,0.3-0.3,0.5c-10.6,18.8-16.2,40-16.2,61.6h-62.7C115.8,229.3,150.8,194.2,194.1,194.1
		 M179.4,288.2c0.8,6.7,2.2,13.3,4.2,19.8l0.1,0.4c0.2,0.7,0.4,1.4,0.6,2.1l0.3,1l0.5,1.5c4.6,13.5,11.4,26.1,20.2,37.2
		c-3.6,0.5-7.3,0.8-10.9,0.8c-37.3,0.1-69.5-26.2-77-62.8L179.4,288.2z M52.9,288.2h16.7c5,39.8,28.7,74.7,63.8,94.2H52.8
		L52.9,288.2z M85.4,288.2h15.9c7.7,45.3,46.9,78.4,92.8,78.5c7.9,0,15.9-1,23.6-3c4.6,4.3,9.4,8.3,14.6,11.8
		c-56.9,21.1-120.1-8-141.1-64.9C88.4,303.4,86.5,295.9,85.4,288.2 M204.9,320.1L204.9,320.1c-0.4-0.8-0.7-1.5-1.1-2.3
		c-0.1-0.1-0.1-0.2-0.2-0.4c-0.3-0.7-0.6-1.3-0.9-2c-0.1-0.2-0.2-0.4-0.2-0.6c-0.3-0.6-0.5-1.3-0.8-1.9c-0.1-0.2-0.2-0.4-0.2-0.7
		c-0.2-0.6-0.5-1.3-0.7-1.9c-0.1-0.2-0.2-0.4-0.2-0.6c-0.2-0.7-0.5-1.3-0.7-2c-0.1-0.2-0.1-0.3-0.2-0.5c-0.2-0.7-0.5-1.4-0.7-2.1
		l-0.1-0.3c-0.2-0.8-0.5-1.6-0.7-2.4c-1.3-4.7-2.4-9.5-3-14.3h15.7c1.7,9.8,4.9,19.2,9.5,28c0.3,0.6,0.7,1.2,1.1,1.9l0.2,0.4
		c0.7,1.2,1.4,2.5,2.2,3.7l0.1,0.1c6.3,10.3,14.6,19.2,24.4,26.3l1.1,0.8c0.8,0.5,1.6,1.1,2.3,1.6c0.8,0.5,1.7,1.1,2.6,1.7
		c0.3,0.2,0.6,0.4,0.9,0.6c1.1,0.7,2.2,1.3,3.3,1.9l0.3,0.1c5.4,2.9,11.1,5.4,17,7.2c8.8,2.7,17.9,4.1,27.1,4.2h1
		c2.2,0,4.4-0.1,6.6-0.2c43.3-3,79-35.4,86.3-78.2h15.9c-8.6,60-64.3,101.7-124.3,93.1C252.1,376.1,220.8,353.1,204.9,320.1
		 M428.5,288.2h16.7v94.2h-80.5C399.7,363,423.4,328,428.5,288.2 M60.7,29.3h376.6c4.3,0,7.8,3.5,7.9,7.8v78.5H52.8V37.2
		C52.8,32.9,56.4,29.4,60.7,29.3 M123.4,468.7H76.4V453h47.1V468.7z M374.5,453h47.1v15.7h-47.1V453z M437.3,437.3H60.7
		c-4.3,0-7.8-3.5-7.9-7.9v-31.4h392.3v31.4C445.1,433.8,441.6,437.3,437.3,437.3"/>
	<path class="st1" d="M437.3,13.6H60.7c-13,0-23.5,10.6-23.5,23.5v392.3c0,13,10.6,23.5,23.5,23.5v15.7c0,8.7,7,15.7,15.7,15.7h47.1
		c8.7,0,15.7-7,15.7-15.7V453h219.7v15.7c0,8.7,7,15.7,15.7,15.7h47.1c8.7,0,15.7-7,15.7-15.7V453c13,0,23.5-10.6,23.5-23.5V37.2
		C460.8,24.2,450.3,13.7,437.3,13.6 M445.1,272.5h-15.7c0-69.3-56.1-125.5-125.4-125.5c-19,0-37.9,4.3-55,12.7
		c-62.3-30.3-137.5-4.4-167.8,57.9c-8.3,17.1-12.7,35.9-12.7,55H52.8V131.3h392.3V272.5z M280.3,347.4c-4.8-1.5-9.4-3.4-13.8-5.8
		l-1.1-0.6c-0.6-0.3-1.1-0.6-1.7-0.9c-0.8-0.5-1.7-1-2.5-1.6l-0.5-0.3c-8.3-5.4-15.6-12.4-21.3-20.5l-0.7-1
		c-0.4-0.6-0.8-1.2-1.2-1.8c-0.4-0.6-0.8-1.3-1.2-1.9c-0.3-0.4-0.5-0.8-0.7-1.3c-0.4-0.7-0.8-1.4-1.2-2.1c-0.3-0.5-0.6-1.1-0.9-1.7
		c-0.3-0.6-0.5-1-0.8-1.5c-2.8-5.8-4.8-11.9-6.1-18.2h153.9c-7.5,36.5-39.6,62.7-76.9,62.8C295.9,351,288,349.8,280.3,347.4
		 M382.4,272.5H225.3c0-34.3,22.3-64.6,55.1-74.8c7.6-2.4,15.6-3.6,23.5-3.6C347.2,194.1,382.3,229.2,382.4,272.5 M398.1,272.5
		c0-1.8-0.1-3.6-0.2-5.4c-2.9-49.8-44.1-88.7-94-88.7c-9.6,0-19.1,1.4-28.2,4.3c-39.3,12.3-66,48.7-66.1,89.9h-15.5
		c0-1.8,0-3.5,0.1-5.3l0-0.7c0-0.5,0.1-1.1,0.1-1.6c0-0.6,0.1-0.9,0.1-1.4l0.1-0.7c1.2-13.7,5-27.1,11.2-39.5
		c0.1-0.2,0.2-0.4,0.3-0.6c0.2-0.3,0.3-0.6,0.5-0.9c9.2-17.6,23-32.4,39.9-42.9l1.1-0.7c0.2-0.1,0.5-0.3,0.7-0.4
		c1.5-0.9,3-1.7,4.5-2.5l0.1-0.1c53.7-28.3,120.1-7.7,148.3,46c8.3,15.8,12.6,33.3,12.6,51.2H398.1z M217.7,181.4
		c-7.7-2-15.7-3-23.6-3c-52,0-94.1,42.1-94.1,94.1H84.2c0.1-60.7,49.3-109.9,110-109.8c13,0,25.8,2.3,38,6.8
		C227.1,173.1,222.3,177.1,217.7,181.4 M194.1,194.1c3.8,0,7.5,0.3,11.2,0.9c-1.9,2.4-3.7,4.9-5.4,7.4l-0.2,0.2
		c-0.5,0.7-0.9,1.4-1.4,2.1l-0.4,0.6c-0.4,0.6-0.7,1.1-1.1,1.7c-0.2,0.3-0.4,0.6-0.6,0.9c-0.3,0.4-0.5,0.9-0.8,1.3
		c-0.2,0.4-0.5,0.8-0.8,1.3c-0.1,0.2-0.2,0.3-0.3,0.5c-10.6,18.8-16.2,40-16.2,61.6h-62.7C115.8,229.3,150.8,194.2,194.1,194.1
		 M179.4,288.2c0.8,6.7,2.2,13.3,4.2,19.8l0.1,0.4c0.2,0.7,0.4,1.4,0.6,2.1l0.3,1l0.5,1.5c4.6,13.5,11.4,26.1,20.2,37.2
		c-3.6,0.5-7.3,0.8-10.9,0.8c-37.3,0.1-69.5-26.2-77-62.8L179.4,288.2z M52.9,288.2h16.7c5,39.8,28.7,74.7,63.8,94.2H52.8
		L52.9,288.2z M85.4,288.2h15.9c7.7,45.3,46.9,78.4,92.8,78.5c7.9,0,15.9-1,23.6-3c4.6,4.3,9.4,8.3,14.6,11.8
		c-56.9,21.1-120.1-8-141.1-64.9C88.4,303.4,86.5,295.9,85.4,288.2 M204.9,320.1L204.9,320.1c-0.4-0.8-0.7-1.5-1.1-2.3
		c-0.1-0.1-0.1-0.2-0.2-0.4c-0.3-0.7-0.6-1.3-0.9-2c-0.1-0.2-0.2-0.4-0.2-0.6c-0.3-0.6-0.5-1.3-0.8-1.9c-0.1-0.2-0.2-0.4-0.2-0.7
		c-0.2-0.6-0.5-1.3-0.7-1.9c-0.1-0.2-0.2-0.4-0.2-0.6c-0.2-0.7-0.5-1.3-0.7-2c-0.1-0.2-0.1-0.3-0.2-0.5c-0.2-0.7-0.5-1.4-0.7-2.1
		l-0.1-0.3c-0.2-0.8-0.5-1.6-0.7-2.4c-1.3-4.7-2.4-9.5-3-14.3h15.7c1.7,9.8,4.9,19.2,9.5,28c0.3,0.6,0.7,1.2,1.1,1.9l0.2,0.4
		c0.7,1.2,1.4,2.5,2.2,3.7l0.1,0.1c6.3,10.3,14.6,19.2,24.4,26.3l1.1,0.8c0.8,0.5,1.6,1.1,2.3,1.6c0.8,0.5,1.7,1.1,2.6,1.7
		c0.3,0.2,0.6,0.4,0.9,0.6c1.1,0.7,2.2,1.3,3.3,1.9l0.3,0.1c5.4,2.9,11.1,5.4,17,7.2c8.8,2.7,17.9,4.1,27.1,4.2h1
		c2.2,0,4.4-0.1,6.6-0.2c43.3-3,79-35.4,86.3-78.2h15.9c-8.6,60-64.3,101.7-124.3,93.1C252.1,376.1,220.8,353.1,204.9,320.1
		 M428.5,288.2h16.7v94.2h-80.5C399.7,363,423.4,328,428.5,288.2 M60.7,29.3h376.6c4.3,0,7.8,3.5,7.9,7.8v78.5H52.8V37.2
		C52.8,32.9,56.4,29.4,60.7,29.3 M123.4,468.7H76.4V453h47.1V468.7z M374.5,453h47.1v15.7h-47.1V453z M437.3,437.3H60.7
		c-4.3,0-7.8-3.5-7.9-7.9v-31.4h392.3v31.4C445.1,433.8,441.6,437.3,437.3,437.3z"/>
	<path class="st0" d="M437.3,13.6H60.7c-13,0-23.5,10.6-23.5,23.5v392.3c0,13,10.6,23.5,23.5,23.5v15.7c0,8.7,7,15.7,15.7,15.7h47.1
		c8.7,0,15.7-7,15.7-15.7V453h219.7v15.7c0,8.7,7,15.7,15.7,15.7h47.1c8.7,0,15.7-7,15.7-15.7V453c13,0,23.5-10.6,23.5-23.5V37.2
		C460.8,24.2,450.3,13.6,437.3,13.6L437.3,13.6z M445.1,272.5h-15.7c0-69.3-56.1-125.5-125.4-125.5c-19,0-37.9,4.3-55,12.7
		c-62.3-30.3-137.5-4.4-167.8,57.9c-8.3,17.1-12.7,35.9-12.7,55H52.8V131.3h392.3V272.5z M280.3,347.4c-4.8-1.5-9.4-3.4-13.8-5.8
		l-1.1-0.6c-0.6-0.3-1.1-0.6-1.7-0.9c-0.8-0.5-1.7-1-2.5-1.6l-0.5-0.3c-8.3-5.4-15.6-12.4-21.3-20.5l-0.7-1
		c-0.4-0.6-0.8-1.2-1.2-1.8c-0.4-0.6-0.8-1.3-1.2-1.9c-0.3-0.4-0.5-0.8-0.7-1.3c-0.4-0.7-0.8-1.4-1.2-2.1c-0.3-0.5-0.6-1.1-0.9-1.7
		c-0.3-0.6-0.5-1-0.8-1.5c-2.8-5.8-4.8-11.9-6.1-18.2h153.9c-7.5,36.5-39.6,62.7-76.9,62.8C295.9,351,288,349.8,280.3,347.4
		L280.3,347.4z M382.4,272.5H225.3c0-34.3,22.3-64.6,55.1-74.8c7.6-2.4,15.6-3.6,23.5-3.6C347.2,194.1,382.3,229.2,382.4,272.5
		 M398.1,272.5c0-1.8-0.1-3.6-0.2-5.4c-2.9-49.8-44.1-88.7-94-88.7c-9.6,0-19.1,1.4-28.2,4.3c-39.3,12.3-66,48.7-66.1,89.9h-15.5
		c0-1.8,0-3.5,0.1-5.3l0-0.7c0-0.5,0.1-1.1,0.1-1.6c0-0.6,0.1-0.9,0.1-1.4l0.1-0.7c1.2-13.7,5-27.1,11.2-39.5
		c0.1-0.2,0.2-0.4,0.3-0.6c0.2-0.3,0.3-0.6,0.5-0.9c9.2-17.6,23-32.4,39.9-42.9l1.1-0.7c0.2-0.1,0.5-0.3,0.7-0.4
		c1.5-0.9,3-1.7,4.5-2.5l0.1-0.1c53.7-28.3,120.1-7.7,148.3,46c8.3,15.8,12.6,33.3,12.6,51.2H398.1z M217.7,181.4
		c-7.7-2-15.7-3-23.6-3c-52,0-94.1,42.1-94.2,94.1H84.2c0.1-60.7,49.3-109.9,110-109.8c13,0,25.8,2.3,38,6.8
		C227.1,173.1,222.3,177.1,217.7,181.4L217.7,181.4z M194.1,194.1c3.8,0,7.5,0.3,11.2,0.9c-1.9,2.4-3.7,4.9-5.4,7.4l-0.2,0.2
		c-0.5,0.7-0.9,1.4-1.4,2.1l-0.4,0.6c-0.4,0.6-0.7,1.1-1.1,1.7c-0.2,0.3-0.4,0.6-0.6,0.9c-0.3,0.4-0.5,0.9-0.8,1.3
		c-0.2,0.4-0.5,0.9-0.8,1.3c-0.1,0.2-0.2,0.3-0.3,0.5c-10.6,18.8-16.2,40-16.2,61.6h-62.6C115.8,229.3,150.8,194.2,194.1,194.1
		L194.1,194.1z M179.3,288.2c0.8,6.7,2.2,13.3,4.2,19.8l0.1,0.4c0.2,0.7,0.4,1.4,0.6,2.1l0.3,1l0.5,1.5
		c4.6,13.5,11.4,26.1,20.2,37.2c-3.6,0.5-7.3,0.8-10.9,0.8c-37.3,0.1-69.6-26.2-77-62.8L179.3,288.2z M52.8,288.2h16.7
		c5,39.8,28.7,74.7,63.8,94.2H52.8V288.2z M85.4,288.2h15.9c7.7,45.3,46.9,78.4,92.8,78.5c8,0,15.9-1,23.6-3
		c4.5,4.3,9.4,8.3,14.6,11.9c-56.9,21.1-120.1-8-141.1-64.9C88.4,303.5,86.5,295.9,85.4,288.2L85.4,288.2z M204.9,320.1L204.9,320.1
		c-0.4-0.8-0.7-1.5-1.1-2.3c-0.1-0.1-0.1-0.2-0.2-0.4c-0.3-0.7-0.6-1.3-0.9-2c-0.1-0.2-0.2-0.4-0.2-0.6c-0.3-0.6-0.5-1.3-0.8-1.9
		c-0.1-0.2-0.2-0.4-0.3-0.7c-0.2-0.6-0.5-1.3-0.7-1.9c-0.1-0.2-0.2-0.4-0.2-0.6c-0.2-0.7-0.5-1.3-0.7-2c-0.1-0.2-0.1-0.3-0.2-0.5
		c-0.2-0.7-0.5-1.4-0.7-2.1l-0.1-0.3c-0.2-0.8-0.5-1.6-0.7-2.4c-1.3-4.7-2.3-9.5-3-14.3h15.7c1.7,9.8,4.9,19.2,9.5,28
		c0.3,0.6,0.7,1.2,1.1,1.9l0.2,0.4c0.7,1.2,1.4,2.5,2.2,3.7l0.1,0.1c6.3,10.3,14.6,19.2,24.4,26.3l1.1,0.8c0.8,0.5,1.6,1.1,2.3,1.6
		c0.8,0.5,1.7,1.1,2.6,1.7c0.3,0.2,0.6,0.4,0.9,0.6c1.1,0.7,2.2,1.3,3.3,1.9l0.3,0.1c5.4,2.9,11.1,5.4,17,7.2
		c8.8,2.7,17.9,4.1,27.1,4.2h1c2.2,0,4.4-0.1,6.6-0.2c43.3-3,79-35.4,86.3-78.2h15.9c-8.6,60-64.3,101.7-124.3,93.1
		C252.1,376.1,220.8,353.1,204.9,320.1L204.9,320.1z M428.5,288.2h16.7v94.2h-80.5C399.7,363,423.4,328,428.5,288.2 M60.7,29.3
		h376.6c4.3,0,7.8,3.5,7.9,7.8v78.5H52.8V37.2C52.8,32.9,56.4,29.4,60.7,29.3z M123.4,468.7H76.4V453h47.1V468.7z M374.5,453h47.1
		v15.7h-47.1V453z M437.3,437.3H60.7c-4.3,0-7.8-3.5-7.9-7.9v-31.4h392.3v31.4C445.1,433.8,441.6,437.3,437.3,437.3"/>
	<path class="st2" d="M437.3,13.6H60.7c-13,0-23.5,10.6-23.5,23.5v392.3c0,13,10.6,23.5,23.5,23.5v15.7c0,8.7,7,15.7,15.7,15.7h47.1
		c8.7,0,15.7-7,15.7-15.7V453h219.7v15.7c0,8.7,7,15.7,15.7,15.7h47.1c8.7,0,15.7-7,15.7-15.7V453c13,0,23.5-10.6,23.5-23.5V37.2
		C460.8,24.2,450.3,13.6,437.3,13.6L437.3,13.6z M445.1,272.5h-15.7c0-69.3-56.1-125.5-125.4-125.5c-19,0-37.9,4.3-55,12.7
		c-62.3-30.3-137.5-4.4-167.8,57.9c-8.3,17.1-12.7,35.9-12.7,55H52.8V131.3h392.3V272.5z M280.3,347.4c-4.8-1.5-9.4-3.4-13.8-5.8
		l-1.1-0.6c-0.6-0.3-1.1-0.6-1.7-0.9c-0.8-0.5-1.7-1-2.5-1.6l-0.5-0.3c-8.3-5.4-15.6-12.4-21.3-20.5l-0.7-1
		c-0.4-0.6-0.8-1.2-1.2-1.8c-0.4-0.6-0.8-1.3-1.2-1.9c-0.3-0.4-0.5-0.8-0.7-1.3c-0.4-0.7-0.8-1.4-1.2-2.1c-0.3-0.5-0.6-1.1-0.9-1.7
		c-0.3-0.6-0.5-1-0.8-1.5c-2.8-5.8-4.8-11.9-6.1-18.2h153.9c-7.5,36.5-39.6,62.7-76.9,62.8C295.9,351,288,349.8,280.3,347.4
		L280.3,347.4z M382.4,272.5H225.3c0-34.3,22.3-64.6,55.1-74.8c7.6-2.4,15.6-3.6,23.5-3.6C347.2,194.1,382.3,229.2,382.4,272.5z
		 M398.1,272.5c0-1.8-0.1-3.6-0.2-5.4c-2.9-49.8-44.1-88.7-94-88.7c-9.6,0-19.1,1.4-28.2,4.3c-39.3,12.3-66,48.7-66.1,89.9h-15.5
		c0-1.8,0-3.5,0.1-5.3l0-0.7c0-0.5,0.1-1.1,0.1-1.6c0-0.6,0.1-0.9,0.1-1.4l0.1-0.7c1.2-13.7,5-27.1,11.2-39.5
		c0.1-0.2,0.2-0.4,0.3-0.6c0.2-0.3,0.3-0.6,0.5-0.9c9.2-17.6,23-32.4,39.9-42.9l1.1-0.7c0.2-0.1,0.5-0.3,0.7-0.4
		c1.5-0.9,3-1.7,4.5-2.5l0.1-0.1c53.7-28.3,120.1-7.7,148.3,46c8.3,15.8,12.6,33.3,12.6,51.2H398.1z M217.7,181.4
		c-7.7-2-15.7-3-23.6-3c-52,0-94.1,42.1-94.2,94.1H84.2c0.1-60.7,49.3-109.9,110-109.8c13,0,25.8,2.3,38,6.8
		C227.1,173.1,222.3,177.1,217.7,181.4L217.7,181.4z M194.1,194.1c3.8,0,7.5,0.3,11.2,0.9c-1.9,2.4-3.7,4.9-5.4,7.4l-0.2,0.2
		c-0.5,0.7-0.9,1.4-1.4,2.1l-0.4,0.6c-0.4,0.6-0.7,1.1-1.1,1.7c-0.2,0.3-0.4,0.6-0.6,0.9c-0.3,0.4-0.5,0.9-0.8,1.3
		c-0.2,0.4-0.5,0.9-0.8,1.3c-0.1,0.2-0.2,0.3-0.3,0.5c-10.6,18.8-16.2,40-16.2,61.6h-62.6C115.8,229.3,150.8,194.2,194.1,194.1
		L194.1,194.1z M179.3,288.2c0.8,6.7,2.2,13.3,4.2,19.8l0.1,0.4c0.2,0.7,0.4,1.4,0.6,2.1l0.3,1l0.5,1.5
		c4.6,13.5,11.4,26.1,20.2,37.2c-3.6,0.5-7.3,0.8-10.9,0.8c-37.3,0.1-69.6-26.2-77-62.8L179.3,288.2z M52.8,288.2h16.7
		c5,39.8,28.7,74.7,63.8,94.2H52.8V288.2z M85.4,288.2h15.9c7.7,45.3,46.9,78.4,92.8,78.5c8,0,15.9-1,23.6-3
		c4.5,4.3,9.4,8.3,14.6,11.9c-56.9,21.1-120.1-8-141.1-64.9C88.4,303.5,86.5,295.9,85.4,288.2L85.4,288.2z M204.9,320.1L204.9,320.1
		c-0.4-0.8-0.7-1.5-1.1-2.3c-0.1-0.1-0.1-0.2-0.2-0.4c-0.3-0.7-0.6-1.3-0.9-2c-0.1-0.2-0.2-0.4-0.2-0.6c-0.3-0.6-0.5-1.3-0.8-1.9
		c-0.1-0.2-0.2-0.4-0.3-0.7c-0.2-0.6-0.5-1.3-0.7-1.9c-0.1-0.2-0.2-0.4-0.2-0.6c-0.2-0.7-0.5-1.3-0.7-2c-0.1-0.2-0.1-0.3-0.2-0.5
		c-0.2-0.7-0.5-1.4-0.7-2.1l-0.1-0.3c-0.2-0.8-0.5-1.6-0.7-2.4c-1.3-4.7-2.3-9.5-3-14.3h15.7c1.7,9.8,4.9,19.2,9.5,28
		c0.3,0.6,0.7,1.2,1.1,1.9l0.2,0.4c0.7,1.2,1.4,2.5,2.2,3.7l0.1,0.1c6.3,10.3,14.6,19.2,24.4,26.3l1.1,0.8c0.8,0.5,1.6,1.1,2.3,1.6
		c0.8,0.5,1.7,1.1,2.6,1.7c0.3,0.2,0.6,0.4,0.9,0.6c1.1,0.7,2.2,1.3,3.3,1.9l0.3,0.1c5.4,2.9,11.1,5.4,17,7.2
		c8.8,2.7,17.9,4.1,27.1,4.2h1c2.2,0,4.4-0.1,6.6-0.2c43.3-3,79-35.4,86.3-78.2h15.9c-8.6,60-64.3,101.7-124.3,93.1
		C252.1,376.1,220.8,353.1,204.9,320.1L204.9,320.1z M428.5,288.2h16.7v94.2h-80.5C399.7,363,423.4,328,428.5,288.2z M60.7,29.3
		h376.6c4.3,0,7.8,3.5,7.9,7.8v78.5H52.8V37.2C52.8,32.9,56.4,29.4,60.7,29.3z M123.4,468.7H76.4V453h47.1V468.7z M374.5,453h47.1
		v15.7h-47.1V453z M437.3,437.3H60.7c-4.3,0-7.8-3.5-7.9-7.9v-31.4h392.3v31.4C445.1,433.8,441.6,437.3,437.3,437.3z"/>
	<path class="st0" d="M394.1,100c15.2,0,27.5-12.3,27.5-27.5c0-15.2-12.3-27.5-27.5-27.5c-15.2,0-27.5,12.3-27.5,27.5
		C366.6,87.7,378.9,100,394.1,100L394.1,100z M394.1,60.7c6.5,0,11.8,5.3,11.8,11.8c0,6.5-5.3,11.8-11.8,11.8
		c-6.5,0-11.8-5.3-11.8-11.8v0C382.4,66,387.6,60.7,394.1,60.7"/>
	<path class="st1" d="M394.1,100c15.2,0,27.5-12.3,27.5-27.5c0-15.2-12.3-27.5-27.5-27.5c-15.2,0-27.5,12.3-27.5,27.5
		C366.6,87.7,378.9,100,394.1,100L394.1,100 M394.1,60.7c6.5,0,11.8,5.3,11.8,11.8c0,6.5-5.3,11.8-11.8,11.8
		c-6.5,0-11.8-5.3-11.8-11.8v0C382.4,66,387.6,60.7,394.1,60.7z"/>
	<path class="st0" d="M394.1,100c15.2,0,27.5-12.3,27.5-27.5c0-15.2-12.3-27.5-27.5-27.5c-15.2,0-27.5,12.3-27.5,27.5
		C366.7,87.7,378.9,100,394.1,100L394.1,100z M394.1,60.7c6.5,0,11.8,5.3,11.8,11.8c0,6.5-5.3,11.8-11.8,11.8
		c-6.5,0-11.8-5.3-11.8-11.8v0C382.4,66,387.6,60.7,394.1,60.7"/>
	<path class="st2" d="M394.1,100c15.2,0,27.5-12.3,27.5-27.5c0-15.2-12.3-27.5-27.5-27.5c-15.2,0-27.5,12.3-27.5,27.5
		C366.7,87.7,378.9,100,394.1,100L394.1,100z M394.1,60.7c6.5,0,11.8,5.3,11.8,11.8c0,6.5-5.3,11.8-11.8,11.8
		c-6.5,0-11.8-5.3-11.8-11.8v0C382.4,66,387.6,60.7,394.1,60.7z"/>
	<path class="st0" d="M76.4,99.9c4.3,0,7.9-3.5,7.9-7.9V52.9c0-4.3-3.5-7.9-7.9-7.9s-7.9,3.5-7.9,7.9v39.2
		C68.5,96.4,72,99.9,76.4,99.9"/>
	<path class="st1" d="M76.4,99.9c4.3,0,7.9-3.5,7.9-7.9V52.9c0-4.3-3.5-7.9-7.9-7.9s-7.9,3.5-7.9,7.9v39.2
		C68.5,96.4,72,99.9,76.4,99.9"/>
	<path class="st0" d="M76.4,99.9c4.3,0,7.9-3.5,7.9-7.9V52.9c0-4.3-3.5-7.9-7.9-7.9s-7.9,3.5-7.9,7.9v39.2
		C68.5,96.4,72,99.9,76.4,99.9"/>
	<path class="st2" d="M76.4,99.9c4.3,0,7.9-3.5,7.9-7.9V52.9c0-4.3-3.5-7.9-7.9-7.9s-7.9,3.5-7.9,7.9v39.2
		C68.5,96.4,72,99.9,76.4,99.9z"/>
	<path class="st0" d="M107.8,99.9c4.3,0,7.9-3.5,7.9-7.9V52.9c0-4.3-3.5-7.9-7.9-7.9c-4.3,0-7.9,3.5-7.9,7.9v39.2
		C99.9,96.4,103.4,99.9,107.8,99.9"/>
	<path class="st1" d="M107.8,99.9c4.3,0,7.9-3.5,7.9-7.9V52.9c0-4.3-3.5-7.9-7.9-7.9c-4.3,0-7.9,3.5-7.9,7.9v39.2
		C99.9,96.4,103.4,99.9,107.8,99.9"/>
	<path class="st0" d="M107.8,99.9c4.3,0,7.9-3.5,7.9-7.9V52.9c0-4.3-3.5-7.9-7.9-7.9c-4.3,0-7.9,3.5-7.9,7.9v39.2
		C99.9,96.4,103.4,99.9,107.8,99.9"/>
	<path class="st2" d="M107.8,99.9c4.3,0,7.9-3.5,7.9-7.9V52.9c0-4.3-3.5-7.9-7.9-7.9c-4.3,0-7.9,3.5-7.9,7.9v39.2
		C99.9,96.4,103.4,99.9,107.8,99.9z"/>
	<path class="st0" d="M139.1,99.9c4.3,0,7.9-3.5,7.9-7.9V52.9c0-4.3-3.5-7.9-7.9-7.9s-7.9,3.5-7.9,7.9v39.2
		C131.3,96.4,134.8,99.9,139.1,99.9"/>
	<path class="st1" d="M139.1,99.9c4.3,0,7.9-3.5,7.9-7.9V52.9c0-4.3-3.5-7.9-7.9-7.9s-7.9,3.5-7.9,7.9v39.2
		C131.3,96.4,134.8,99.9,139.1,99.9"/>
	<path class="st0" d="M139.1,99.9c4.3,0,7.9-3.5,7.9-7.9V52.9c0-4.3-3.5-7.9-7.9-7.9s-7.9,3.5-7.9,7.9v39.2
		C131.3,96.4,134.8,99.9,139.1,99.9"/>
	<path class="st2" d="M139.1,99.9c4.3,0,7.9-3.5,7.9-7.9V52.9c0-4.3-3.5-7.9-7.9-7.9s-7.9,3.5-7.9,7.9v39.2
		C131.3,96.4,134.8,99.9,139.1,99.9z"/>
	<path class="st0" d="M170.5,99.9c4.3,0,7.9-3.5,7.9-7.9V52.9c0-4.3-3.5-7.9-7.9-7.9s-7.9,3.5-7.9,7.9v39.2
		C162.7,96.4,166.2,99.9,170.5,99.9"/>
	<path class="st1" d="M170.5,99.9c4.3,0,7.9-3.5,7.9-7.9V52.9c0-4.3-3.5-7.9-7.9-7.9s-7.9,3.5-7.9,7.9v39.2
		C162.7,96.4,166.2,99.9,170.5,99.9"/>
	<path class="st0" d="M170.5,99.9c4.3,0,7.9-3.5,7.9-7.9V52.9c0-4.3-3.5-7.9-7.9-7.9s-7.9,3.5-7.9,7.9v39.2
		C162.7,96.4,166.2,99.9,170.5,99.9"/>
	<path class="st2" d="M170.5,99.9c4.3,0,7.9-3.5,7.9-7.9V52.9c0-4.3-3.5-7.9-7.9-7.9s-7.9,3.5-7.9,7.9v39.2
		C162.7,96.4,166.2,99.9,170.5,99.9z"/>
</g>
</svg>
