<?xml version="1.0" encoding="utf-8"?>
<!-- Generator: Adobe Illustrator 27.9.0, SVG Export Plug-In . SVG Version: 6.00 Build 0)  -->
<svg version="1.1" id="Layer_1" xmlns="http://www.w3.org/2000/svg" xmlns:xlink="http://www.w3.org/1999/xlink" x="0px" y="0px"
	 viewBox="0 0 500 500" style="enable-background:new 0 0 500 500;" xml:space="preserve">
<style type="text/css">
	.st0{fill:#FFFFFF;}
</style>
<g>
	<path class="st0" d="M335.3,407c-0.5,0-0.9,0-1.4-0.1c-0.4-0.1-0.9-0.3-1.3-0.4c-0.4-0.2-0.8-0.4-1.2-0.7c-0.4-0.3-0.7-0.6-1.1-0.9
		c-1.4-1.4-2.1-3.2-2.1-5.2c0-0.5,0.1-0.9,0.1-1.4c0.1-0.5,0.2-0.9,0.4-1.4c0.2-0.4,0.4-0.8,0.7-1.2c0.2-0.4,0.5-0.8,0.9-1.1
		c0.3-0.4,0.7-0.6,1.1-0.9c0.4-0.3,0.8-0.5,1.2-0.7c0.4-0.2,0.9-0.3,1.3-0.4c0.9-0.2,1.9-0.2,2.8,0c0.5,0.1,0.9,0.3,1.4,0.4
		s0.8,0.4,1.2,0.7c0.4,0.3,0.7,0.5,1.1,0.9c1.3,1.4,2.1,3.2,2.1,5.1c0,1.9-0.7,3.8-2.1,5.2c-0.3,0.3-0.7,0.6-1.1,0.9
		c-0.4,0.3-0.8,0.5-1.2,0.7c-0.4,0.2-0.9,0.3-1.4,0.4C336.2,407,335.8,407,335.3,407"/>
	<path class="st0" d="M350.9,399.7c0.1-4,3.3-7.1,7.3-7c4,0.1,7.1,3.3,7,7.3c-0.1,3.9-3.2,7-7.2,7.1
		C354.1,407,350.9,403.7,350.9,399.7"/>
	<path class="st0" d="M380.8,407c-0.5,0-0.9,0-1.4-0.1c-0.5-0.1-0.9-0.3-1.3-0.4c-0.4-0.2-0.9-0.4-1.3-0.7c-0.4-0.3-0.7-0.6-1.1-0.9
		c-1.3-1.4-2.1-3.2-2.1-5.2c0-0.5,0.1-0.9,0.1-1.4c0.1-0.5,0.2-0.9,0.4-1.4c0.2-0.4,0.4-0.8,0.6-1.2c0.3-0.4,0.5-0.8,0.9-1.1
		c0.3-0.3,0.7-0.7,1.1-0.9c0.4-0.3,0.8-0.5,1.3-0.7c0.4-0.2,0.9-0.3,1.3-0.4c2.3-0.4,4.8,0.3,6.4,2c0.3,0.3,0.6,0.7,0.9,1.1
		c0.3,0.4,0.5,0.8,0.7,1.3c0.2,0.4,0.3,0.9,0.4,1.4c0.1,0.5,0.1,0.9,0.1,1.4c0,0.5-0.1,0.9-0.1,1.4c-0.1,0.5-0.2,0.9-0.4,1.4
		s-0.4,0.9-0.7,1.3c-0.2,0.4-0.5,0.8-0.9,1.1C384.5,406.2,382.6,407,380.8,407"/>
	<path class="st0" d="M404.8,463.8H93.2c-2.9,0-5.1-2.4-5.1-5.2V20.1c0-2.8,2.2-5.2,5.1-5.2h311.7c2.8,0,5.1,2.4,5.1,5.2v438.4
		C410,461.4,407.7,463.8,404.8,463.8 M98.3,453.4h301.5v-428H98.3V453.4z"/>
	<path class="st0" d="M404.8,105.6H93.2c-2.9,0-5.2-2.3-5.2-5.2c0-2.9,2.3-5.2,5.2-5.2h311.7c2.9,0,5.2,2.3,5.2,5.2
		C410,103.3,407.7,105.6,404.8,105.6"/>
	<path class="st0" d="M380.8,359.4H281c-2.8,0-5.1-2.4-5.1-5.2V123.9c0-2.8,2.2-5.2,5.1-5.2h99.8c2.8,0,5.1,2.4,5.1,5.2v230.4
		C385.9,357.1,383.6,359.4,380.8,359.4 M286.1,349h89.5V129.1h-89.5V349z"/>
	<path class="st0" d="M217,359.4h-99.7c-2.8,0-5.1-2.4-5.1-5.2V123.9c0-2.8,2.3-5.2,5.1-5.2H217c2.8,0,5.1,2.4,5.1,5.2v230.4
		C222.1,357.1,219.9,359.4,217,359.4 M122.3,349h89.5V129.1h-89.5V349z"/>
	<path class="st0" d="M260.4,284.3c-2.8,0-5.1-2.4-5.1-5.2v-54.7c0-2.8,2.3-5.1,5.1-5.1c2.8,0,5.1,2.3,5.1,5.1v0v54.7
		C265.5,282,263.2,284.3,260.4,284.3z"/>
	<path class="st0" d="M237.6,284.3c-2.8,0-5.1-2.4-5.1-5.2v-54.7c0-2.8,2.3-5.1,5.1-5.1c2.8,0,5.1,2.3,5.1,5.1v0v54.7
		C242.8,282,240.5,284.3,237.6,284.3z"/>
	<path class="st0" d="M249,206.5c-2.8,0-5.1-2.4-5.1-5.2V100.4c0-2.8,2.3-5.1,5.1-5.1c2.8,0,5.1,2.3,5.1,5.1v0v100.9
		C254.1,204.2,251.8,206.5,249,206.5"/>
	<path class="st0" d="M249,386.3c-2.8,0-5.1-2.4-5.1-5.2v-86.2c0-2.8,2.3-5.1,5.1-5.1c2.8,0,5.1,2.3,5.1,5.1v0v86.2
		C254.1,384,251.8,386.3,249,386.3"/>
	<path class="st0" d="M404.8,386.3H93.2c-2.9,0-5.2-2.3-5.2-5.2c0-2.9,2.3-5.2,5.2-5.2h311.7c2.9,0,5.2,2.3,5.2,5.2
		C410,384,407.7,386.3,404.8,386.3"/>
	<path class="st0" d="M380.8,424.2H117.2c-2.9,0-5.2-2.3-5.2-5.2c0-2.9,2.3-5.2,5.2-5.2h263.5c2.9,0,5.2,2.3,5.2,5.2
		C386,421.9,383.6,424.2,380.8,424.2"/>
	<path class="st0" d="M380.8,443.1H117.2c-2.9,0-5.2-2.3-5.2-5.2c0-2.9,2.3-5.2,5.2-5.2h263.5c2.9,0,5.2,2.3,5.2,5.2
		C386,440.8,383.6,443.1,380.8,443.1"/>
	<path class="st0" d="M380.8,483.1h-23.4c-2.8,0-5.1-2.4-5.1-5.2v-19.3c0-2.8,2.3-5.1,5.1-5.1s5.1,2.3,5.1,5.1v0v14.1h13.2v-14.1
		c0-2.8,2.3-5.1,5.1-5.1c2.8,0,5.1,2.3,5.1,5.1v0v19.3C385.9,480.7,383.6,483,380.8,483.1"/>
	<path class="st0" d="M140.7,483.1h-23.4c-2.8,0-5.1-2.4-5.1-5.2v-19.3c0-2.8,2.3-5.1,5.1-5.1c2.8,0,5.1,2.3,5.1,5.1v0v14.1h13.2
		v-14.1c0-2.8,2.3-5.1,5.1-5.1c2.8,0,5.1,2.3,5.1,5.1v0v19.3C145.8,480.7,143.5,483,140.7,483.1"/>
	<path class="st0" d="M357.4,176h-55.7c-2.9,0-5.2-2.3-5.2-5.2c0-2.9,2.3-5.2,5.2-5.2h55.7c2.9,0,5.2,2.3,5.2,5.2
		C362.6,173.7,360.2,176,357.4,176"/>
	<path class="st0" d="M196.3,176h-55.7c-2.9,0-5.2-2.3-5.2-5.2c0-2.9,2.3-5.2,5.2-5.2h55.7c2.9,0,5.2,2.3,5.2,5.2
		C201.6,173.7,199.2,176,196.3,176"/>
	<path class="st0" d="M357.4,225.5h-55.7c-2.9,0-5.2-2.3-5.2-5.2c0-2.9,2.3-5.2,5.2-5.2h55.7c2.9,0,5.2,2.3,5.2,5.2
		C362.6,223.1,360.2,225.5,357.4,225.5"/>
	<path class="st0" d="M196.3,225.5h-55.7c-2.9,0-5.2-2.3-5.2-5.2c0-2.9,2.3-5.2,5.2-5.2h55.7c2.9,0,5.2,2.3,5.2,5.2
		C201.6,223.1,199.2,225.5,196.3,225.5"/>
	<path class="st0" d="M357.4,274.9h-55.7c-2.9,0-5.2-2.3-5.2-5.2c0-2.9,2.3-5.2,5.2-5.2h55.7c2.9,0,5.2,2.3,5.2,5.2
		C362.6,272.5,360.2,274.9,357.4,274.9"/>
	<path class="st0" d="M196.3,274.9h-55.7c-2.9,0-5.2-2.3-5.2-5.2c0-2.9,2.3-5.2,5.2-5.2h55.7c2.9,0,5.2,2.3,5.2,5.2
		C201.6,272.5,199.2,274.9,196.3,274.9"/>
	<path class="st0" d="M357.4,324.3h-55.7c-2.9,0-5.2-2.3-5.2-5.2c0-2.9,2.3-5.2,5.2-5.2h55.7c2.9,0,5.2,2.3,5.2,5.2
		C362.6,322,360.2,324.3,357.4,324.3"/>
	<path class="st0" d="M196.3,324.3h-55.7c-2.9,0-5.2-2.3-5.2-5.2c0-2.9,2.3-5.2,5.2-5.2h55.7c2.9,0,5.2,2.3,5.2,5.2
		C201.6,322,199.2,324.3,196.3,324.3"/>
</g>
</svg>
