<?xml version="1.0" encoding="utf-8"?>
<!-- Generator: Adobe Illustrator 27.9.0, SVG Export Plug-In . SVG Version: 6.00 Build 0)  -->
<svg version="1.1" id="Layer_1" xmlns="http://www.w3.org/2000/svg" xmlns:xlink="http://www.w3.org/1999/xlink" x="0px" y="0px"
	 viewBox="0 0 500 500" style="enable-background:new 0 0 500 500;" xml:space="preserve">
<style type="text/css">
	.st0{fill:#FFFFFF;}
	.st1{fill:none;stroke:#1F2E35;stroke-width:0.173;}
	.st2{fill:none;stroke:#1F2E35;stroke-width:0.173;stroke-miterlimit:10;}
</style>
<g>
	<path class="st0" d="M460.6,11.5H37.5c-4.1,0-7.4,3.3-7.4,7.4v0v423c0,4.1,3.3,7.4,7.4,7.4h0h14.8v29.7c0,4.1,3.3,7.4,7.4,7.4
		h378.5c4.1,0,7.4-3.3,7.4-7.4v0v-29.7h14.8c4.1,0,7.4-3.3,7.4-7.4v0v-423C467.9,14.8,464.6,11.5,460.6,11.5L460.6,11.5
		 M341.9,211.9h22.5c4,0,7.2,3.2,7.2,7.2v0.1l0,0.1c0,12.3,10,22.2,22.3,22.3h14.9c4.1,0,7.4,3.3,7.4,7.4c0,4.1-3.3,7.4-7.4,7.4
		h-66.8c-12.3,0-22.3-10-22.3-22.3C319.6,221.9,329.6,211.9,341.9,211.9 M341.7,278.7L341.7,278.7c-8.9-0.1-16.9-5.5-20.3-13.7
		c6.1,4.1,13.2,6.3,20.5,6.3h66.8h0.1c2.5,0,5-0.5,7.4-1.4v1.4c0,4-3.3,7.3-7.3,7.4H341.7z M431,271.3V249c0-12.3-10-22.3-22.3-22.3
		h-14.9c-4.1,0-7.4-3.3-7.4-7.4l0-0.1l0-0.1c0-12.2-9.9-22-22-22h-22.5c-20.5,0-37.1,16.6-37.1,37.1v22.3c0,8,2.7,15.8,7.6,22.2
		h-45.5c20.5-20,20.9-52.9,0.9-73.5c-20-20.5-52.9-21-73.5-0.9s-20.9,52.9-0.9,73.5c0.3,0.3,0.6,0.6,0.9,0.9h-23.6
		c1.1-5.2-0.2-10.6-3.4-14.8c5.1-6.5,5.1-15.7,0-22.3c6.2-8.1,4.7-19.7-3.4-25.9c-3.2-2.5-7.2-3.8-11.3-3.8H85.7
		c-10.2,0-18.5,8.3-18.6,18.6c0,4,1.3,7.9,3.8,11.1c-5.1,6.6-5.1,15.7,0,22.3c-3.2,4.2-4.5,9.6-3.4,14.8H44.9v-96.5h51.7
		c0.1,0,0.2,0,0.3,0c0.2,0,0.4,0,0.6,0h125.2c0.1,0,0.2,0,0.3,0l0.1,0h29.4l0.2,0c0.1,0,0.2,0,0.3,0h51.4c0.1,0,0.2,0,0.3,0l0.2,0
		h29.4l0.2,0c0.1,0,0.2,0,0.3,0H386c0.1,0,0.2,0,0.3,0l0.2,0h29.4l0.2,0c0.1,0,0.2,0,0.3,0h36.8v96.5h-23.5
		C430.4,276.3,430.9,273.8,431,271.3 M193.4,241.6c0-20.5,16.6-37.1,37.1-37.1c20.5,0,37.1,16.6,37.1,37.1s-16.6,37.1-37.1,37.1
		C210.1,278.7,193.4,262.1,193.4,241.6 M85.7,278.7c-2,0-3.7-1.7-3.7-3.7c0-2.1,1.7-3.7,3.7-3.7h0h66.8c2.1,0,3.7,1.7,3.7,3.7
		c0,2-1.7,3.7-3.7,3.7h0H85.7z M82,230.5c0-2,1.7-3.7,3.7-3.7h66.8c2.1,0,3.7,1.7,3.7,3.7c0,2-1.7,3.7-3.7,3.7h0H85.7
		C83.7,234.2,82,232.5,82,230.5 M85.7,256.4c-2,0-3.7-1.7-3.7-3.7c0-2.1,1.7-3.7,3.7-3.7h0h66.8c2.1,0,3.7,1.7,3.7,3.7
		c0,2-1.7,3.7-3.7,3.7h0H85.7z M386.1,167.3c-4.1,0-7.4-3.4-7.3-7.5c0.1-4.1,3.4-7.4,7.5-7.3H416c4.1,0,7.4,3.2,7.5,7.3
		c0.1,4.1-3.2,7.4-7.3,7.5H386.1z M304.5,167.3c-4.1,0-7.4-3.4-7.3-7.5c0-4.1,3.4-7.4,7.5-7.3h29.7c4.1,0,7.4,3.2,7.5,7.3
		c0.1,4.1-3.2,7.4-7.3,7.5H304.5z M222.8,167.3c-4.1,0-7.4-3.4-7.3-7.5c0.1-4.1,3.4-7.4,7.5-7.3h29.7c4.1,0,7.5,3.2,7.5,7.3
		c0,4.1-3.2,7.4-7.3,7.5H222.8z M260.2,122.9h29.7c4.1-0.2,7.6,2.9,7.8,7c0.2,4.1-2.9,7.6-7,7.8c-0.3,0-0.5,0-0.8,0h-29.7
		c-4.1-0.2-7.2-3.7-7-7.8C253.4,126.1,256.4,123.1,260.2,122.9 M304.7,93.2h29.7c4.1,0.2,7.3,3.6,7.1,7.7c-0.1,3.9-3.2,7-7.1,7.1
		h-29.7c-4.1,0.2-7.5-3-7.7-7.1c-0.2-4.1,3-7.5,7.1-7.7C304.4,93.2,304.6,93.2,304.7,93.2 M379,122.9c4.1,0.2,7.3,3.7,7,7.8
		c-0.2,3.8-3.2,6.8-7,7h-29.7c-4.1,0.2-7.6-2.9-7.8-7c-0.2-4.1,2.9-7.6,7-7.8c0.3,0,0.5,0,0.8,0H379z M310.8,137.7
		c0.9-2.4,1.3-4.9,1.4-7.4c0-2.5-0.5-5.1-1.4-7.4h17.6c-0.9,2.4-1.3,4.9-1.4,7.4c0,2.5,0.5,5,1.4,7.4H310.8z M273.6,152.5h10.2
		c-0.9,2.4-1.3,4.9-1.4,7.4c0,2.5,0.5,5,1.4,7.4h-10.1C275.4,162.6,275.4,157.3,273.6,152.5L273.6,152.5z M355.2,152.5h10.2
		c-1.8,4.8-1.8,10.1,0,14.8h-10.1c0.8-2.4,1.3-4.9,1.3-7.4C356.6,157.4,356.1,154.9,355.2,152.5 M416,137.7h-16.1
		c0.9-2.4,1.3-4.9,1.4-7.4c0-12.3-10-22.3-22.3-22.3h-23.6c0.9-2.4,1.3-4.9,1.4-7.4c0-12.3-10-22.3-22.3-22.3h-29.7
		c-12.3,0-22.3,10-22.3,22.3c0,2.5,0.5,5,1.4,7.4h-23.6c-12.3,0-22.3,10-22.3,22.3c0,2.5,0.5,5.1,1.4,7.4H223
		c-12.3,0-22.3,10-22.3,22.3c0,2.5,0.5,5,1.3,7.4h-70.6c4.2-4.1,7.2-9.2,8.9-14.8H171c0.2,4.1,3.7,7.2,7.8,7c3.8-0.2,6.8-3.2,7-7
		v-14.8c0.2-4.1-2.9-7.6-7-7.8c-4.1-0.2-7.6,2.9-7.8,7c0,0.3,0,0.5,0,0.8h-30.7c-4.8-17.2-25.4-29.7-43.5-29.7
		c-20.4-0.1-37,16.4-37.1,36.8c0,8.2,2.6,16.1,7.6,22.6H44.9v-141h408.2v141h-16.2c4.2-11.4-1.6-24.1-13-28.3
		C421.3,138.1,418.7,137.7,416,137.7 M96.6,167.3c-12.3-0.4-21.9-10.8-21.4-23c0.4-11.8,10-21.2,21.7-21.4c13,0,29.7,10.8,29.7,22.3
		c0,11.4-16.5,22.1-29.4,22.2L96.6,167.3z M430.8,471.7H67.2v-22.3h363.7L430.8,471.7z M453.1,434.6H44.9v-141h296.7
		c0.1,0,0.2,0,0.3,0h0.1h66.7h0.2h44.3V434.6z"/>
	<path class="st1" d="M460.6,11.5H37.5c-4.1,0-7.4,3.3-7.4,7.4v0v423c0,4.1,3.3,7.4,7.4,7.4h0h14.8v29.7c0,4.1,3.3,7.4,7.4,7.4
		h378.5c4.1,0,7.4-3.3,7.4-7.4v0v-29.7h14.8c4.1,0,7.4-3.3,7.4-7.4v0v-423C467.9,14.8,464.6,11.5,460.6,11.5L460.6,11.5
		 M341.9,211.9h22.5c4,0,7.2,3.2,7.2,7.2v0.1l0,0.1c0,12.3,10,22.2,22.3,22.3h14.9c4.1,0,7.4,3.3,7.4,7.4c0,4.1-3.3,7.4-7.4,7.4
		h-66.8c-12.3,0-22.3-10-22.3-22.3C319.6,221.9,329.6,211.9,341.9,211.9 M341.7,278.7L341.7,278.7c-8.9-0.1-16.9-5.5-20.3-13.7
		c6.1,4.1,13.2,6.3,20.5,6.3h66.8h0.1c2.5,0,5-0.5,7.4-1.4v1.4c0,4-3.3,7.3-7.3,7.4H341.7z M431,271.3V249c0-12.3-10-22.3-22.3-22.3
		h-14.9c-4.1,0-7.4-3.3-7.4-7.4l0-0.1l0-0.1c0-12.2-9.9-22-22-22h-22.5c-20.5,0-37.1,16.6-37.1,37.1v22.3c0,8,2.7,15.8,7.6,22.2
		h-45.5c20.5-20,20.9-52.9,0.9-73.5c-20-20.5-52.9-21-73.5-0.9s-20.9,52.9-0.9,73.5c0.3,0.3,0.6,0.6,0.9,0.9h-23.6
		c1.1-5.2-0.2-10.6-3.4-14.8c5.1-6.5,5.1-15.7,0-22.3c6.2-8.1,4.7-19.7-3.4-25.9c-3.2-2.5-7.2-3.8-11.3-3.8H85.7
		c-10.2,0-18.5,8.3-18.6,18.6c0,4,1.3,7.9,3.8,11.1c-5.1,6.6-5.1,15.7,0,22.3c-3.2,4.2-4.5,9.6-3.4,14.8H44.9v-96.5h51.7
		c0.1,0,0.2,0,0.3,0c0.2,0,0.4,0,0.6,0h125.2c0.1,0,0.2,0,0.3,0l0.1,0h29.4l0.2,0c0.1,0,0.2,0,0.3,0h51.4c0.1,0,0.2,0,0.3,0l0.2,0
		h29.4l0.2,0c0.1,0,0.2,0,0.3,0H386c0.1,0,0.2,0,0.3,0l0.2,0h29.4l0.2,0c0.1,0,0.2,0,0.3,0h36.8v96.5h-23.5
		C430.4,276.3,430.9,273.8,431,271.3 M193.4,241.6c0-20.5,16.6-37.1,37.1-37.1c20.5,0,37.1,16.6,37.1,37.1s-16.6,37.1-37.1,37.1
		C210.1,278.7,193.4,262.1,193.4,241.6 M85.7,278.7c-2,0-3.7-1.7-3.7-3.7c0-2.1,1.7-3.7,3.7-3.7h0h66.8c2.1,0,3.7,1.7,3.7,3.7
		c0,2-1.7,3.7-3.7,3.7h0H85.7z M82,230.5c0-2,1.7-3.7,3.7-3.7h66.8c2.1,0,3.7,1.7,3.7,3.7c0,2-1.7,3.7-3.7,3.7h0H85.7
		C83.7,234.2,82,232.5,82,230.5 M85.7,256.4c-2,0-3.7-1.7-3.7-3.7c0-2.1,1.7-3.7,3.7-3.7h0h66.8c2.1,0,3.7,1.7,3.7,3.7
		c0,2-1.7,3.7-3.7,3.7h0H85.7z M386.1,167.3c-4.1,0-7.4-3.4-7.3-7.5c0.1-4.1,3.4-7.4,7.5-7.3H416c4.1,0,7.4,3.2,7.5,7.3
		c0.1,4.1-3.2,7.4-7.3,7.5H386.1z M304.5,167.3c-4.1,0-7.4-3.4-7.3-7.5c0-4.1,3.4-7.4,7.5-7.3h29.7c4.1,0,7.4,3.2,7.5,7.3
		c0.1,4.1-3.2,7.4-7.3,7.5H304.5z M222.8,167.3c-4.1,0-7.4-3.4-7.3-7.5c0.1-4.1,3.4-7.4,7.5-7.3h29.7c4.1,0,7.5,3.2,7.5,7.3
		c0,4.1-3.2,7.4-7.3,7.5H222.8z M260.2,122.9h29.7c4.1-0.2,7.6,2.9,7.8,7c0.2,4.1-2.9,7.6-7,7.8c-0.3,0-0.5,0-0.8,0h-29.7
		c-4.1-0.2-7.2-3.7-7-7.8C253.4,126.1,256.4,123.1,260.2,122.9 M304.7,93.2h29.7c4.1,0.2,7.3,3.6,7.1,7.7c-0.1,3.9-3.2,7-7.1,7.1
		h-29.7c-4.1,0.2-7.5-3-7.7-7.1c-0.2-4.1,3-7.5,7.1-7.7C304.4,93.2,304.6,93.2,304.7,93.2 M379,122.9c4.1,0.2,7.3,3.7,7,7.8
		c-0.2,3.8-3.2,6.8-7,7h-29.7c-4.1,0.2-7.6-2.9-7.8-7c-0.2-4.1,2.9-7.6,7-7.8c0.3,0,0.5,0,0.8,0H379z M310.8,137.7
		c0.9-2.4,1.3-4.9,1.4-7.4c0-2.5-0.5-5.1-1.4-7.4h17.6c-0.9,2.4-1.3,4.9-1.4,7.4c0,2.5,0.5,5,1.4,7.4H310.8z M273.6,152.5h10.2
		c-0.9,2.4-1.3,4.9-1.4,7.4c0,2.5,0.5,5,1.4,7.4h-10.1C275.4,162.6,275.4,157.3,273.6,152.5L273.6,152.5z M355.2,152.5h10.2
		c-1.8,4.8-1.8,10.1,0,14.8h-10.1c0.8-2.4,1.3-4.9,1.3-7.4C356.6,157.4,356.1,154.9,355.2,152.5 M416,137.7h-16.1
		c0.9-2.4,1.3-4.9,1.4-7.4c0-12.3-10-22.3-22.3-22.3h-23.6c0.9-2.4,1.3-4.9,1.4-7.4c0-12.3-10-22.3-22.3-22.3h-29.7
		c-12.3,0-22.3,10-22.3,22.3c0,2.5,0.5,5,1.4,7.4h-23.6c-12.3,0-22.3,10-22.3,22.3c0,2.5,0.5,5.1,1.4,7.4H223
		c-12.3,0-22.3,10-22.3,22.3c0,2.5,0.5,5,1.3,7.4h-70.6c4.2-4.1,7.2-9.2,8.9-14.8H171c0.2,4.1,3.7,7.2,7.8,7c3.8-0.2,6.8-3.2,7-7
		v-14.8c0.2-4.1-2.9-7.6-7-7.8c-4.1-0.2-7.6,2.9-7.8,7c0,0.3,0,0.5,0,0.8h-30.7c-4.8-17.2-25.4-29.7-43.5-29.7
		c-20.4-0.1-37,16.4-37.1,36.8c0,8.2,2.6,16.1,7.6,22.6H44.9v-141h408.2v141h-16.2c4.2-11.4-1.6-24.1-13-28.3
		C421.3,138.1,418.7,137.7,416,137.7 M96.6,167.3c-12.3-0.4-21.9-10.8-21.4-23c0.4-11.8,10-21.2,21.7-21.4c13,0,29.7,10.8,29.7,22.3
		c0,11.4-16.5,22.1-29.4,22.2L96.6,167.3z M430.8,471.7H67.2v-22.3h363.7L430.8,471.7z M453.1,434.6H44.9v-141h296.7
		c0.1,0,0.2,0,0.3,0h0.1h66.7h0.2h44.3V434.6z"/>
	<path class="st0" d="M460.6,11.5H37.5c-4.1,0-7.4,3.3-7.4,7.4v0v423c0,4.1,3.3,7.4,7.4,7.4h0h14.8v29.7c0,4.1,3.3,7.4,7.4,7.4
		h378.5c4.1,0,7.4-3.3,7.4-7.4v0v-29.7h14.8c4.1,0,7.4-3.3,7.4-7.4v0v-423C467.9,14.8,464.6,11.5,460.6,11.5L460.6,11.5z
		 M341.9,211.9h22.5c4,0,7.2,3.2,7.2,7.2v0.1l0,0.1c0,12.3,10,22.2,22.3,22.3h14.9c4.1,0,7.4,3.3,7.4,7.4c0,4.1-3.3,7.4-7.4,7.4
		h-66.8c-12.3,0-22.3-10-22.3-22.3C319.6,221.9,329.6,211.9,341.9,211.9L341.9,211.9z M341.7,278.7L341.7,278.7
		c-8.9-0.1-16.9-5.5-20.3-13.7c6.1,4.1,13.2,6.3,20.5,6.3h66.8h0.1c2.5,0,5-0.5,7.4-1.4v1.4c0,4-3.3,7.3-7.3,7.4H341.7z M431,271.3
		V249c0-12.3-10-22.3-22.3-22.3h-14.9c-4.1,0-7.4-3.3-7.4-7.4l0-0.1l0-0.1c0-12.2-9.9-22-22-22h-22.5c-20.5,0-37.1,16.6-37.1,37.1
		v22.3c0,8,2.7,15.8,7.6,22.2h-45.5c20.5-20,20.9-52.9,0.9-73.5c-20-20.5-52.9-21-73.5-0.9s-20.9,52.9-0.9,73.5
		c0.3,0.3,0.6,0.6,0.9,0.9h-23.6c1.1-5.2-0.2-10.6-3.4-14.8c5.1-6.5,5.1-15.7,0-22.3c6.2-8.1,4.7-19.7-3.4-25.9
		c-3.2-2.5-7.2-3.8-11.3-3.8H85.7c-10.2,0-18.5,8.3-18.6,18.6c0,4,1.3,7.9,3.8,11.1c-5.1,6.6-5.1,15.7,0,22.3
		c-3.2,4.2-4.5,9.6-3.4,14.8H44.9v-96.5h51.7c0.1,0,0.2,0,0.3,0c0.2,0,0.4,0,0.6,0h125.2c0.1,0,0.2,0,0.3,0l0.1,0h29.4l0.2,0
		c0.1,0,0.2,0,0.3,0h51.4c0.1,0,0.2,0,0.3,0l0.2,0h29.4l0.2,0c0.1,0,0.2,0,0.3,0H386c0.1,0,0.2,0,0.3,0l0.2,0h29.4l0.2,0
		c0.1,0,0.2,0,0.3,0h36.8v96.5h-23.5C430.4,276.3,430.9,273.8,431,271.3z M193.4,241.6c0-20.5,16.6-37.1,37.1-37.1
		c20.5,0,37.1,16.6,37.1,37.1s-16.6,37.1-37.1,37.1C210.1,278.7,193.4,262.1,193.4,241.6z M85.7,278.7c-2,0-3.7-1.7-3.7-3.7
		c0-2.1,1.7-3.7,3.7-3.7h0h66.8c2.1,0,3.7,1.7,3.7,3.7c0,2-1.7,3.7-3.7,3.7h0H85.7z M82,230.5c0-2,1.7-3.7,3.7-3.7h66.8
		c2.1,0,3.7,1.7,3.7,3.7c0,2-1.7,3.7-3.7,3.7h0H85.7C83.7,234.2,82,232.5,82,230.5L82,230.5z M85.7,256.4c-2,0-3.7-1.7-3.7-3.7
		c0-2.1,1.7-3.7,3.7-3.7h0h66.8c2.1,0,3.7,1.7,3.7,3.7c0,2-1.7,3.7-3.7,3.7h0H85.7z M386.1,167.3c-4.1,0-7.4-3.4-7.3-7.5
		c0.1-4.1,3.4-7.4,7.5-7.3H416c4.1-0.1,7.4,3.2,7.5,7.3c0.1,4.1-3.2,7.4-7.3,7.5H386.1z M304.5,167.3c-4.1,0-7.4-3.4-7.3-7.5
		c0-4.1,3.4-7.4,7.5-7.3h29.7c4.1-0.1,7.4,3.2,7.5,7.3c0.1,4.1-3.2,7.4-7.3,7.5H304.5z M222.8,167.3c-4.1,0-7.4-3.4-7.3-7.5
		c0.1-4.1,3.4-7.4,7.5-7.3h29.7c4.1-0.1,7.4,3.2,7.5,7.3c0,4.1-3.2,7.4-7.3,7.5H222.8z M260.2,122.9h29.7c4.1-0.2,7.6,2.9,7.8,7
		c0.2,4.1-2.9,7.6-7,7.8c-0.3,0-0.5,0-0.8,0h-29.7c-4.1-0.2-7.2-3.7-7-7.8C253.4,126.1,256.4,123.1,260.2,122.9 M304.7,93.2h29.7
		c4.1,0.2,7.3,3.6,7.1,7.7c-0.1,3.9-3.2,7-7.1,7.1h-29.7c-4.1,0.2-7.5-3-7.7-7.1c-0.2-4.1,3-7.5,7.1-7.7
		C304.4,93.2,304.6,93.2,304.7,93.2 M379,122.9c4.1,0.2,7.2,3.7,7,7.8c-0.2,3.8-3.2,6.8-7,7h-29.7c-4.1,0.2-7.6-2.9-7.8-7
		c-0.2-4.1,2.9-7.6,7-7.8c0.3,0,0.5,0,0.8,0H379z M310.8,137.7c0.9-2.4,1.3-4.9,1.4-7.4c0-2.5-0.5-5-1.4-7.4h17.6
		c-0.9,2.4-1.3,4.9-1.4,7.4c0,2.5,0.5,5.1,1.4,7.4H310.8z M273.6,152.5h10.2c-0.9,2.4-1.3,4.9-1.4,7.4c0,2.5,0.5,5,1.3,7.4h-10.1
		C275.4,162.6,275.4,157.3,273.6,152.5L273.6,152.5z M355.2,152.5h10.2c-1.8,4.8-1.8,10.1,0,14.8h-10.1c0.9-2.4,1.3-4.9,1.3-7.4
		C356.6,157.4,356.1,154.9,355.2,152.5z M416,137.7h-16.1c0.9-2.4,1.3-4.9,1.4-7.4c0-12.3-10-22.3-22.3-22.3h-23.6
		c0.9-2.4,1.3-4.9,1.4-7.4c0-12.3-10-22.3-22.3-22.3h-29.7c-12.3,0-22.3,10-22.3,22.3c0,2.5,0.5,5,1.4,7.4h-23.6
		c-12.3,0-22.3,10-22.3,22.3c0,2.5,0.5,5.1,1.4,7.4H223c-12.3,0-22.3,10-22.3,22.3c0,2.5,0.5,5,1.3,7.4h-70.6
		c4.2-4.1,7.2-9.2,8.9-14.8H171c0.2,4.1,3.7,7.2,7.8,7c3.8-0.2,6.8-3.2,7-7v-14.8c0.2-4.1-2.9-7.6-7-7.8c-4.1-0.2-7.6,2.9-7.8,7
		c0,0.3,0,0.5,0,0.8h-30.7c-4.8-17.2-25.4-29.7-43.5-29.7c-20.4-0.1-37,16.4-37.1,36.8c0,8.2,2.6,16.1,7.6,22.6H44.9v-141h408.2v141
		h-16.2c4.2-11.4-1.6-24.1-13-28.3C421.3,138.1,418.7,137.7,416,137.7L416,137.7z M96.6,167.3c-12.3-0.4-21.9-10.8-21.4-23
		c0.4-11.8,10-21.2,21.7-21.4c13,0,29.7,10.8,29.7,22.3c0,11.4-16.5,22.1-29.4,22.2L96.6,167.3z M430.8,471.7H67.2v-22.3h363.7
		L430.8,471.7z M453.1,434.6H44.9v-141h296.7c0.1,0,0.2,0,0.3,0h0.1h66.7h0.2h44.3V434.6z"/>
	<path class="st2" d="M460.6,11.5H37.5c-4.1,0-7.4,3.3-7.4,7.4v0v423c0,4.1,3.3,7.4,7.4,7.4h0h14.8v29.7c0,4.1,3.3,7.4,7.4,7.4
		h378.5c4.1,0,7.4-3.3,7.4-7.4v0v-29.7h14.8c4.1,0,7.4-3.3,7.4-7.4v0v-423C467.9,14.8,464.6,11.5,460.6,11.5L460.6,11.5z
		 M341.9,211.9h22.5c4,0,7.2,3.2,7.2,7.2v0.1l0,0.1c0,12.3,10,22.2,22.3,22.3h14.9c4.1,0,7.4,3.3,7.4,7.4c0,4.1-3.3,7.4-7.4,7.4
		h-66.8c-12.3,0-22.3-10-22.3-22.3C319.6,221.9,329.6,211.9,341.9,211.9L341.9,211.9z M341.7,278.7L341.7,278.7
		c-8.9-0.1-16.9-5.5-20.3-13.7c6.1,4.1,13.2,6.3,20.5,6.3h66.8h0.1c2.5,0,5-0.5,7.4-1.4v1.4c0,4-3.3,7.3-7.3,7.4H341.7z M431,271.3
		V249c0-12.3-10-22.3-22.3-22.3h-14.9c-4.1,0-7.4-3.3-7.4-7.4l0-0.1l0-0.1c0-12.2-9.9-22-22-22h-22.5c-20.5,0-37.1,16.6-37.1,37.1
		v22.3c0,8,2.7,15.8,7.6,22.2h-45.5c20.5-20,20.9-52.9,0.9-73.5c-20-20.5-52.9-21-73.5-0.9s-20.9,52.9-0.9,73.5
		c0.3,0.3,0.6,0.6,0.9,0.9h-23.6c1.1-5.2-0.2-10.6-3.4-14.8c5.1-6.5,5.1-15.7,0-22.3c6.2-8.1,4.7-19.7-3.4-25.9
		c-3.2-2.5-7.2-3.8-11.3-3.8H85.7c-10.2,0-18.5,8.3-18.6,18.6c0,4,1.3,7.9,3.8,11.1c-5.1,6.6-5.1,15.7,0,22.3
		c-3.2,4.2-4.5,9.6-3.4,14.8H44.9v-96.5h51.7c0.1,0,0.2,0,0.3,0c0.2,0,0.4,0,0.6,0h125.2c0.1,0,0.2,0,0.3,0l0.1,0h29.4l0.2,0
		c0.1,0,0.2,0,0.3,0h51.4c0.1,0,0.2,0,0.3,0l0.2,0h29.4l0.2,0c0.1,0,0.2,0,0.3,0H386c0.1,0,0.2,0,0.3,0l0.2,0h29.4l0.2,0
		c0.1,0,0.2,0,0.3,0h36.8v96.5h-23.5C430.4,276.3,430.9,273.8,431,271.3z M193.4,241.6c0-20.5,16.6-37.1,37.1-37.1
		c20.5,0,37.1,16.6,37.1,37.1s-16.6,37.1-37.1,37.1C210.1,278.7,193.4,262.1,193.4,241.6z M85.7,278.7c-2,0-3.7-1.7-3.7-3.7
		c0-2.1,1.7-3.7,3.7-3.7h0h66.8c2.1,0,3.7,1.7,3.7,3.7c0,2-1.7,3.7-3.7,3.7h0H85.7z M82,230.5c0-2,1.7-3.7,3.7-3.7h66.8
		c2.1,0,3.7,1.7,3.7,3.7c0,2-1.7,3.7-3.7,3.7h0H85.7C83.7,234.2,82,232.5,82,230.5L82,230.5z M85.7,256.4c-2,0-3.7-1.7-3.7-3.7
		c0-2.1,1.7-3.7,3.7-3.7h0h66.8c2.1,0,3.7,1.7,3.7,3.7c0,2-1.7,3.7-3.7,3.7h0H85.7z M386.1,167.3c-4.1,0-7.4-3.4-7.3-7.5
		c0.1-4.1,3.4-7.4,7.5-7.3H416c4.1-0.1,7.4,3.2,7.5,7.3c0.1,4.1-3.2,7.4-7.3,7.5H386.1z M304.5,167.3c-4.1,0-7.4-3.4-7.3-7.5
		c0-4.1,3.4-7.4,7.5-7.3h29.7c4.1-0.1,7.4,3.2,7.5,7.3c0.1,4.1-3.2,7.4-7.3,7.5H304.5z M222.8,167.3c-4.1,0-7.4-3.4-7.3-7.5
		c0.1-4.1,3.4-7.4,7.5-7.3h29.7c4.1-0.1,7.4,3.2,7.5,7.3c0,4.1-3.2,7.4-7.3,7.5H222.8z M260.2,122.9h29.7c4.1-0.2,7.6,2.9,7.8,7
		c0.2,4.1-2.9,7.6-7,7.8c-0.3,0-0.5,0-0.8,0h-29.7c-4.1-0.2-7.2-3.7-7-7.8C253.4,126.1,256.4,123.1,260.2,122.9z M304.7,93.2h29.7
		c4.1,0.2,7.3,3.6,7.1,7.7c-0.1,3.9-3.2,7-7.1,7.1h-29.7c-4.1,0.2-7.5-3-7.7-7.1c-0.2-4.1,3-7.5,7.1-7.7
		C304.4,93.2,304.6,93.2,304.7,93.2z M379,122.9c4.1,0.2,7.2,3.7,7,7.8c-0.2,3.8-3.2,6.8-7,7h-29.7c-4.1,0.2-7.6-2.9-7.8-7
		c-0.2-4.1,2.9-7.6,7-7.8c0.3,0,0.5,0,0.8,0H379z M310.8,137.7c0.9-2.4,1.3-4.9,1.4-7.4c0-2.5-0.5-5-1.4-7.4h17.6
		c-0.9,2.4-1.3,4.9-1.4,7.4c0,2.5,0.5,5.1,1.4,7.4H310.8z M273.6,152.5h10.2c-0.9,2.4-1.3,4.9-1.4,7.4c0,2.5,0.5,5,1.3,7.4h-10.1
		C275.4,162.6,275.4,157.3,273.6,152.5L273.6,152.5z M355.2,152.5h10.2c-1.8,4.8-1.8,10.1,0,14.8h-10.1c0.9-2.4,1.3-4.9,1.3-7.4
		C356.6,157.4,356.1,154.9,355.2,152.5z M416,137.7h-16.1c0.9-2.4,1.3-4.9,1.4-7.4c0-12.3-10-22.3-22.3-22.3h-23.6
		c0.9-2.4,1.3-4.9,1.4-7.4c0-12.3-10-22.3-22.3-22.3h-29.7c-12.3,0-22.3,10-22.3,22.3c0,2.5,0.5,5,1.4,7.4h-23.6
		c-12.3,0-22.3,10-22.3,22.3c0,2.5,0.5,5.1,1.4,7.4H223c-12.3,0-22.3,10-22.3,22.3c0,2.5,0.5,5,1.3,7.4h-70.6
		c4.2-4.1,7.2-9.2,8.9-14.8H171c0.2,4.1,3.7,7.2,7.8,7c3.8-0.2,6.8-3.2,7-7v-14.8c0.2-4.1-2.9-7.6-7-7.8c-4.1-0.2-7.6,2.9-7.8,7
		c0,0.3,0,0.5,0,0.8h-30.7c-4.8-17.2-25.4-29.7-43.5-29.7c-20.4-0.1-37,16.4-37.1,36.8c0,8.2,2.6,16.1,7.6,22.6H44.9v-141h408.2v141
		h-16.2c4.2-11.4-1.6-24.1-13-28.3C421.3,138.1,418.7,137.7,416,137.7L416,137.7z M96.6,167.3c-12.3-0.4-21.9-10.8-21.4-23
		c0.4-11.8,10-21.2,21.7-21.4c13,0,29.7,10.8,29.7,22.3c0,11.4-16.5,22.1-29.4,22.2L96.6,167.3z M430.8,471.7H67.2v-22.3h363.7
		L430.8,471.7z M453.1,434.6H44.9v-141h296.7c0.1,0,0.2,0,0.3,0h0.1h66.7h0.2h44.3V434.6z"/>
	<path class="st0" d="M215.8,235.3c-3.4,0-6.2,2.8-6.2,6.2c0,3.4,2.8,6.2,6.2,6.2c3.4,0,6.2-2.8,6.2-6.2
		C222,238.1,219.2,235.3,215.8,235.3L215.8,235.3z"/>
	<path class="st1" d="M215.8,235.3c-3.4,0-6.2,2.8-6.2,6.2c0,3.4,2.8,6.2,6.2,6.2c3.4,0,6.2-2.8,6.2-6.2
		C222,238.1,219.2,235.3,215.8,235.3L215.8,235.3"/>
	<path class="st0" d="M215.8,235.3c-3.4,0-6.2,2.8-6.2,6.2c0,3.4,2.8,6.2,6.2,6.2c3.4,0,6.2-2.8,6.2-6.2
		C222,238.1,219.2,235.3,215.8,235.3L215.8,235.3z"/>
	<path class="st2" d="M215.8,235.3c-3.4,0-6.2,2.8-6.2,6.2c0,3.4,2.8,6.2,6.2,6.2c3.4,0,6.2-2.8,6.2-6.2
		C222,238.1,219.2,235.3,215.8,235.3L215.8,235.3z"/>
	<path class="st0" d="M245.5,235.3c-3.4,0-6.2,2.8-6.2,6.2c0,3.4,2.8,6.2,6.2,6.2c3.4,0,6.2-2.8,6.2-6.2
		C251.7,238.1,249,235.3,245.5,235.3L245.5,235.3z"/>
	<path class="st1" d="M245.5,235.3c-3.4,0-6.2,2.8-6.2,6.2c0,3.4,2.8,6.2,6.2,6.2c3.4,0,6.2-2.8,6.2-6.2
		C251.7,238.1,249,235.3,245.5,235.3L245.5,235.3"/>
	<path class="st0" d="M245.5,235.3c-3.4,0-6.2,2.8-6.2,6.2c0,3.4,2.8,6.2,6.2,6.2c3.4,0,6.2-2.8,6.2-6.2
		C251.7,238.1,249,235.3,245.5,235.3L245.5,235.3z"/>
	<path class="st2" d="M245.5,235.3c-3.4,0-6.2,2.8-6.2,6.2c0,3.4,2.8,6.2,6.2,6.2c3.4,0,6.2-2.8,6.2-6.2
		C251.7,238.1,249,235.3,245.5,235.3L245.5,235.3z"/>
	<path class="st0" d="M230.6,250.2c-3.4,0-6.2,2.8-6.2,6.2c0,3.4,2.8,6.2,6.2,6.2c3.4,0,6.2-2.8,6.2-6.2
		C236.8,253,234.1,250.2,230.6,250.2L230.6,250.2z"/>
	<path class="st1" d="M230.6,250.2c-3.4,0-6.2,2.8-6.2,6.2c0,3.4,2.8,6.2,6.2,6.2c3.4,0,6.2-2.8,6.2-6.2
		C236.8,253,234.1,250.2,230.6,250.2L230.6,250.2"/>
	<path class="st0" d="M230.6,250.2c-3.4,0-6.2,2.8-6.2,6.2c0,3.4,2.8,6.2,6.2,6.2c3.4,0,6.2-2.8,6.2-6.2
		C236.8,253,234.1,250.2,230.6,250.2L230.6,250.2z"/>
	<path class="st2" d="M230.6,250.2c-3.4,0-6.2,2.8-6.2,6.2c0,3.4,2.8,6.2,6.2,6.2c3.4,0,6.2-2.8,6.2-6.2
		C236.8,253,234.1,250.2,230.6,250.2L230.6,250.2z"/>
	<path class="st0" d="M230.6,220.5c-3.4,0-6.2,2.8-6.2,6.2c0,3.4,2.8,6.2,6.2,6.2c3.4,0,6.2-2.8,6.2-6.2
		C236.8,223.3,234.1,220.5,230.6,220.5L230.6,220.5z"/>
	<path class="st1" d="M230.6,220.5c-3.4,0-6.2,2.8-6.2,6.2c0,3.4,2.8,6.2,6.2,6.2c3.4,0,6.2-2.8,6.2-6.2
		C236.8,223.3,234.1,220.5,230.6,220.5L230.6,220.5"/>
	<path class="st0" d="M230.6,220.5c-3.4,0-6.2,2.8-6.2,6.2c0,3.4,2.8,6.2,6.2,6.2c3.4,0,6.2-2.8,6.2-6.2
		C236.8,223.3,234.1,220.5,230.6,220.5L230.6,220.5z"/>
	<path class="st2" d="M230.6,220.5c-3.4,0-6.2,2.8-6.2,6.2c0,3.4,2.8,6.2,6.2,6.2c3.4,0,6.2-2.8,6.2-6.2
		C236.8,223.3,234.1,220.5,230.6,220.5L230.6,220.5z"/>
	<path class="st0" d="M349.5,240.3c3.4,0,6.2-2.8,6.2-6.2c0-3.4-2.8-6.2-6.2-6.2c-3.4,0-6.2,2.8-6.2,6.2
		C343.3,237.5,346.1,240.3,349.5,240.3L349.5,240.3z"/>
	<path class="st1" d="M349.5,240.3c3.4,0,6.2-2.8,6.2-6.2c0-3.4-2.8-6.2-6.2-6.2c-3.4,0-6.2,2.8-6.2,6.2
		C343.3,237.5,346.1,240.3,349.5,240.3L349.5,240.3"/>
	<path class="st0" d="M349.5,240.3c3.4,0,6.2-2.8,6.2-6.2c0-3.4-2.8-6.2-6.2-6.2c-3.4,0-6.2,2.8-6.2,6.2
		C343.3,237.5,346.1,240.3,349.5,240.3L349.5,240.3z"/>
	<path class="st2" d="M349.5,240.3c3.4,0,6.2-2.8,6.2-6.2c0-3.4-2.8-6.2-6.2-6.2c-3.4,0-6.2,2.8-6.2,6.2
		C343.3,237.5,346.1,240.3,349.5,240.3L349.5,240.3z"/>
</g>
</svg>
