<?xml version="1.0" encoding="utf-8"?>
<!-- Generator: Adobe Illustrator 27.9.0, SVG Export Plug-In . SVG Version: 6.00 Build 0)  -->
<svg version="1.1" id="Layer_1" xmlns="http://www.w3.org/2000/svg" xmlns:xlink="http://www.w3.org/1999/xlink" x="0px" y="0px"
	 viewBox="0 0 500 500" style="enable-background:new 0 0 500 500;" xml:space="preserve">
<style type="text/css">
	.st0{fill:#F16057;}
</style>
<g>
	<path class="st0" d="M169.4,358.7L169.4,358.7h-0.8H169.4z M489.2,318c11.2,15.2,7.9,36.6-7.2,47.8l-108.1,79.6
		C353.9,460,329.8,468,305,468H168.1H31.4c-15.1,0-27.3-12.2-27.3-27.3V386c0-15.1,12.2-27.3,27.3-27.3h31.5l38.3-30.7
		c19.4-15.5,43.5-23.9,68.3-23.9h66.8H250h54.7c15.1,0,27.3,12.1,27.3,27.3c0,15.1-12.2,27.3-27.3,27.3H250h-13.7
		c-7.5,0-13.7,6.1-13.7,13.7s6.1,13.7,13.7,13.7h103l102.2-75.3C456.7,299.5,478,302.8,489.2,318 M270.5,51.4v9
		c5.5,1,10.8,2.3,15.5,3.6c10.9,2.9,17.4,14.1,14.5,25.1c-2.9,10.9-14.1,17.4-25.1,14.5c-9.3-2.5-18-4.2-25.8-4.3
		c-6.2-0.1-12.6,1.4-16.6,3.7c-1.8,1.1-2.6,2.1-3,2.6c-0.3,0.4-0.6,1-0.6,2.3v0.6c0.2,0.1,0.8,1,2.8,2.2c5,3,12.3,5.2,23.4,8.6
		l0.8,0.2c9.5,2.8,22.2,6.7,32.4,13.1c11.7,7.3,22.3,19.5,22.6,38.3c0.2,19.2-9.7,33.2-22.8,41.4c-5.7,3.5-11.9,6-18.2,7.5v9
		c0,11.4-9.2,20.5-20.5,20.5c-11.4,0-20.5-9.1-20.5-20.5v-9.7c-8.1-1.9-15.5-4.6-21.9-6.7c-1.8-0.6-3.5-1.2-5.1-1.7
		c-10.8-3.6-16.6-15.2-13-25.9c3.6-10.8,15.2-16.6,25.9-13c2.2,0.8,4.3,1.4,6.2,2.1c11.7,3.9,20,6.7,29,7c6.8,0.3,12.9-1.4,16.4-3.5
		c1.7-1,2.4-1.9,2.8-2.5c0.3-0.6,0.8-1.6,0.7-3.5v-0.2c0-0.8,0-1.7-3.5-3.9c-4.8-3.1-12.2-5.5-23.1-8.8l-1.6-0.5
		c-9.2-2.8-21.4-6.4-31.1-12.3c-11.5-7-22.6-18.8-22.7-37.7c-0.1-19.5,11-32.9,23.7-40.4c5.5-3.2,11.3-5.5,17.3-7v-9.5
		c0-11.4,9.1-20.5,20.5-20.5c11.3,0,20.5,9.1,20.5,20.5H270.5z"/>
</g>
</svg>
