<?xml version="1.0" encoding="utf-8"?>
<!-- Generator: Adobe Illustrator 27.9.0, SVG Export Plug-In . SVG Version: 6.00 Build 0)  -->
<svg version="1.1" id="Layer_1" xmlns="http://www.w3.org/2000/svg" xmlns:xlink="http://www.w3.org/1999/xlink" x="0px" y="0px"
	 viewBox="0 0 377.4 351.1" style="enable-background:new 0 0 377.4 351.1;" xml:space="preserve">
<style type="text/css">
	.st0{fill:none;stroke:#F16057;stroke-width:15;stroke-linejoin:round;stroke-miterlimit:10;}
</style>
<g>
	<path class="st0" d="M116.4,131.5c-5.9,0-11.6,0.5-17.2,1.5l0,0c0,0-0.7-46.2,49.4-115.1c0,0-135.4,78.4-135,216.4
		c0,56.7,46,102.7,102.7,102.7s102.7-46,102.7-102.7C219.1,177.5,173.1,131.5,116.4,131.5z"/>
	<path class="st0" d="M201.1,316.2c17.2,13,38.7,20.7,61.9,20.7c56.7,0,102.7-46,102.7-102.7c0-56.7-46-102.7-102.7-102.7
		c-5.9,0-11.6,0.5-17.2,1.5l0,0c0,0-0.7-46.2,49.4-115.1c0,0-74.2,42.9-112.5,121.2"/>
</g>
</svg>
