<?xml version="1.0" encoding="utf-8"?>
<!-- Generator: Adobe Illustrator 27.9.0, SVG Export Plug-In . SVG Version: 6.00 Build 0)  -->
<svg version="1.1" id="Layer_1" xmlns="http://www.w3.org/2000/svg" xmlns:xlink="http://www.w3.org/1999/xlink" x="0px" y="0px"
	 viewBox="0 0 500 500" style="enable-background:new 0 0 500 500;" xml:space="preserve">
<style type="text/css">
	.st0{fill:#F16057;stroke:#F16057;stroke-width:9;stroke-miterlimit:10;}
</style>
<g>
	<g>
		<g>
			<path class="st0" d="M384.5,483.9H115.8c-27.4,0-49.7-22.3-49.7-49.7V246c0-27.4,22.3-49.7,49.7-49.7h236.9v-50.6
				c0-27.3-10.7-53.1-30-72.4c-38.7-38.7-106.1-38.7-144.9,0c-19.3,19.3-30,45-30,72.4c0,7.7-6.3,14-14,14s-14-6.3-14-14
				c0-34.8,13.6-67.6,38.3-92.2c49.2-49.2,135.3-49.2,184.5,0c24.7,24.7,38.2,57.4,38.2,92.2v50.6h3.9c27.4,0,49.8,22.3,49.8,49.7
				v188.2C434.2,461.5,411.9,483.9,384.5,483.9z M115.8,224.1c-12.1,0-21.9,9.8-21.9,21.9v188.2c0,12.1,9.8,21.9,21.9,21.9h268.7
				c12.1,0,21.9-9.8,21.9-21.9V246c0-12.1-9.8-21.9-21.9-21.9h-16.3c-1,0.1-2.2,0.1-3.2,0H115.8z M250.1,416.7
				c-19.2,0-34.8-15.6-34.8-34.8v-19.3c-13-10.5-20.9-26.5-20.9-43.4c0-30.7,25-55.7,55.7-55.7c30.7,0,55.7,25,55.7,55.7
				c0,16.9-7.9,32.9-20.9,43.4v19.3C284.9,401.1,269.3,416.7,250.1,416.7z M250.1,291.2c-15.4,0-27.9,12.6-27.9,27.9
				c0,9.9,5.3,19.1,14,24.1c4.3,2.5,6.9,7,6.9,12v26.6c0,7.5,14,7.6,14,0v-26.6c0-5,2.7-9.5,6.9-12c8.7-5,14-14.3,14-24.1
				C278,303.8,265.5,291.2,250.1,291.2z"/>
		</g>
	</g>
</g>
</svg>
