<?xml version="1.0" encoding="utf-8"?>
<!-- Generator: Adobe Illustrator 27.9.0, SVG Export Plug-In . SVG Version: 6.00 Build 0)  -->
<svg version="1.1" id="Layer_1" xmlns="http://www.w3.org/2000/svg" xmlns:xlink="http://www.w3.org/1999/xlink" x="0px" y="0px"
	 viewBox="0 0 500 500" style="enable-background:new 0 0 500 500;" xml:space="preserve">
<style type="text/css">
	.st0{fill:#FFFFFF;}
</style>
<g>
	<g>
		<path class="st0" d="M357.8,401.4h-29.4l-0.1-6.6l-9.6-28.1H180.3l-9.7,28.3v6.3h-29.5v-4.6h-0.9l12.4-30.1h-10.5v-67.5H7.7v-69.4
			h1.1L74,97.4h349.5l65.2,132.5h1.1v69.4H355.4v67.5h-9.1l12.4,30.1h-0.9V401.4z M333,391h17l-10-24.2h-15.3L333,391z M148.8,391
			h17l8.3-24.2h-15.3L148.8,391z M147.9,360.9h201.7v-61.7H147.9V360.9z M13.5,293.4h470.4v-6.6H13.5V293.4z M16.7,281h464l-37-45.4
			h-390L16.7,281z M13.5,235.6v40.2l32.7-40.2H13.5z M451.2,235.6l32.7,40.2v-40.2H451.2z M446.5,229.9h35.7l-55.4-112.7h-2.2v17.4
			l10.8,20.7h-10.8v14.1l18.4,28.8h-18.4v4.9L446.5,229.9z M58.4,229.9H439l-18.7-23H77.2L58.4,229.9z M15.3,229.9H51l21.9-26.9
			v-4.9H54.6l18.3-28.7v-14.1H62.2l10.6-20.7v-17.4h-2.2L15.3,229.9z M78.7,201.1h340.1v-3H78.7V201.1z M65.2,192.3h367.2
			l-12.3-19.2H77.4L65.2,192.3z M78.7,167.3h340.1v-12.1H78.7V167.3z M71.8,149.4h354l-5.9-11.3H77.5L71.8,149.4z M78.7,132.4h340.1
			v-15.2H78.7V132.4z M73.5,111.4h350.3l-4-8.2H77.6L73.5,111.4z M290.9,350.4H159v-5.8h131.9V350.4z M290.9,344H159v-5.8h131.9V344
			z M290.9,337.5H159v-5.8h131.9V337.5z M343,333h-40.9v-27H343V333z M307.9,327.1h29.3v-15.4h-29.3V327.1z M290.9,331.1H159v-5.8
			h131.9V331.1z M290.9,324.6H159v-5.8h131.9V324.6z M290.9,318.2H159v-5.8h131.9V318.2z M290.9,311.7H159v-5.8h131.9V311.7z"/>
	</g>
</g>
</svg>
