<?xml version="1.0" encoding="utf-8"?>
<!-- Generator: Adobe Illustrator 27.9.0, SVG Export Plug-In . SVG Version: 6.00 Build 0)  -->
<svg version="1.1" id="Layer_1" xmlns="http://www.w3.org/2000/svg" xmlns:xlink="http://www.w3.org/1999/xlink" x="0px" y="0px"
	 viewBox="0 0 500 500" style="enable-background:new 0 0 500 500;" xml:space="preserve">
<style type="text/css">
	.st0{clip-path:url(#SVGID_00000081643121798223041470000016644571659804618409_);fill:#F16057;}
</style>
<g>
	<defs>
		<rect id="SVGID_1_" x="39.2" y="3.7" width="421.8" height="491.9"/>
	</defs>
	<clipPath id="SVGID_00000112610241660548174200000012022069347868657844_">
		<use xlink:href="#SVGID_1_"  style="overflow:visible;"/>
	</clipPath>
	<path style="clip-path:url(#SVGID_00000112610241660548174200000012022069347868657844_);fill:#F16057;" d="M274.9,13.9
		c-13.7-13.7-36-13.7-49.7,0L49.5,189.6c-13.7,13.7-13.7,36,0,49.7c13.7,13.7,36,13.7,49.7,0L215,123.5v336.9
		c0,19.4,15.7,35.1,35.1,35.1c19.4,0,35.1-15.7,35.1-35.1V123.5L401,239.3c13.7,13.7,36,13.7,49.7,0c13.7-13.7,13.7-36,0-49.8
		L274.9,13.9L274.9,13.9z"/>
</g>
</svg>
