<?xml version="1.0" encoding="utf-8"?>
<!-- Generator: Adobe Illustrator 27.9.0, SVG Export Plug-In . SVG Version: 6.00 Build 0)  -->
<svg version="1.1" id="Layer_1" xmlns="http://www.w3.org/2000/svg" xmlns:xlink="http://www.w3.org/1999/xlink" x="0px" y="0px"
	 viewBox="0 0 500 500" style="enable-background:new 0 0 500 500;" xml:space="preserve">
<style type="text/css">
	.st0{fill:#FFFFFF;}
</style>
<g>
	<g>
		<path class="st0" d="M455.2,492.6h-33.5v-37.7H76.3v37.7H42.8V5.4h411.5v438.7h0.9V492.6z M432.5,481.8h11.8v-26.8h-11.8V481.8z
			 M53.7,481.8h11.8v-26.8H53.7V481.8z M190.4,444.1h253v-43.7H264.2c-25,0-45.3-20.3-45.3-45.3V82.9c0-25,20.3-45.3,45.3-45.3
			h179.2V16.2h-253V444.1z M53.7,444.1h125.9V16.2H53.7v21.4h67.6c25,0,45.3,20.3,45.3,45.3v82.6c0,25-20.3,45.3-45.3,45.3H53.7
			V444.1z M264.2,48.5c-19,0-34.5,15.5-34.5,34.5V355c0,19,15.5,34.5,34.5,34.5h179.2v-341H264.2z M53.7,200h67.6
			c19,0,34.5-15.5,34.5-34.5V82.9c0-19-15.5-34.5-34.5-34.5H53.7V200z M349.5,350.5h-40.2c-28.6,0-51.9-23.3-51.9-52V139.4
			c0-28.7,23.3-52,51.9-52h40.2c28.6,0,51.9,23.3,51.9,52v159.1C401.4,327.2,378.1,350.5,349.5,350.5z M309.3,98.3
			c-22.7,0-41.1,18.4-41.1,41.1v159.1c0,22.7,18.4,41.1,41.1,41.1h40.2c22.7,0,41.1-18.4,41.1-41.1V139.4
			c0-22.7-18.4-41.1-41.1-41.1H309.3z"/>
	</g>
</g>
</svg>
