<?xml version="1.0" encoding="utf-8"?>
<!-- Generator: Adobe Illustrator 27.9.0, SVG Export Plug-In . SVG Version: 6.00 Build 0)  -->
<svg version="1.1" id="Layer_1" xmlns="http://www.w3.org/2000/svg" xmlns:xlink="http://www.w3.org/1999/xlink" x="0px" y="0px"
	 viewBox="0 0 500 500" style="enable-background:new 0 0 500 500;" xml:space="preserve">
<style type="text/css">
	.st0{fill:#FFFFFF;}
</style>
<g>
	<path class="st0" d="M87.6,75.6c-10.4,0-18.8-8.2-18.8-18.2c0-10.1,8.4-18.2,18.9-18.2c10.4,0,18.8,8.1,18.8,18.2
		C106.4,67.4,98,75.6,87.6,75.6 M87.6,49.9c-4.3,0-7.7,3.3-7.7,7.5c0,4.1,3.5,7.5,7.7,7.5s7.7-3.3,7.7-7.5
		C95.3,53.2,91.8,49.9,87.6,49.9"/>
	<path class="st0" d="M87.6,128.5c-10.4,0-18.8-8.2-18.8-18.2c0-10.1,8.4-18.2,18.9-18.2c10.4,0,18.8,8.1,18.8,18.2
		C106.4,120.3,98,128.5,87.6,128.5 M87.6,102.8c-4.3,0-7.7,3.3-7.7,7.5c0,4.1,3.5,7.5,7.7,7.5s7.7-3.3,7.7-7.5
		C95.3,106.1,91.8,102.8,87.6,102.8"/>
	<path class="st0" d="M322,109.1c-20,0-36.2-15.6-36.2-35c0-19.3,16.2-35,36.2-35c20,0,36.2,15.7,36.2,35
		C358.1,93.4,341.9,109,322,109.1 M322,49.9c-13.9,0-25.1,10.9-25.1,24.2c0,13.4,11.2,24.2,25.1,24.2c13.9,0,25.1-10.9,25.1-24.2
		C347,60.7,335.8,49.9,322,49.9"/>
	<path class="st0" d="M321.9,71.3c-3.1,0-5.5-2.4-5.5-5.3V44.5c0-3,2.5-5.4,5.5-5.4c3.1,0,5.5,2.4,5.5,5.4v21.4
		C327.5,68.9,325,71.3,321.9,71.3"/>
	<path class="st0" d="M130.9,64.8c-0.5,0-1,0-1.5-0.1c-0.5-0.1-1-0.2-1.4-0.4c-0.5-0.2-0.9-0.4-1.4-0.7c-0.4-0.3-0.8-0.6-1.2-0.9
		c-0.3-0.4-0.7-0.7-1-1.1c-0.3-0.4-0.5-0.9-0.7-1.3c-0.2-0.5-0.3-0.9-0.5-1.4c-0.1-0.5-0.1-1-0.1-1.5c0-0.5,0-1,0.1-1.5
		c0.1-0.5,0.3-0.9,0.5-1.4c0.2-0.5,0.4-0.9,0.7-1.3c0.3-0.4,0.6-0.8,1-1.1c0.4-0.3,0.8-0.7,1.2-1c0.4-0.2,0.9-0.5,1.4-0.7
		c1.4-0.6,3-0.7,4.5-0.4c0.5,0.1,1,0.3,1.4,0.4c0.5,0.2,0.9,0.4,1.3,0.7c0.4,0.3,0.8,0.6,1.2,1c0.4,0.3,0.7,0.7,1,1.1
		c0.3,0.4,0.5,0.8,0.7,1.3c0.2,0.5,0.3,0.9,0.5,1.4c0.1,0.5,0.1,1,0.1,1.5c0,0.5-0.1,1-0.1,1.5c-0.1,0.5-0.3,0.9-0.5,1.4
		c-0.2,0.5-0.4,0.9-0.7,1.3c-0.3,0.4-0.6,0.8-1,1.1c-0.3,0.3-0.8,0.7-1.2,0.9c-0.4,0.3-0.9,0.5-1.3,0.7c-0.5,0.2-0.9,0.3-1.4,0.4
		C131.9,64.8,131.4,64.8,130.9,64.8"/>
	<path class="st0" d="M147.5,57.3c0-4.1,3.5-7.5,7.7-7.5s7.7,3.3,7.7,7.5s-3.5,7.5-7.7,7.5S147.5,61.5,147.5,57.3"/>
	<path class="st0" d="M179.7,64.8c-0.5,0-1-0.1-1.5-0.1c-0.5-0.1-1-0.3-1.4-0.4c-0.5-0.2-0.9-0.4-1.3-0.7c-0.4-0.3-0.8-0.6-1.2-0.9
		c-0.4-0.3-0.7-0.7-1-1.1s-0.5-0.9-0.7-1.3c-0.2-0.5-0.3-0.9-0.5-1.4c-0.1-0.5-0.1-1-0.1-1.5c0-0.5,0.1-1,0.1-1.5
		c0.1-0.5,0.3-0.9,0.5-1.4c0.2-0.5,0.5-0.9,0.7-1.3c0.3-0.4,0.6-0.8,1-1.1c0.3-0.4,0.7-0.7,1.2-1c0.4-0.3,0.9-0.5,1.3-0.7
		c0.5-0.2,1-0.3,1.4-0.4c1-0.2,2-0.2,3,0c0.5,0.1,1,0.3,1.5,0.4c0.5,0.2,0.9,0.4,1.3,0.7c0.4,0.3,0.8,0.6,1.2,1
		c0.4,0.3,0.7,0.7,1,1.1c0.3,0.4,0.5,0.8,0.7,1.3c0.2,0.5,0.3,0.9,0.5,1.4c0.1,0.5,0.2,1,0.1,1.5c0,0.5,0,1-0.1,1.5
		c-0.1,0.5-0.3,0.9-0.5,1.4c-0.2,0.5-0.4,0.9-0.7,1.3c-0.6,0.8-1.3,1.5-2.1,2.1c-0.9,0.5-1.8,0.9-2.8,1.1
		C180.7,64.8,180.2,64.8,179.7,64.8"/>
	<path class="st0" d="M130.9,117.3c-2.1,0-4-0.8-5.5-2.2c-1.4-1.4-2.3-3.3-2.3-5.3c0-0.5,0-1,0.1-1.5c0.1-0.5,0.3-0.9,0.5-1.4
		c0.2-0.5,0.4-0.9,0.7-1.3c0.3-0.4,0.6-0.8,1-1.1c1.8-1.8,4.5-2.5,7-2.1c0.5,0.1,1,0.2,1.4,0.4c0.5,0.2,0.9,0.4,1.3,0.7
		c0.5,0.3,0.8,0.6,1.2,0.9c3,2.9,3.1,7.6,0,10.6l0,0c-0.3,0.3-0.8,0.7-1.2,0.9c-0.4,0.3-0.9,0.5-1.3,0.7c-0.5,0.2-0.9,0.3-1.4,0.4
		C131.9,117.3,131.4,117.3,130.9,117.3"/>
	<path class="st0" d="M147.5,109.8c0-4.1,3.5-7.5,7.7-7.5s7.7,3.3,7.7,7.5c0,4.1-3.5,7.5-7.7,7.5S147.5,114,147.5,109.8"/>
	<path class="st0" d="M179.7,117.3c-0.5,0-1-0.1-1.5-0.2c-0.5-0.1-1-0.2-1.4-0.4c-0.5-0.2-0.9-0.4-1.3-0.7c-0.4-0.3-0.8-0.6-1.2-0.9
		c-3-2.9-3.1-7.6-0.1-10.5c0,0,0-0.1,0.1-0.1c0.3-0.4,0.7-0.7,1.2-0.9c0.4-0.3,0.9-0.5,1.3-0.7c0.5-0.2,1-0.3,1.4-0.4
		c2.5-0.5,5.2,0.3,7,2.1c0.3,0.3,0.7,0.7,0.9,1.2c0.3,0.4,0.5,0.8,0.7,1.3c0.2,0.5,0.3,0.9,0.4,1.4c0.1,0.5,0.2,1,0.2,1.5
		c0,4.1-3.4,7.5-7.7,7.5L179.7,117.3"/>
	<path class="st0" d="M68.2,468.3c-2.1,0-4.1-0.8-5.5-2.2c-1.5-1.4-2.3-3.3-2.3-5.3c0-0.5,0-1,0.1-1.5c0.1-0.5,0.2-1,0.5-1.4
		c0.2-0.5,0.4-0.9,0.7-1.3c0.3-0.4,0.6-0.8,1-1.1c0.4-0.3,0.8-0.6,1.2-0.9c0.4-0.3,0.9-0.5,1.3-0.7c0.5-0.2,1-0.3,1.4-0.4
		c2.5-0.5,5.2,0.3,7,2c0.3,0.3,0.7,0.7,1,1.1c0.3,0.4,0.5,0.9,0.7,1.3c0.2,0.4,0.4,0.9,0.5,1.4c0.2,1,0.2,2,0,2.9
		c-0.1,0.5-0.2,0.9-0.4,1.4c-0.2,0.5-0.5,0.9-0.7,1.3s-0.6,0.8-1,1.1C72.2,467.5,70.2,468.3,68.2,468.3"/>
	<path class="st0" d="M84.8,460.8c0-4.1,3.5-7.5,7.7-7.5s7.7,3.3,7.7,7.5c0,4.1-3.5,7.5-7.7,7.5S84.8,464.9,84.8,460.8"/>
	<path class="st0" d="M116.9,468.3c-2.1,0-4.1-0.8-5.5-2.2c-0.3-0.3-0.7-0.7-1-1.1c-0.3-0.4-0.5-0.9-0.7-1.3
		c-0.2-0.5-0.3-0.9-0.5-1.4c-0.2-1-0.2-2,0-2.9c0.1-0.5,0.3-0.9,0.5-1.4c0.2-0.5,0.4-0.9,0.7-1.3c0.6-0.8,1.3-1.5,2.1-2.1
		c0.4-0.3,0.9-0.5,1.4-0.7c0.5-0.2,0.9-0.3,1.4-0.4c2.5-0.5,5.1,0.3,7,2c0.4,0.3,0.7,0.7,1,1.2c0.6,0.8,1,1.7,1.2,2.7
		c0.1,0.5,0.1,1,0.1,1.5c0,0.5,0,1-0.1,1.5c-0.1,0.5-0.3,0.9-0.5,1.4c-0.2,0.5-0.4,0.9-0.7,1.3c-0.3,0.4-0.6,0.8-1,1.1
		C121,467.5,119,468.3,116.9,468.3"/>
</g>
<polygon class="st0" points="31.8,7.9 31.8,490.1 406.5,490.1 406.5,305.9 395.4,305.9 395.4,479.3 42.8,479.3 42.8,18.7 
	395.4,18.7 395.4,269.4 406.5,269.4 406.5,7.9 "/>
<g>
	<path class="st0" d="M364.7,233H73.5c-23.1,0-41.7-18.1-41.8-40.4V7.9h374.7v184.7C406.5,214.9,387.8,233,364.7,233 M42.8,18.7v174
		c0,16.4,13.7,29.6,30.7,29.6h291.2c16.9,0,30.7-13.3,30.7-29.6v-174H42.8z"/>
	<path class="st0" d="M242.4,286.2h-46.6c-3.1,0-5.5-2.4-5.5-5.4v-53.1c0-3,2.5-5.4,5.5-5.4h46.6c3.1,0,5.5,2.4,5.5,5.4v53.1
		C248,283.8,245.5,286.2,242.4,286.2 M201.4,275.4h35.5V233h-35.5V275.4z"/>
	<path class="st0" d="M213.2,193.7H163c-3.1,0-5.5-2.4-5.5-5.3V162c0-3,2.5-5.4,5.5-5.4h50.3c3.1,0,5.5,2.4,5.5,5.4v26.4
		C218.8,191.3,216.3,193.7,213.2,193.7 M168.5,183h39.2v-15.7h-39.2V183z"/>
	<path class="st0" d="M124.5,193.7H74.3c-3.1,0-5.5-2.4-5.5-5.3V162c0-3,2.5-5.4,5.5-5.4h50.3c3.1,0,5.5,2.4,5.5,5.4v26.4
		C130,191.3,127.6,193.7,124.5,193.7 M79.8,183H119v-15.7H79.8V183z"/>
	<path class="st0" d="M400.9,490H37.3c-3.1,0-5.5-2.4-5.5-5.4v-51.3c0-2.9,2.5-5.4,5.5-5.4h363.6c3.1,0,5.5,2.4,5.5,5.4v51.3
		C406.5,487.6,404,490,400.9,490 M42.8,479.3h352.6v-40.6H42.8V479.3z"/>
	<path class="st0" d="M294.9,326c-3.1,0-5.5-2.4-5.5-5.3v-27c0-4.1-2.7-7.6-5.8-7.6h-41.1c-3.1,0-5.5-2.4-5.5-5.3
		c0-3,2.5-5.4,5.5-5.4h41.1c9.9,0.6,17.4,8.7,16.9,18.3v26.9C300.5,323.7,298,326,294.9,326"/>
	<path class="st0" d="M143.4,326c-3.1,0-5.5-2.4-5.5-5.3v-27c-0.5-9.5,7-17.7,16.9-18.3h41.1c3.1,0,5.5,2.4,5.5,5.3
		c0,3-2.5,5.4-5.5,5.4h-41.1c-3.1,0-5.8,3.5-5.8,7.6v27C148.9,323.6,146.5,326,143.4,326"/>
	<path class="st0" d="M302.8,438.7h-20.3c-17.3,0-31.2-13.5-31.3-30.2v-54.4c0-2.9,2.5-5.3,5.5-5.3h71.7c3.1,0,5.5,2.4,5.5,5.3v54.4
		C334,425.2,320,438.7,302.8,438.7 M262.4,359.4v49.1c0,10.8,9,19.5,20.2,19.5h20.3c11.1,0,20.1-8.7,20.2-19.5v-49.1H262.4z"/>
	<path class="st0" d="M333.3,390.8h-4.8c-3.1,0-5.5-2.4-5.5-5.3v-31.4c0-3,2.5-5.4,5.5-5.4h25.9c3.1,0,5.5,2.4,5.5,5.4v11.1
		C359.9,379.3,348,390.8,333.3,390.8 M334.1,359.4v20.7c8.3-0.4,14.8-7,14.8-15v-5.7H334.1z"/>
	<path class="st0" d="M147.6,438.7h-20.3c-17.3,0-31.2-13.5-31.3-30.2v-54.4c0-2.9,2.5-5.3,5.5-5.3h71.7c3.1,0,5.5,2.4,5.5,5.3v54.4
		C178.8,425.2,164.8,438.7,147.6,438.7 M107.1,359.4v49.1c0,10.8,9.1,19.5,20.2,19.5h20.3c11.1,0,20.1-8.7,20.2-19.5v-49.1H107.1z"
		/>
	<path class="st0" d="M178.1,390.8h-4.8c-3.1,0-5.5-2.4-5.5-5.3v-31.4c0-3,2.5-5.4,5.5-5.4h25.9c3.1,0,5.5,2.4,5.5,5.4v11.1
		C204.7,379.3,192.8,390.8,178.1,390.8 M178.8,359.4v20.7c8.3-0.4,14.8-7,14.8-15v-5.7H178.8z"/>
	<path class="st0" d="M441.6,329.4c-3.1,0-5.5-2.4-5.5-5.3v-26.8c0-3.2-2.6-5.7-5.9-5.7h-69.3c-10.1,0-18.3-7.9-18.3-17.7v-46.2
		c0-3,2.5-5.4,5.5-5.4c3.1,0,5.5,2.4,5.5,5.4v46.2c0,3.8,3.2,6.9,7.2,7h69.3c9.4,0,17,7.4,17,16.4v26.8
		C447.1,327,444.6,329.4,441.6,329.4"/>
	<path class="st0" d="M440.8,428.7c-13.6,0-24.7-10.7-24.7-23.9V343c0-13.4,11.1-24.2,25-24.3c13.9,0,25.1,10.8,25.1,24.2v61.2
		C466.2,417.7,454.8,428.7,440.8,428.7 M441.2,329.4c-7.7,0-14,6.1-14,13.6v61.8c0,7.3,6.1,13.1,13.6,13.2c7.9,0,14.3-6.2,14.4-13.9
		v-61.2C455.1,335.5,448.9,329.4,441.2,329.4"/>
	<path class="st0" d="M119.4,413.3c-3.1,0-5.5-2.4-5.5-5.3v-34.3c0-2.9,2.5-5.4,5.5-5.4c3.1,0,5.5,2.4,5.5,5.4V408
		C124.9,410.9,122.4,413.3,119.4,413.3"/>
	<path class="st0" d="M274.6,413.3c-3.1,0-5.5-2.4-5.5-5.3v-34.3c0-2.9,2.5-5.4,5.5-5.4c3.1,0,5.5,2.4,5.5,5.4V408
		C280.1,410.9,277.7,413.3,274.6,413.3"/>
	<path class="st0" d="M58.7,438.3c-3.1,0-5.5-2.4-5.5-5.3V224.6c0-2.9,2.5-5.4,5.5-5.4c3.1,0,5.5,2.4,5.5,5.4V433
		C64.3,435.9,61.8,438.3,58.7,438.3"/>
</g>
<rect x="374.7" y="306.9" class="st0" width="11.1" height="126"/>
<rect x="374.7" y="224.6" class="st0" width="11.1" height="45.9"/>
<g>
	<path class="st0" d="M296.3,168.9c-3.1,0-5.5-2.4-5.6-5.3c0-1.4,0.6-2.8,1.6-3.8l29.1-28.2c2.2-2.1,5.7-2.1,7.8,0
		c2.2,2.1,2.2,5.5,0,7.6l-29.1,28.2C299.2,168.3,297.8,168.9,296.3,168.9"/>
	<path class="st0" d="M295.8,204.4c-3.1,0-5.5-2.4-5.6-5.3c0-1.4,0.6-2.8,1.6-3.8l37.6-36.4c2.2-2.1,5.7-2.1,7.8,0
		c2.2,2.1,2.2,5.5,0,7.6l-37.6,36.4C298.7,203.8,297.3,204.4,295.8,204.4 M350.7,151.4c-3.1,0-5.5-2.4-5.6-5.3
		c0-1.4,0.6-2.8,1.6-3.8l10.5-10.1c2.2-2.1,5.7-2.1,7.8,0c2.2,2.1,2.2,5.5,0,7.6l-10.5,10.1C353.6,150.8,352.2,151.4,350.7,151.4"/>
</g>
</svg>
