<?xml version="1.0" encoding="utf-8"?>
<!-- Generator: Adobe Illustrator 26.3.1, SVG Export Plug-In . SVG Version: 6.00 Build 0)  -->
<svg version="1.1" id="Layer_1" xmlns="http://www.w3.org/2000/svg" xmlns:xlink="http://www.w3.org/1999/xlink" x="0px" y="0px"
	 viewBox="0 0 300 300" style="enable-background:new 0 0 300 300;" xml:space="preserve">
<style type="text/css">
	.st0{fill:#F26449;}
</style>
<g>
	<path class="st0" d="M17,300c-0.6-3.7-1.4-7.3-1.7-11.1c-0.3-3.1-0.1-6.3-0.1-9.2c-0.6-0.5-0.8-0.8-1.1-0.8c-9-0.8-9-0.8-9-9.8
		c0-9.2,0-18.3,0-27.5c0-7.3,0-7.3,8-8c0-3.5,0.2-7.1,0-10.6c-0.6-9.5,3.2-16.9,9.8-23.5c19.1-18.8,38-37.8,57-56.8
		c1.1-1.1,2.1-2.2,3.5-3.6c-1.3-1.4-2.4-2.7-3.7-3.9c-9.3-9.3-18.6-18.7-28-27.9c-2.7-2.7-3-4.7-0.1-7.4c8.2-8,16.4-16.1,24.4-24.4
		c3.2-3.3,5.6-3,8.8,0.2c14.5,14.7,29.2,29.2,43.8,43.9c1.3,1.3,2.4,2.8,3.9,4.6c1.9-1.7,3.2-2.9,4.5-4.1
		c24.2-24.1,48.4-48.2,72.6-72.3c6.8-6.8,6.8-6.8,14.5-0.8c15.6-15.7,31.3-31.4,46.9-47c1.3,0,2.7,0,4,0c3.1,3.4,6.1,6.9,9.5,10.1
		c2.8,2.7,2.8,4.8,0,7.5c-5.6,5.4-11.1,11-16.7,16.6c-9.4,9.4-18.8,18.8-28.9,29.1c2.2,1.8,4.1,3.4,6,5c4,3.1,3.2,5.8-0.2,8.9
		c-6.4,6.1-12.6,12.4-18.8,18.7c-0.8,0.8-1.5,1.9-2.7,3.4c6.1,0,11.2-0.1,16.4,0c21.5,0.4,42.1,19.5,43.1,41
		c0.8,18.8,0.5,37.6,0.7,56.4c0,2.1,0.2,4.2,0.3,6.6c2.2,0,3.9,0.1,5.5,0c4.4-0.5,6,1.5,5.7,5.8c-0.3,4.5-0.1,9-0.1,13.5
		c0,10.5,0,10.5-10.4,11.7c-0.2,0-0.3,0.1-1.1,0.5c0,6,0.1,12.3,0,18.6c-0.1,6-0.7,6.6-6.6,6.6c-6.6,0-13.2,0-20,0
		c0,3.7,0,6.5,0,9.3c0,9.1,0,9.1-9,9.8c-0.3,0-0.5,0.3-1.2,0.8c0,2.2,0.2,4.7,0,7.1c-0.4,4.4-1.1,8.8-1.6,13.1c-10,0-20,0-30,0
		c-0.6-2-1.6-4-1.7-6c-0.3-4.9-0.1-9.9-0.1-14.9c-55.1,0-109.6,0-164.5,0c0,3.5,0.2,6.7-0.1,9.8c-0.3,3.7-1.1,7.4-1.7,11
		C37,300,27,300,17,300z M88,143.4c-1.3,1.7-2.4,3.2-3.7,4.5c-18.1,18.2-35.9,36.7-54.6,54.2c-9.8,9.1-10.8,19.4-9.3,31.8
		c2,0,4,0,5.9,0c43.2,0,86.3-0.2,129.5,0.2c7,0.1,11.7-2.2,14.9-7.5C143.3,199.1,116.1,171.8,88,143.4z M12.1,271.6
		c79.5,0,158.7,0,238.1,0c0-7.6,0-14.7,0-21.9c0-24.8-15.9-43.5-40.5-47c-2.2-0.3-5.3,0.6-6.9,2.1c-11.3,10.9-22.2,22.1-33.4,33
		c-1.7,1.6-4.5,2.8-6.8,2.9c-47,0.2-93.9,0.1-140.9,0.1c-3.1,0-6.2,0-9.6,0C12.1,251.2,12.1,261.2,12.1,271.6z M80.9,81.2
		c-7.7,7.7-15.1,15.1-21.4,21.5c38.8,39.2,78,78.6,116.4,117.2c7.1-7.1,14.5-14.5,21.5-21.5C158.8,159.6,119.8,120.4,80.9,81.2z
		 M276.3,252.8c0-36.7,0.2-72.9-0.1-109c-0.1-18.4-13.4-34.1-31.6-37c-8.1-1.3-16.6-1-24.9-0.9c-2.3,0-5.1,1.3-6.8,2.9
		c-5.7,5.2-10.5,11.2-16.5,16c-5.3,4.3-6.6,9.2-6,15.5c0.8,7.8,6.5,14.4,14.3,13.5c6.6-0.8,13.1-3.1,19.2-5.9
		c16.2-7.4,32.8,2.8,32.8,20.5c0,26.3,0,52.6,0,79c0,1.8,0,3.5,0,5.4C263.6,252.8,269.7,252.8,276.3,252.8z M250.2,219.9
		c0-16.9,0-33.9,0-50.8c0-13.5-11.5-20.5-23.8-14.6c-4.8,2.3-9.7,4.5-14.7,5.8c-13.7,3.4-24.9-4-27.8-17.8c-0.2-1-0.7-2-1-2.9
		c-5.6,5.7-11.1,11.3-16.8,17.1c9.1,9.1,18.6,18.3,27.8,27.9c6,6.3,11.9,12.5,21.6,11.9c0.3,0,0.6,0.2,0.9,0.3
		C230.5,200.1,241.1,208.4,250.2,219.9z M216.9,49.9c-26.4,26.6-52.3,52.7-78.6,79.1c0.9,1,1.9,2.2,3.2,3.5c1.9-1.8,3.3-3,4.5-4.3
		c21.9-21.9,43.9-43.8,65.8-65.6c0.9-0.9,1.8-2.2,2.9-2.7c1.2-0.5,3.4-0.8,3.9-0.1c0.8,1,1.1,3,0.8,4.4c-0.2,1.1-1.6,2-2.6,2.9
		c-20.2,20.1-40.3,40.3-60.5,60.4c-3.2,3.2-6.6,6.1-9.3,8.7c4.9,5.2,9.3,9.8,13.3,14.2c26.1-26.2,52.2-52.4,77.7-78
		C231.4,65.3,224.3,57.8,216.9,49.9z M233.7,57c14.8-15,29.2-29.6,43.4-43.9c-1-1.2-2.4-3-3.4-4.4c-14.8,15.1-29.2,29.7-43.8,44.5
		C230.8,54.1,232.3,55.6,233.7,57z M41.6,279c-6.6,0-12.7,0-19.1,0c0,4.8,0,9.3,0,13.9c6.5,0,12.6,0,19.1,0
		C41.6,288.2,41.6,283.9,41.6,279z M239.3,279.1c-6.8,0-13,0-19.2,0c0,4.8,0,9.2,0,13.8c6.5,0,12.7,0,19.2,0
		C239.3,288.2,239.3,283.8,239.3,279.1z M288.2,210.3c-3.5-1.1-4.9-0.3-4.8,3c0.1,3.5,0.1,6.9,0,10.4c-0.1,3.7,1.7,4,4.8,2.8
		c0-4,0-7.7,0-11.5C288.2,213.4,288.2,212.1,288.2,210.3z"/>
	<path class="st0" d="M234.1,238.8c-0.1,9.8-7.6,17.3-17.5,17.3c-10,0-17.6-7.8-17.5-17.8c0.1-9.5,8.1-17.3,17.7-17.2
		C226.5,221.2,234.2,229.1,234.1,238.8z M216.9,249.2c6.2-0.1,10.5-4.5,10.4-10.8c-0.1-5.8-5.2-10.8-10.8-10.7
		c-5.7,0.2-10.7,5.4-10.6,11.1C206,244.8,210.8,249.3,216.9,249.2z"/>
	<path class="st0" d="M31.8,266.8c-6.1,0-10.7-4.7-10.7-10.6c0-5.8,4.9-10.8,10.7-10.9c5.9-0.1,11.1,5.2,10.9,11.2
		C42.7,262.4,37.9,266.9,31.8,266.8z M37.8,255.8c-2.9-1.6-4.7-3.4-6.2-3.2c-1.3,0.1-2.4,2.5-3.6,3.9c1.5,1.2,3,3.2,4.6,3.4
		C33.8,260,35.3,257.9,37.8,255.8z"/>
	<path class="st0" d="M61.4,266.8c-6.2-0.1-10.5-4.6-10.4-10.9c0.1-5.9,5.1-10.8,10.9-10.7c5.7,0.2,10.9,5.6,10.7,11.2
		C72.4,262.4,67.5,266.9,61.4,266.8z M61.6,250.6c-1.8,2.5-3.8,4.1-3.6,5.3c0.3,1.6,2.3,2.8,3.6,4.2c1.3-1.4,3.3-2.6,3.5-4.2
		C65.4,254.6,63.4,253.1,61.6,250.6z"/>
	<path class="st0" d="M105,253.1c5.1,0,10.3-0.2,15.4,0.1c1.5,0.1,2.9,1.9,4.3,2.9c-1.5,1.2-2.9,3.4-4.4,3.4
		c-10.3,0.3-20.6,0.3-30.8,0c-1.5,0-2.9-2.3-4.3-3.5c1.4-1,2.8-2.7,4.4-2.8C94.7,252.9,99.9,253.1,105,253.1z"/>
</g>
</svg>
