<?xml version="1.0" encoding="utf-8"?>
<!-- Generator: Adobe Illustrator 26.2.1, SVG Export Plug-In . SVG Version: 6.00 Build 0)  -->
<svg version="1.1" id="Layer_1" xmlns="http://www.w3.org/2000/svg" xmlns:xlink="http://www.w3.org/1999/xlink" x="0px" y="0px"
	 viewBox="0 0 300 320" style="enable-background:new 0 0 300 320;" xml:space="preserve">
<style type="text/css">
	.st0{fill:#FFFFFF;}
</style>
<g>
	<path d="M74,310c-12,0-24,0-36,0c-8.5-4.3-6.8-12.3-6.9-19.5c-12.5-3.9-14.9-7.3-15-20.2c0-80.3,0.1-160.5-0.1-240.8
		C16,20,18.9,13.4,28,10c81.7,0,163.3,0,245,0c9.1,3.4,12,10,12,19.5c-0.2,80.3-0.1,160.5-0.1,240.8c0,12.9-2.5,16.3-15,20.2
		c-0.1,7.1,1.6,15.2-6.9,19.5c-12,0-24,0-36,0c-8-4.5-6.6-12.4-6.9-19.7c-46.7,0-92.9,0-139.5,0C80.9,298,81.7,305.5,74,310z
		 M275.2,74.9c0-16.9,0.1-33.2,0-49.5c0-4.6-3.2-5.6-7.2-5.6c-78.3,0-156.6,0-234.9,0c-5.8,0-7.2,1.6-7.2,7.5c0,8,0,16,0,24
		c0,7.8,0,15.5,0,23.6C109.1,74.9,191.8,74.9,275.2,74.9z M35.8,174.9c0.1-1.2,0.2-2.2,0.3-3.1c3-56.4,58.9-91.7,111-70.1
		c2.1,0.9,5.2,0.6,7.3-0.3c46.1-19.1,98,8,108.5,56.9c1.2,5.5,1.7,11.1,2.5,16.6c3.2,0,6.3,0,9.4,0c0-30.1,0-59.8,0-89.6
		c-83.1,0-165.8,0-248.7,0c0,30,0,59.8,0,89.7C29.5,174.9,32.5,174.9,35.8,174.9z M275.1,255.2c-83.4,0-166.1,0-248.7,0
		c-0.3,0.6-0.5,0.9-0.5,1.2c-0.1,5-0.1,10-0.1,15c0,7.9,1,8.8,8.9,8.8c77.1,0,154.2,0,231.3,0c1.3,0,3,0.5,3.9-0.1
		c1.9-1.4,4.7-3.2,4.9-5.1C275.5,268.5,275.1,262,275.1,255.2z M235.4,174.9c-0.9-19.2-8.9-33.8-25.1-43.2
		c-17.9-10.3-36.1-9.4-53.2,2c-14.3,9.6-21.2,23.6-21.8,41.2C168.8,174.9,201.7,174.9,235.4,174.9z M136.9,185
		c1.2,21.5,25.1,40.5,50,40.1c22.7-0.3,46.3-20.5,46.7-40.1C201.5,185,169.4,185,136.9,185z M255.4,174.9
		c-1.4-27.5-13-48.4-36.7-61.3c-25.2-13.7-50.5-12-73.9,4.5c-19.3,13.6-28.7,32.8-29.3,56.8c3.6,0,6.6,0,10,0
		c0.6-16.1,6-30.3,17.3-41.9c11.4-11.6,25.4-17.4,41.6-17.8c13.1-0.3,25,3.5,35.6,11.2c16.4,12,24.3,28.6,25.2,48.5
		C248.7,174.9,251.7,174.9,255.4,174.9z M244.3,185c-0.3,1.1-0.5,1.9-0.7,2.7c-7.4,28.4-30,46.9-57.6,47.1
		c-28.3,0.2-51-17.8-59-46.7c-0.4-1.3-2.4-2.7-3.9-3.1c-2-0.5-4.2-0.1-6.3-0.1c0.3,32.9,36.7,62.4,73.7,60.2
		c31.9-1.9,66.2-34.3,63.2-60C250.7,185,247.8,185,244.3,185z M122.4,126c-27.4-6.2-58.2,19.5-56.1,48.8c13,0,26,0,39.6,0
		C105.9,156.6,111.9,140.6,122.4,126z M275,184.8c-1.9,0-3.2,0.2-4.5,0c-4.7-0.8-6.4,1.1-7.3,5.9c-4.3,22-16.2,39.1-34.8,51.5
		c-1,0.7-1.9,1.5-3.2,2.6c17.1,0,33.5,0,49.9,0C275,224.7,275,205.1,275,184.8z M26.2,185.1c0,20.3,0,40,0,59.8
		c16.6,0,32.8,0,50.5,0c-23.1-14.4-36.1-34.1-40.1-59.8C32.9,185.1,29.7,185.1,26.2,185.1z M122,224.1c-0.2-0.6-0.4-1.2-0.7-1.7
		c-7.4-10.5-12.4-21.9-14.5-34.6c-0.2-1.2-2.6-2.8-4-2.8c-6.8-0.3-13.6-0.1-20.5-0.1c-5,0-10.1,0-15.3,0
		C71.9,213.3,101.7,229.2,122,224.1z M139.8,109.1c-23.7-7.8-45.3-5.1-64.9,9c-19.1,13.8-28.5,32.9-29.2,56.7c3.8,0,6.9,0,9.9,0
		c0.5-3.9,0.9-7.6,1.5-11.1c5.3-30.6,35.9-52.9,66.3-47.6C131,117.4,134.7,113.7,139.8,109.1z M139.2,240.3
		c-4.5-3.2-7.2-7.7-14.4-6.6c-31.3,5-59-13.7-67.1-44.6c-0.4-1.4-0.8-2.8-1.2-4c-3.4,0-6.5,0-9.6,0
		C51.9,230.4,102.2,256.7,139.2,240.3z M70.7,290.2c-10.1,0-19.8,0-29.7,0c0,3.4,0,6.4,0,9.7c10,0,19.7,0,29.7,0
		C70.7,296.6,70.7,293.7,70.7,290.2z M260,290.3c-10.3,0-20,0-29.6,0c0,3.5,0,6.6,0,9.5c10.2,0,19.9,0,29.6,0
		C260,296.4,260,293.4,260,290.3z"/>
	<path class="st0" d="M28,10c-9.1,3.4-12,10-12,19.5c0.2,80.3,0.1,160.5,0.1,240.8c0,12.9,2.5,16.3,15,20.2
		c0.1,7.1-1.6,15.2,6.9,19.5c-12.7,0-25.3,0-38,0C0,210,0,110,0,10C9.3,10,18.7,10,28,10z"/>
	<path class="st0" d="M263,310c8.5-4.3,6.8-12.3,6.9-19.5c12.5-3.9,15-7.3,15-20.2c0-80.3-0.1-160.5,0.1-240.8
		c0-9.5-2.9-16.1-12-19.5c9,0,18,0,27,0c0,100,0,200,0,300C287.7,310,275.3,310,263,310z"/>
	<path class="st0" d="M74,310c7.7-4.5,6.9-12,6.7-19.7c46.6,0,92.8,0,139.5,0c0.3,7.3-1.2,15.3,6.9,19.7C176,310,125,310,74,310z"/>
	<path class="st0" d="M275.2,74.9c-83.3,0-166,0-249.4,0c0-8,0-15.8,0-23.6c0-8,0-16,0-24c0-6,1.5-7.5,7.2-7.5
		c78.3,0,156.6,0,234.9,0c4,0,7.1,1,7.2,5.6C275.2,41.7,275.2,58.1,275.2,74.9z M259.9,47.3c-0.1-9.4-7.7-17.1-17.1-17.2
		c-9.5-0.1-17.5,8-17.4,17.5c0.1,9.4,7.9,17.1,17.2,17.2C252.1,64.9,259.9,57,259.9,47.3z M36.1,47.3c0,4-0.5,8.1,0.2,11.9
		c0.4,2,2.9,3.7,4.4,5.5c1.7-1.7,4.7-3.4,4.8-5.2c0.5-8.1,0.5-16.3,0-24.4c-0.1-1.7-2.7-4.4-4.5-4.7c-3-0.6-4.8,1.8-4.9,4.9
		C36.1,39.4,36.1,43.4,36.1,47.3z M96,47.3c0,4,0,8,0,12c0,3.1,1.4,5.8,4.4,5.3c1.9-0.3,4.7-3.1,4.8-4.9c0.5-7.9,0.3-15.9,0.2-23.9
		c0-3.2-1.6-5.6-5.1-5.4c-3.2,0.2-4.4,2.5-4.4,5.6C96.1,39.7,96,43.5,96,47.3z M56.1,47.4c0,4,0,8,0,12c0,3.1,1.6,5.7,4.6,5.1
		c1.9-0.4,4.7-3.1,4.8-5c0.5-8.1,0.5-16.3,0-24.4c-0.1-1.7-2.8-4.3-4.6-4.7c-3-0.6-4.7,1.8-4.8,5C56.1,39.4,56.1,43.4,56.1,47.4z
		 M76.1,47.3c0,4,0,8,0,12c0,3.1,1.5,5.7,4.5,5.2c1.9-0.3,4.7-3.1,4.8-4.9c0.5-8.1,0.5-16.3,0-24.4c-0.1-1.8-3.2-3.3-4.9-5
		c-1.5,1.7-3.8,3.3-4.2,5.2C75.6,39.3,76.1,43.3,76.1,47.3z"/>
	<path class="st0" d="M35.8,174.9c-3.3,0-6.4,0-9.8,0c0-30,0-59.7,0-89.7c82.9,0,165.7,0,248.7,0c0,29.8,0,59.5,0,89.6
		c-3.1,0-6.1,0-9.4,0c-0.8-5.5-1.3-11.1-2.5-16.6c-10.4-48.9-62.3-75.9-108.5-56.9c-2.1,0.9-5.3,1.2-7.3,0.3
		c-52.1-21.5-108.1,13.7-111,70.1C36.1,172.7,36,173.7,35.8,174.9z"/>
	<path class="st0" d="M275.1,255.2c0,6.9,0.4,13.3-0.2,19.8c-0.2,1.9-3,3.7-4.9,5.1c-0.9,0.6-2.6,0.1-3.9,0.1
		c-77.1,0-154.2,0-231.3,0c-8,0-9-1-8.9-8.8c0-5,0.1-10,0.1-15c0-0.3,0.2-0.6,0.5-1.2C109,255.2,191.7,255.2,275.1,255.2z"/>
	<path class="st0" d="M235.4,174.9c-33.8,0-66.6,0-100.1,0c0.6-17.6,7.5-31.6,21.8-41.2c17.1-11.5,35.3-12.4,53.2-2
		C226.5,141.1,234.5,155.7,235.4,174.9z"/>
	<path class="st0" d="M136.9,185c32.6,0,64.7,0,96.8,0c-0.4,19.6-24.1,39.8-46.7,40.1C162,225.5,138.1,206.5,136.9,185z"/>
	<path class="st0" d="M255.4,174.9c-3.8,0-6.7,0-10.2,0c-0.9-20-8.8-36.6-25.2-48.5c-10.6-7.7-22.5-11.4-35.6-11.2
		c-16.2,0.4-30.2,6.2-41.6,17.8c-11.4,11.5-16.7,25.7-17.3,41.9c-3.4,0-6.4,0-10,0c0.6-24,10-43.3,29.3-56.8
		c23.4-16.5,48.7-18.2,73.9-4.5C242.5,126.5,254,147.4,255.4,174.9z"/>
	<path class="st0" d="M244.3,185c3.5,0,6.4,0,9.3,0c3,25.7-31.2,58.1-63.2,60c-37,2.2-73.4-27.3-73.7-60.2c2.1,0,4.4-0.4,6.3,0.1
		c1.5,0.4,3.5,1.8,3.9,3.1c8,28.9,30.7,46.9,59,46.7c27.6-0.2,50.2-18.7,57.6-47.1C243.9,186.9,244,186.1,244.3,185z"/>
	<path class="st0" d="M122.4,126c-10.5,14.6-16.5,30.6-16.5,48.8c-13.5,0-26.6,0-39.6,0C64.1,145.5,94.9,119.8,122.4,126z"/>
	<path class="st0" d="M275,184.8c0,20.3,0,39.9,0,59.9c-16.4,0-32.8,0-49.9,0c1.4-1.1,2.2-1.9,3.2-2.6
		c18.6-12.4,30.5-29.5,34.8-51.5c0.9-4.7,2.6-6.7,7.3-5.9C271.7,185,273.1,184.8,275,184.8z"/>
	<path class="st0" d="M26.2,185.1c3.5,0,6.7,0,10.4,0c3.9,25.7,17,45.4,40.1,59.8c-17.7,0-33.9,0-50.5,0
		C26.2,225.1,26.2,205.4,26.2,185.1z"/>
	<path class="st0" d="M122,224.1c-20.3,5.1-50.1-10.8-55-39.3c5.2,0,10.2,0,15.3,0c6.8,0,13.6-0.2,20.5,0.1c1.4,0.1,3.8,1.6,4,2.8
		c2.1,12.7,7.1,24.2,14.5,34.6C121.6,222.9,121.7,223.5,122,224.1z"/>
	<path class="st0" d="M139.8,109.1c-5.1,4.6-8.8,8.3-16.3,7c-30.4-5.3-61,17-66.3,47.6c-0.6,3.6-1,7.2-1.5,11.1c-3.1,0-6.1,0-9.9,0
		c0.6-23.8,10-42.9,29.2-56.7C94.5,104,116.1,101.3,139.8,109.1z"/>
	<path class="st0" d="M139.2,240.3c-37.1,16.3-87.3-10-92.3-55.2c3.1,0,6.2,0,9.6,0c0.4,1.3,0.9,2.6,1.2,4
		c8.1,30.8,35.8,49.6,67.1,44.6C132,232.6,134.8,237.1,139.2,240.3z"/>
	<path class="st0" d="M70.7,290.2c0,3.5,0,6.5,0,9.7c-10,0-19.7,0-29.7,0c0-3.3,0-6.3,0-9.7C51,290.2,60.7,290.2,70.7,290.2z"/>
	<path class="st0" d="M260,290.3c0,3.1,0,6.1,0,9.5c-9.7,0-19.4,0-29.6,0c0-2.9,0-6,0-9.5C240,290.3,249.7,290.3,260,290.3z"/>
	<path d="M259.9,47.3c0.1,9.6-7.7,17.5-17.3,17.5c-9.3,0-17.1-7.8-17.2-17.2c-0.1-9.5,7.9-17.5,17.4-17.5
		C252.1,30.2,259.8,37.9,259.9,47.3z M242.8,55.1c4.1-0.1,7.4-3.6,7.3-7.8c-0.1-4.2-3.6-7.5-7.7-7.4c-4.1,0.1-7.6,3.8-7.5,7.8
		C235.1,51.8,238.8,55.2,242.8,55.1z"/>
	<path d="M36.1,47.3c0-4-0.1-8,0-12c0.1-3.1,1.9-5.5,4.9-4.9c1.8,0.4,4.4,3,4.5,4.7c0.5,8.1,0.5,16.3,0,24.4
		c-0.1,1.8-3.1,3.5-4.8,5.2c-1.5-1.8-4-3.5-4.4-5.5C35.6,55.4,36.1,51.3,36.1,47.3z"/>
	<path d="M96,47.3c0-3.8,0-7.6,0-11.5c0-3.1,1.2-5.4,4.4-5.6c3.5-0.2,5.1,2.2,5.1,5.4c0.1,8,0.3,16-0.2,23.9
		c-0.1,1.8-2.9,4.6-4.8,4.9c-3,0.5-4.5-2.1-4.4-5.3C96,55.3,96,51.3,96,47.3z"/>
	<path d="M56.1,47.4c0-4,0-8,0-12c0-3.2,1.8-5.6,4.8-5c1.8,0.3,4.5,3,4.6,4.7c0.5,8.1,0.5,16.3,0,24.4c-0.1,1.8-2.9,4.6-4.8,5
		c-3,0.6-4.6-2-4.6-5.1C56.1,55.4,56.1,51.4,56.1,47.4z"/>
	<path d="M76.1,47.3c0-4-0.5-8.1,0.2-11.9c0.3-1.9,2.7-3.5,4.2-5.2c1.7,1.7,4.8,3.2,4.9,5c0.5,8.1,0.5,16.3,0,24.4
		c-0.1,1.8-2.9,4.6-4.8,4.9c-3,0.5-4.5-2.1-4.5-5.2C76.1,55.3,76.1,51.3,76.1,47.3z"/>
	<path class="st0" d="M242.8,55.1c-4.1,0.1-7.7-3.4-7.8-7.4c-0.1-4,3.4-7.7,7.5-7.8c4.1-0.1,7.6,3.2,7.7,7.4
		C250.3,51.5,247,55,242.8,55.1z"/>
</g>
</svg>
