<?xml version="1.0" encoding="utf-8"?>
<!-- Generator: Adobe Illustrator 26.2.1, SVG Export Plug-In . SVG Version: 6.00 Build 0)  -->
<svg version="1.1" id="Layer_1" xmlns="http://www.w3.org/2000/svg" xmlns:xlink="http://www.w3.org/1999/xlink" x="0px" y="0px"
	 viewBox="0 0 293 336" style="enable-background:new 0 0 293 336;" xml:space="preserve">
<style type="text/css">
	.st0{fill:#FFFFFF;}
</style>
<g>
	<path class="st0" d="M0,20c100,0,199.9,0,300,0c0,99.9,0,199.9,0,300c-99.9,0-200,0-300,0C0,220.1,0,120.1,0,20z M21.4,318.8
		c74.5,0,148.5,0,222.7,0c0-37.8,0-75.4,0-113.2c-2.2,0-3.7,0-5.9,0c0,2.2,0,4.1,0,6.1c0,21.5,0,43,0,64.5c0,5.3-0.5,5.5-6.4,3.8
		c0-24.4,0-49,0-73.9c-2.2,0.1-3.8,0.2-6,0.3c0,2.9,0,5.6,0,8.2c0,20.5,0.1,41-0.1,61.5c0,1.6-1.6,4.7-2.5,4.7
		c-8.4,0.4-16.9,0.2-24.2,0.2c0.7-6.9,1.3-13.4,2.2-19.9c0.2-1.3,1.1-3.3,2.2-3.7c10.9-4.6,13.6-8.6,13.4-19.9
		c-0.1-4-1.4-5.6-5.6-5.6c-17.8,0.2-35.7,0.2-53.5,0c-4.2,0-5.8,1.5-5.4,5.6c1.2,14.4-2.8,29.2,3.2,43.1c-16.9,0-33.6,0-50.2,0
		c1.1-3.4,2.4-6.3,3-9.3c0.5-3.1,0.1-6.3,0.5-9.5c0.2-1.5,0.9-3.8,2-4.3c11.7-5.4,13.8-8.6,13.3-20.9c-0.1-3.1-1.1-4.6-4.4-4.6
		c-18.5,0.1-37,0.1-55.5,0c-3.2,0-4.8,1.4-4.6,4.4c1,14.8-2.8,29.9,3.4,44.6c-5.7,0-11.2-0.3-16.7,0.1c-4.7,0.3-6.3-1-6.3-6
		c0.2-36.5,0.1-73,0.1-109.6c0-1.8,0.1-3.6,0.2-5.5c25.2,0,50,0,75.4,0c0,8.1,0.1,15.9-0.2,23.7c0,0.9-2.3,2.5-3.6,2.6
		c-5.2,0.3-10.3,0.1-15.5,0.1c-7.7,0.1-11.7,4-12,11.6c-0.2,4.7-0.3,9.4,0.1,14c0.2,1.8,2.1,3.4,3.2,5.1c1-1.6,2.7-3.2,2.9-4.9
		c0.4-4.5,0.2-9,0.1-13.5c-0.1-4.1,1.6-6,6-6c24,0.1,48,0.1,72,0c4.4,0,6.1,2,6.1,6c0.1,4.8-0.2,9.7,0.2,14.5
		c0.1,1.4,1.8,2.6,2.7,3.9c1.1-1.4,2.9-2.7,3-4.1c0.4-4.5,0.2-9,0.1-13.5c0-9.4-3.6-13-13-13.1c-5.9,0-11.8,0-17.9,0
		c0-9.2,0-17.6,0-26.2c18.8,0,37.4,0,56.3,0c0,7.9,0,15.4,0,22.9c0.1,9,3.9,12.9,12.7,12.9c9.8,0.1,19.7,0,29.5,0
		c15.4,0,13.6-1.1,13.4,13.8c0,1.6-1.5,3.8-3,4.6c-5.4,3-8.7,7.4-8.8,13.6c-0.2,12.8-0.3,25.7,0,38.5c0.2,8.5,6.8,14.5,14.9,14.3
		c8-0.2,14.5-6.5,14.6-14.8c0.2-12.8,0.5-25.7-0.2-38.5c-0.2-3.9-2.9-9-6.1-11.2c-4.3-2.9-5.7-5.8-5.1-10.5c0.2-1.5,0.1-3,0-4.5
		c-0.2-8.1-3.5-11.4-11.7-11.5c-12.3,0-24.7,0-37,0c-3.2,0-6.6-0.3-6.7-4.3c-0.3-8.4-0.1-16.9-0.1-25.7c4.4,0,8.3,0,13,0
		c0,7.6,0,15.1,0,23c2.4-0.1,4-0.2,6-0.3c0-7.1,0.3-14-0.1-20.7c-0.3-4.8,1.7-7.3,6.4-9.2c0,10,0,19.6,0,29.4c2.2,0,3.9,0,6,0
		c0-53.9,0-107.3,0-160.7c-74.5,0-148.6,0-222.9,0C21.4,120.6,21.4,219.5,21.4,318.8z"/>
	<path d="M21.4,318.8c0-99.3,0-198.1,0-297.3c74.3,0,148.4,0,222.9,0c0,53.4,0,106.8,0,160.7c-2.1,0-3.8,0-6,0c0-9.8,0-19.3,0-29.4
		c-4.7,1.9-6.7,4.4-6.4,9.2c0.4,6.8,0.1,13.6,0.1,20.7c-2,0.1-3.6,0.2-6,0.3c0-7.9,0-15.4,0-23c-4.7,0-8.6,0-13,0
		c0,8.8-0.2,17.3,0.1,25.7c0.1,3.9,3.6,4.3,6.7,4.3c12.3,0,24.7,0,37,0c8.2,0,11.5,3.3,11.7,11.5c0,1.5,0.2,3,0,4.5
		c-0.6,4.6,0.8,7.6,5.1,10.5c3.2,2.1,5.9,7.2,6.1,11.2c0.8,12.8,0.4,25.7,0.2,38.5c-0.1,8.3-6.6,14.6-14.6,14.8
		c-8.1,0.2-14.7-5.9-14.9-14.3c-0.3-12.8-0.2-25.7,0-38.5c0.1-6.2,3.3-10.5,8.8-13.6c1.5-0.8,3-3,3-4.6c0.1-14.8,1.9-13.8-13.4-13.8
		c-9.8,0-19.7,0-29.5,0c-8.9-0.1-12.6-3.9-12.7-12.9c-0.1-7.5,0-15,0-22.9c-18.9,0-37.5,0-56.3,0c0,8.6,0,17,0,26.2
		c6,0,11.9,0,17.9,0c9.3,0,12.9,3.7,13,13.1c0,4.5,0.3,9-0.1,13.5c-0.1,1.4-2,2.7-3,4.1c-1-1.3-2.6-2.6-2.7-3.9
		c-0.4-4.8-0.1-9.7-0.2-14.5c-0.1-4-1.7-6-6.1-6c-24,0.1-48,0.1-72,0c-4.4,0-6,1.9-6,6c0.1,4.5,0.3,9-0.1,13.5
		c-0.2,1.7-1.9,3.3-2.9,4.9c-1.1-1.7-3-3.3-3.2-5.1c-0.5-4.6-0.3-9.3-0.1-14c0.3-7.7,4.3-11.5,12-11.6c5.2-0.1,10.3,0.2,15.5-0.1
		c1.3-0.1,3.6-1.6,3.6-2.6c0.3-7.8,0.2-15.6,0.2-23.7c-25.4,0-50.2,0-75.4,0c-0.1,1.9-0.2,3.7-0.2,5.5c0,36.5,0.1,73-0.1,109.6
		c0,5,1.6,6.3,6.3,6c5.5-0.4,11-0.1,16.7-0.1c-6.2-14.7-2.4-29.9-3.4-44.6c-0.2-3.1,1.4-4.5,4.6-4.4c18.5,0.1,37,0.1,55.5,0
		c3.3,0,4.2,1.5,4.4,4.6c0.5,12.2-1.6,15.5-13.3,20.9c-1.1,0.5-1.8,2.8-2,4.3c-0.4,3.1,0,6.4-0.5,9.5c-0.5,3-1.9,5.9-3,9.3
		c16.6,0,33.3,0,50.2,0c-6.1-13.9-2.1-28.7-3.2-43.1c-0.3-4.1,1.3-5.6,5.4-5.6c17.8,0.2,35.7,0.2,53.5,0c4.2,0,5.5,1.6,5.6,5.6
		c0.2,11.2-2.5,15.3-13.4,19.9c-1.1,0.5-2,2.4-2.2,3.7c-0.9,6.4-1.4,12.9-2.2,19.9c7.4,0,15.8,0.2,24.2-0.2c0.9,0,2.5-3.1,2.5-4.7
		c0.2-20.5,0.1-41,0.1-61.5c0-2.6,0-5.3,0-8.2c2.2-0.1,3.8-0.2,6-0.3c0,24.9,0,49.5,0,73.9c5.9,1.7,6.4,1.4,6.4-3.8
		c0-21.5,0-43,0-64.5c0-2,0-3.9,0-6.1c2.2,0,3.8,0,5.9,0c0,37.8,0,75.4,0,113.2C169.8,318.8,95.9,318.8,21.4,318.8z M28.1,28
		c-0.1,1-0.3,1.7-0.3,2.3c0,35.5-0.1,71,0.1,106.6c0,3.1,1.5,6.5,3.2,9.2c3.9,5.9,10.1,7.8,16.9,7.8c25.8-0.2,51.7-0.4,77.5-0.4
		c30,0,60,0.2,90,0.4c15.5,0.1,22.4-6.8,22.4-22.1c0-32.5,0-65,0-97.6c0-2,0-3.9,0-6.2C167.7,28,98.1,28,28.1,28z M238,312.2
		c0-7.1-0.2-13.6,0.1-20c0.2-4-1.1-5.2-5.1-5.1c-20,0.3-40,0.3-60,0.3c-46.5,0-93-0.1-139.4-0.2c-1.8,0-3.6,0.1-5.4,0.2
		c0,8.6,0,16.6,0,24.8C98,312.2,167.6,312.2,238,312.2z M194.8,238.2c-11.9,0-23-0.1-34.1,0.1c-0.8,0-2.3,1.9-2.3,3
		c-0.1,9.5-0.3,19,0.1,28.4c0.3,6.6,4.8,10.6,11.4,10.9c4.5,0.2,9,0.2,13.5,0c6.4-0.4,10.9-4.2,11.2-10.5
		C195.1,259.7,194.8,249.2,194.8,238.2z M102.1,238.6c-12.5,0-24.2,0-36.3,0c0,9.6,0,18.8,0,27.9c0,1.2-0.1,2.3,0.1,3.5
		c0.6,5.6,4.7,10.1,10.3,10.5c5.1,0.4,10.3,0.3,15.5,0c5.4-0.3,10.1-4.5,10.3-9.8C102.4,260.1,102.1,249.4,102.1,238.6z M27.8,280.4
		c6.1,1.2,6.3,1.1,6.3-4.6c0-37.7-0.1-75.4,0.1-113c0-5-1.7-7.7-6.4-9.6C27.8,195.7,27.8,238.1,27.8,280.4z M256.7,247.3
		c0,6-0.1,12,0,18c0.1,5.9,3.1,9.3,8,9.4c4.9,0.1,8.7-3.3,8.8-8.8c0.2-12.5,0.2-24.9,0-37.4c-0.1-5.7-3.6-8.8-8.8-8.6
		c-4.8,0.2-7.8,3.4-8,8.9C256.6,235,256.7,241.1,256.7,247.3z M143.4,160.4c-7.7,0-14.4,0-21.5,0c0,4.6,0,8.7,0,12.8
		c0,4.3,0,8.5,0,12.9c7.5,0,14.2,0,21.5,0c0-6.8,0-13.2,0-19.7C143.4,164.6,143.4,162.6,143.4,160.4z M209.8,238.1
		c-3.1,1-7.3-2.4-8.4,2.6c-0.8,3.2-0.1,6.8-0.1,10.2C208.3,249.8,210.7,246.3,209.8,238.1z M109,251.1c6.3-1.7,10.3-6.4,8.3-10.7
		c-0.8-1.8-5.1-2-8.3-3.1C109,242.8,109,246.8,109,251.1z"/>
	<path class="st0" d="M28.1,28c70.1,0,139.7,0,209.9,0c0,2.3,0,4.2,0,6.2c0,32.5,0,65,0,97.6c0,15.3-7,22.1-22.4,22.1
		c-30-0.1-60-0.4-90-0.4c-25.8,0-51.7,0.2-77.5,0.4c-6.9,0-13-1.8-16.9-7.8c-1.8-2.6-3.2-6.1-3.2-9.2c-0.2-35.5-0.2-71-0.1-106.6
		C27.8,29.7,27.9,29,28.1,28z M215.3,62c0.1-11.7-9.3-21.5-21-21.8c-11.5-0.3-21.6,9.8-21.5,21.7c0,11.9,9.3,21.2,21.2,21.2
		C206,83.2,215.2,74,215.3,62z M61.1,135.8c4.5,0,9-0.1,13.5,0c3.4,0.1,4.9-1.5,4.8-4.8c0-4.5,0-9,0-13.5c0-3.1-1.5-4.4-4.7-4.4
		c-9,0.1-18,0.1-27,0c-3.1,0-4.6,1.3-4.6,4.5c0.1,4.3,0.1,8.7,0,13c-0.2,4,1.8,5.3,5.5,5.2C52.8,135.7,56.9,135.8,61.1,135.8z
		 M114.6,113.2c-4.7,0-9.3,0.1-14,0c-3.1-0.1-4.6,1.3-4.5,4.5c0.1,4.5,0.1,9,0,13.5c-0.1,3.5,1.6,4.7,4.9,4.7c8.8,0,17.6-0.1,26.5,0
		c3.4,0,4.8-1.5,4.8-4.8c-0.1-4.5-0.1-9,0-13.5c0-3.2-1.5-4.5-4.6-4.4C123.3,113.2,119,113.2,114.6,113.2z M65.2,51.6
		c0-6.2-4.9-11.2-11-11.2c-5.8,0.1-10.8,5-11,10.8c-0.2,6,4.9,11.3,10.9,11.4C60.2,62.8,65.1,57.8,65.2,51.6z M65.2,84.2
		c0-6.2-5-11.1-11.1-11c-5.8,0.1-10.7,5-10.9,10.9c-0.1,6.1,4.8,11.1,11,11.1C60.6,95.2,65.2,90.5,65.2,84.2z M178.6,142.5
		c1.2-0.8,2.3-1.3,3.1-2.1c6.8-6.8,13.7-13.6,20.4-20.6c1-1.1,0.8-3.4,1.1-5.1c-1.9,0.3-4.2,0-5.5,1.1c-3.2,2.6-6,5.8-8.9,8.7
		c-4,4-8.1,7.9-11.9,12.1c-0.8,0.9-1,2.7-0.8,3.9C176.1,141.2,177.6,141.8,178.6,142.5z M199.5,99.8c-0.8-1-1.3-2.4-1.9-2.4
		c-1.5,0-3.4,0.2-4.4,1.1c-5.3,5-10.5,10.1-15.4,15.5c-1,1.1-0.8,3.4-1.2,5.2c1.9-0.3,4.3,0,5.5-1c5.3-4.8,10.2-10,15.2-15.1
		C198.1,102.1,198.7,101,199.5,99.8z M221.3,101.1c-0.2-0.7-0.3-1.4-0.5-2.1c-1.4-0.6-3.6-2-4.2-1.5c-3,2.3-5.6,5-8.1,7.9
		c-0.3,0.4,1.5,2.5,2.3,3.9C214.4,106.5,217.8,103.8,221.3,101.1z M94.5,45.1c-2,3.2-4.2,5.1-3.9,6.6c0.3,1.6,2.8,3.6,4.5,3.8
		c1.1,0.2,3.6-2.6,3.6-4C98.7,49.8,96.6,48.2,94.5,45.1z M109.4,57.9c2-3.2,4.2-5.2,3.9-6.6c-0.3-1.6-2.8-3.5-4.5-3.8
		c-1-0.2-3.5,2.6-3.5,4.1C105.3,53.2,107.3,54.9,109.4,57.9z M115.7,84.1c-3.1-2.1-4.9-4.3-6.5-4.1c-1.5,0.2-3.6,2.6-3.9,4.3
		c-0.2,1.1,2.4,3.7,3.8,3.7C110.8,88,112.5,86,115.7,84.1z M86.4,51.3c-3.1-1.9-5.1-4.1-6.6-3.8c-1.5,0.3-3.5,2.8-3.7,4.5
		c-0.1,1.1,2.6,3.6,4,3.6C81.9,55.5,83.5,53.4,86.4,51.3z M80.1,90.3c2.1-3.1,4.3-5,4.1-6.4c-0.3-1.6-2.6-3.6-4.3-3.9
		c-1.1-0.2-3.6,2.4-3.7,3.8C76.1,85.5,78.1,87.2,80.1,90.3z M94.8,77.7c-2.2,3-4.5,4.8-4.3,6.3c0.2,1.6,2.6,3.6,4.3,3.9
		c1.1,0.2,3.7-2.4,3.8-3.8C98.7,82.5,96.8,80.8,94.8,77.7z"/>
	<path class="st0" d="M238,312.2c-70.4,0-139.9,0-209.9,0c0-8.2,0-16.3,0-24.8c1.9-0.1,3.7-0.2,5.4-0.2c46.5,0.1,93,0.2,139.4,0.2
		c20,0,40,0,60-0.3c4,0,5.3,1.1,5.1,5.1C237.8,298.6,238,305.1,238,312.2z M42.9,294.7c-2.2,3-4.3,4.7-4.4,6.4
		c-0.1,1.4,2.5,4,3.7,3.9c1.6-0.1,4.1-2.2,4.4-3.7C46.9,299.7,44.8,297.8,42.9,294.7z M63.7,301.5c-3-2.3-4.6-4.4-6.3-4.6
		c-1.4-0.1-4.1,2.4-4,3.6c0.1,1.6,2.1,4.2,3.6,4.5C58.5,305.3,60.5,303.3,63.7,301.5z M78.1,301.4c-3-2.3-4.8-4.6-6.2-4.5
		c-1.7,0.2-3.8,2.4-4.3,4.2c-0.3,0.9,2.3,3.7,3.8,3.9C73,305.2,74.9,303.3,78.1,301.4z"/>
	<path class="st0" d="M194.8,238.2c0,11.1,0.4,21.5-0.1,31.9c-0.3,6.4-4.9,10.2-11.2,10.5c-4.5,0.3-9,0.3-13.5,0
		c-6.6-0.4-11.1-4.3-11.4-10.9c-0.5-9.5-0.3-19-0.1-28.4c0-1,1.5-2.9,2.3-3C171.7,238.1,182.8,238.2,194.8,238.2z M168.9,258.1
		c0-3.5,0.2-7-0.1-10.5c-0.1-1.2-1.8-2.3-2.8-3.4c-1,1-2.9,2.1-3,3.1c-0.3,6.8-0.3,13.6,0,20.5c0,1.2,1.8,2.2,2.8,3.3
		c1.1-1.2,2.8-2.3,3-3.6C169.2,264.5,168.9,261.3,168.9,258.1z"/>
	<path class="st0" d="M102.1,238.6c0,10.9,0.3,21.5-0.1,32.1c-0.2,5.4-4.9,9.5-10.3,9.8c-5.1,0.3-10.3,0.3-15.5,0
		c-5.6-0.4-9.7-4.9-10.3-10.5c-0.1-1.2-0.1-2.3-0.1-3.5c0-9.2,0-18.3,0-27.9C77.9,238.6,89.6,238.6,102.1,238.6z M76.2,258.1
		c0-3.5,0.2-7-0.1-10.5c-0.1-1.2-1.8-2.2-2.8-3.3c-1,1.1-2.9,2.1-2.9,3.2c-0.3,6.8-0.3,13.6,0,20.5c0,1.1,1.8,2.2,2.8,3.3
		c1-1.1,2.8-2,2.9-3.2C76.5,264.8,76.2,261.4,76.2,258.1z"/>
	<path class="st0" d="M27.8,280.4c0-42.3,0-84.7,0-127.3c4.7,1.9,6.4,4.7,6.4,9.6c-0.2,37.7-0.1,75.3-0.1,113
		C34.1,281.5,33.9,281.6,27.8,280.4z"/>
	<path class="st0" d="M256.7,247.3c0-6.2-0.1-12.3,0-18.4c0.1-5.5,3.1-8.8,8-8.9c5.2-0.2,8.7,2.8,8.8,8.6c0.2,12.5,0.2,24.9,0,37.4
		c-0.1,5.5-3.9,8.9-8.8,8.8c-4.9-0.1-7.9-3.6-8-9.4C256.6,259.2,256.7,253.3,256.7,247.3z"/>
	<path class="st0" d="M143.4,160.4c0,2.2,0,4.2,0,6.1c0,6.4,0,12.9,0,19.7c-7.3,0-14,0-21.5,0c0-4.4,0-8.7,0-12.9
		c0-4.1,0-8.3,0-12.8C129,160.4,135.7,160.4,143.4,160.4z"/>
	<path class="st0" d="M209.8,238.1c0.9,8.3-1.5,11.8-8.6,12.8c0-3.5-0.6-7,0.1-10.2C202.5,235.7,206.7,239.1,209.8,238.1z"/>
	<path class="st0" d="M109,251.1c0-4.3,0-8.2,0-13.8c3.3,1.1,7.5,1.3,8.3,3.1C119.3,244.7,115.4,249.4,109,251.1z"/>
	<path d="M215.3,62c-0.1,12-9.3,21.2-21.3,21.1c-11.9,0-21.2-9.3-21.2-21.2c0-11.9,10-22,21.5-21.7C206,40.6,215.4,50.3,215.3,62z
		 M197,47.6c0,3.1,0.3,5.8-0.1,8.3c-0.3,1.4-1.8,2.6-2.8,3.8c-1-1.2-2.7-2.4-2.9-3.8c-0.5-2.7-0.1-5.5-0.1-8.3
		c-8,1.5-12.9,8.2-12.1,15.8c0.8,7.5,7.3,13.5,14.8,13.6c7.7,0.1,14.5-6,15.3-13.7C209.9,55.9,205.1,49.2,197,47.6z"/>
	<path d="M61.1,135.8c-4.2,0-8.3-0.1-12.5,0c-3.7,0.1-5.6-1.3-5.5-5.2c0.2-4.3,0.1-8.7,0-13c0-3.2,1.4-4.5,4.6-4.5
		c9,0.1,18,0.1,27,0c3.2,0,4.7,1.2,4.7,4.4c0,4.5,0,9,0,13.5c0,3.3-1.4,4.9-4.8,4.8C70.1,135.7,65.6,135.8,61.1,135.8z M73,119.3
		c-5.6,0-10.7,0-15.8,0c-8.1,0-8.1,0-7.5,8.3c0,0.4,0.3,0.9,0.5,1.4c7.6,0,15.1,0,22.8,0C73,125.8,73,123,73,119.3z"/>
	<path d="M114.6,113.2c4.3,0,8.7,0.1,13,0c3.1-0.1,4.6,1.2,4.6,4.4c-0.1,4.5-0.1,9,0,13.5c0.1,3.3-1.3,4.9-4.8,4.8
		c-8.8-0.1-17.6-0.1-26.5,0c-3.2,0-5-1.2-4.9-4.7c0.1-4.5,0.1-9,0-13.5c-0.1-3.2,1.4-4.5,4.5-4.5C105.3,113.2,110,113.2,114.6,113.2
		z M102.8,129c7.8,0,15.3,0,23.1,0c0.1-1.5,0.1-2.6,0.3-3.8c0.6-4.3-0.7-6.5-5.6-6c-4.1,0.4-8.3,0.4-12.4,0
		c-5.2-0.5-6.5,1.8-5.8,6.3C102.5,126.7,102.6,127.8,102.8,129z"/>
	<path d="M65.2,51.6c0,6.2-5,11.2-11.1,11.1c-6-0.1-11.1-5.4-10.9-11.4c0.2-5.8,5.2-10.8,11-10.8C60.3,40.4,65.2,45.3,65.2,51.6z
		 M59.8,52.3c0-0.7,0-1.4-0.1-2c-1.9-1.1-3.9-3.4-5.6-3.1c-1.7,0.2-4.2,3-4.2,4.5c0.1,1.6,2.8,4.1,4.5,4.2
		C56.2,56,58,53.6,59.8,52.3z"/>
	<path d="M65.2,84.2c0,6.4-4.6,11-10.9,11c-6.2,0-11.1-5-11-11.1c0.1-5.8,5-10.8,10.9-10.9C60.2,73,65.1,77.9,65.2,84.2z M55.4,78.9
		c-0.7,0-1.4,0-2.1,0c-1.2,1.8-3.5,3.7-3.3,5.3c0.2,1.8,2.8,3.2,4.3,4.8c1.6-1.6,4.2-3,4.5-4.7C59,82.7,56.6,80.7,55.4,78.9z"/>
	<path d="M178.6,142.5c-1-0.7-2.5-1.2-2.6-2c-0.2-1.3,0-3.1,0.8-3.9c3.8-4.2,7.9-8.1,11.9-12.1c2.9-2.9,5.7-6.1,8.9-8.7
		c1.3-1,3.6-0.7,5.5-1.1c-0.3,1.7-0.1,4-1.1,5.1c-6.6,7-13.5,13.8-20.4,20.6C180.9,141.2,179.8,141.6,178.6,142.5z"/>
	<path d="M199.5,99.8c-0.8,1.2-1.4,2.4-2.2,3.2c-5,5.1-9.9,10.3-15.2,15.1c-1.2,1.1-3.6,0.7-5.5,1c0.4-1.8,0.1-4,1.2-5.2
		c4.9-5.4,10.1-10.5,15.4-15.5c1-0.9,2.9-1.1,4.4-1.1C198.1,97.4,198.7,98.7,199.5,99.8z"/>
	<path d="M221.3,101.1c-3.5,2.7-6.9,5.4-10.4,8.1c-0.8-1.3-2.7-3.5-2.3-3.9c2.4-2.9,5.1-5.6,8.1-7.9c0.6-0.5,2.7,1,4.2,1.5
		C221,99.7,221.1,100.4,221.3,101.1z"/>
	<path d="M94.5,45.1c2.1,3,4.2,4.7,4.2,6.4c0,1.4-2.5,4.2-3.6,4c-1.7-0.3-4.2-2.2-4.5-3.8C90.3,50.2,92.5,48.3,94.5,45.1z"/>
	<path d="M109.4,57.9c-2.1-3-4.2-4.7-4.2-6.4c0-1.5,2.5-4.3,3.5-4.1c1.8,0.3,4.2,2.2,4.5,3.8C113.6,52.7,111.4,54.7,109.4,57.9z"/>
	<path d="M115.7,84.1c-3.2,2-4.9,3.9-6.6,3.9c-1.4,0-4-2.6-3.8-3.7c0.3-1.7,2.4-4.1,3.9-4.3C110.7,79.8,112.5,82,115.7,84.1z"/>
	<path d="M86.4,51.3c-3,2.2-4.6,4.3-6.3,4.3c-1.4,0-4.1-2.4-4-3.6c0.2-1.7,2.1-4.3,3.7-4.5C81.4,47.2,83.3,49.3,86.4,51.3z"/>
	<path d="M80.1,90.3c-2-3.1-4-4.8-3.9-6.4c0.1-1.4,2.6-4,3.7-3.8c1.7,0.3,4.1,2.3,4.3,3.9C84.4,85.4,82.2,87.2,80.1,90.3z"/>
	<path d="M94.8,77.7c1.9,3.1,3.9,4.8,3.8,6.5c-0.1,1.4-2.7,4-3.8,3.8c-1.7-0.3-4.1-2.4-4.3-3.9C90.4,82.5,92.6,80.7,94.8,77.7z"/>
	<path d="M42.9,294.7c1.9,3.1,4,5,3.7,6.5c-0.3,1.5-2.7,3.6-4.4,3.7c-1.2,0.1-3.8-2.6-3.7-3.9C38.6,299.3,40.7,297.7,42.9,294.7z"/>
	<path d="M63.7,301.5c-3.2,1.8-5.2,3.8-6.7,3.5c-1.5-0.3-3.5-2.8-3.6-4.5c-0.1-1.2,2.7-3.7,4-3.6C59.1,297,60.7,299.2,63.7,301.5z"
		/>
	<path d="M78.1,301.4c-3.3,1.8-5.1,3.7-6.7,3.6c-1.5-0.2-4-2.9-3.8-3.9c0.5-1.7,2.6-4,4.3-4.2C73.4,296.8,75.1,299.1,78.1,301.4z"/>
	<path d="M168.9,258.1c0,3.2,0.3,6.4-0.1,9.5c-0.2,1.3-2,2.4-3,3.6c-1-1.1-2.8-2.2-2.8-3.3c-0.3-6.8-0.2-13.6,0-20.5
		c0-1.1,1.9-2.1,3-3.1c1,1.1,2.7,2.2,2.8,3.4C169.1,251.1,168.9,254.6,168.9,258.1z"/>
	<path d="M76.2,258.1c0,3.3,0.3,6.7-0.1,10c-0.1,1.2-1.9,2.1-2.9,3.2c-1-1.1-2.8-2.2-2.8-3.3c-0.3-6.8-0.3-13.6,0-20.5
		c0-1.1,1.9-2.1,2.9-3.2c1,1.1,2.7,2.1,2.8,3.3C76.5,251.1,76.2,254.6,76.2,258.1z"/>
	<path class="st0" d="M197,47.6c8.1,1.6,12.9,8.3,12.1,15.8c-0.8,7.7-7.6,13.8-15.3,13.7c-7.5-0.1-14.1-6.2-14.8-13.6
		c-0.8-7.6,4.1-14.3,12.1-15.8c0,2.9-0.3,5.7,0.1,8.3c0.2,1.4,1.9,2.5,2.9,3.8c1-1.3,2.6-2.4,2.8-3.8C197.4,53.4,197,50.7,197,47.6z
		"/>
	<path class="st0" d="M73,119.3c0,3.7,0,6.5,0,9.7c-7.7,0-15.2,0-22.8,0c-0.2-0.5-0.5-0.9-0.5-1.4c-0.6-8.3-0.6-8.3,7.5-8.3
		C62.3,119.3,67.4,119.3,73,119.3z"/>
	<path class="st0" d="M102.8,129c-0.2-1.2-0.3-2.3-0.5-3.4c-0.7-4.5,0.6-6.9,5.8-6.3c4.1,0.4,8.3,0.4,12.4,0c4.9-0.5,6.2,1.7,5.6,6
		c-0.2,1.1-0.2,2.3-0.3,3.8C118.1,129,110.6,129,102.8,129z"/>
	<path class="st0" d="M59.8,52.3c-1.8,1.3-3.6,3.7-5.3,3.6c-1.7-0.1-4.5-2.6-4.5-4.2c-0.1-1.6,2.5-4.3,4.2-4.5
		c1.7-0.2,3.7,2,5.6,3.1C59.7,51,59.8,51.6,59.8,52.3z"/>
	<path class="st0" d="M55.4,78.9c1.2,1.8,3.6,3.8,3.4,5.4c-0.3,1.8-2.9,3.2-4.5,4.7c-1.5-1.6-4.1-3.1-4.3-4.8
		c-0.2-1.6,2.1-3.5,3.3-5.3C54,78.9,54.7,78.9,55.4,78.9z"/>
</g>
</svg>
