<?xml version="1.0" encoding="utf-8"?>
<!-- Generator: Adobe Illustrator 26.2.1, SVG Export Plug-In . SVG Version: 6.00 Build 0)  -->
<svg version="1.1" id="Layer_1" xmlns="http://www.w3.org/2000/svg" xmlns:xlink="http://www.w3.org/1999/xlink" x="0px" y="0px"
	 viewBox="0 0 300 300" style="enable-background:new 0 0 300 300;" xml:space="preserve">
<style type="text/css">
	.st0{fill:#FFFFFF;}
</style>
<g>
	<path class="st0" d="M17,300c-5.7,0-11.3,0-17,0C0,200,0,100,0,0c90.3,0,180.7,0,271,0c-15.6,15.6-31.3,31.3-46.9,46.8
		c-7.8-6-7.8-6-14.5,0.8C185.4,71.7,161.2,95.8,137,120c-1.2,1.2-2.6,2.4-4.5,4.1c-1.5-1.8-2.6-3.3-3.9-4.6
		c-14.6-14.6-29.3-29.2-43.8-43.9c-3.1-3.1-5.5-3.5-8.8-0.2c-8,8.3-16.1,16.4-24.4,24.4c-2.9,2.8-2.6,4.8,0.1,7.4
		c9.4,9.2,18.7,18.6,28,27.9c1.2,1.2,2.4,2.6,3.7,3.9c-1.4,1.5-2.4,2.6-3.5,3.6c-19,19-37.9,38-57,56.8c-6.7,6.6-10.5,14-9.8,23.5
		c0.2,3.6,0,7.2,0,10.6c-8,0.8-8,0.8-8,8c0,9.2,0,18.3,0,27.5c0,8.9,0,8.9,9,9.8c0.3,0,0.5,0.4,1.1,0.8c0,2.9-0.2,6.1,0.1,9.2
		C15.7,292.7,16.4,296.3,17,300z"/>
	<path d="M17,300c-0.6-3.7-1.4-7.3-1.7-11.1c-0.3-3.1-0.1-6.3-0.1-9.2c-0.6-0.5-0.8-0.8-1.1-0.8c-9-0.8-9-0.8-9-9.8
		c0-9.2,0-18.3,0-27.5c0-7.3,0-7.3,8-8c0-3.5,0.2-7.1,0-10.6c-0.6-9.5,3.2-16.9,9.8-23.5c19.1-18.8,38-37.8,57-56.8
		c1.1-1.1,2.1-2.2,3.5-3.6c-1.3-1.4-2.4-2.7-3.7-3.9c-9.3-9.3-18.6-18.7-28-27.9c-2.7-2.7-3-4.7-0.1-7.4c8.2-8,16.4-16.1,24.4-24.4
		c3.2-3.3,5.6-3,8.8,0.2c14.5,14.7,29.2,29.2,43.8,43.9c1.3,1.3,2.4,2.8,3.9,4.6c1.9-1.7,3.2-2.9,4.5-4.1
		c24.2-24.1,48.4-48.2,72.6-72.3c6.8-6.8,6.8-6.8,14.5-0.8C239.7,31.3,255.4,15.6,271,0c1.3,0,2.7,0,4,0c3.1,3.4,6.1,6.9,9.5,10.1
		c2.8,2.7,2.8,4.8,0,7.5c-5.6,5.4-11.1,11-16.7,16.6c-9.4,9.4-18.8,18.8-28.9,29.1c2.2,1.8,4.1,3.4,6,5c4,3.1,3.2,5.8-0.2,8.9
		c-6.4,6.1-12.6,12.4-18.8,18.7c-0.8,0.8-1.5,1.9-2.7,3.4c6.1,0,11.2-0.1,16.4,0c21.5,0.4,42.1,19.5,43.1,41
		c0.8,18.8,0.5,37.6,0.7,56.4c0,2.1,0.2,4.2,0.3,6.6c2.2,0,3.9,0.1,5.5,0c4.4-0.5,6,1.5,5.7,5.8c-0.3,4.5-0.1,9-0.1,13.5
		c0,10.5,0,10.5-10.4,11.7c-0.2,0-0.3,0.1-1.1,0.5c0,6,0.1,12.3,0,18.6c-0.1,6-0.7,6.6-6.6,6.6c-6.6,0-13.2,0-20,0
		c0,3.7,0,6.5,0,9.3c0,9.1,0,9.1-9,9.8c-0.3,0-0.5,0.3-1.2,0.8c0,2.2,0.2,4.7,0,7.1c-0.4,4.4-1.1,8.8-1.6,13.1c-10,0-20,0-30,0
		c-0.6-2-1.6-4-1.7-6c-0.3-4.9-0.1-9.9-0.1-14.9c-55.1,0-109.6,0-164.5,0c0,3.5,0.2,6.7-0.1,9.8c-0.3,3.7-1.1,7.4-1.7,11
		C37,300,27,300,17,300z M88,143.5c-1.3,1.7-2.4,3.2-3.7,4.5c-18.1,18.2-35.9,36.7-54.6,54.2c-9.8,9.1-10.8,19.4-9.3,31.8
		c2,0,4,0,5.9,0c43.2,0,86.3-0.2,129.5,0.2c7,0.1,11.7-2.2,14.9-7.5C143.3,199.2,116.1,171.8,88,143.5z M12.1,271.6
		c79.5,0,158.7,0,238.1,0c0-7.6,0-14.7,0-21.9c0-24.8-15.9-43.5-40.5-47c-2.2-0.3-5.3,0.6-6.9,2.1c-11.3,10.9-22.2,22.1-33.4,33
		c-1.7,1.6-4.5,2.8-6.8,2.9c-47,0.2-93.9,0.1-140.9,0.1c-3.1,0-6.2,0-9.6,0C12.1,251.3,12.1,261.2,12.1,271.6z M80.9,81.3
		c-7.7,7.7-15.1,15.1-21.4,21.5C98.3,142,137.5,181.4,175.9,220c7.1-7.1,14.5-14.5,21.5-21.5C158.8,159.7,119.8,120.5,80.9,81.3z
		 M276.3,252.9c0-36.7,0.2-72.9-0.1-109c-0.1-18.4-13.4-34.1-31.6-37c-8.1-1.3-16.6-1-24.9-0.9c-2.3,0-5.1,1.3-6.8,2.9
		c-5.7,5.2-10.5,11.2-16.5,16c-5.3,4.3-6.6,9.2-6,15.5c0.8,7.8,6.5,14.4,14.3,13.5c6.6-0.8,13.1-3.1,19.2-5.9
		c16.2-7.4,32.8,2.8,32.8,20.5c0,26.3,0,52.6,0,79c0,1.8,0,3.5,0,5.4C263.6,252.9,269.7,252.9,276.3,252.9z M250.2,220
		c0-16.9,0-33.9,0-50.8c0-13.5-11.5-20.5-23.8-14.6c-4.8,2.3-9.7,4.5-14.7,5.8c-13.7,3.4-24.9-4-27.8-17.8c-0.2-1-0.7-2-1-2.9
		c-5.6,5.7-11.1,11.3-16.8,17.1c9.1,9.1,18.6,18.3,27.8,27.9c6,6.3,11.9,12.5,21.6,11.9c0.3,0,0.6,0.2,0.9,0.3
		C230.5,200.2,241.1,208.5,250.2,220z M216.9,50c-26.4,26.6-52.3,52.7-78.6,79.1c0.9,1,1.9,2.2,3.2,3.5c1.9-1.8,3.3-3,4.5-4.3
		c21.9-21.9,43.9-43.8,65.8-65.6c0.9-0.9,1.8-2.2,2.9-2.7c1.2-0.5,3.4-0.8,3.9-0.1c0.8,1,1.1,3,0.8,4.4c-0.2,1.1-1.6,2-2.6,2.9
		c-20.2,20.1-40.3,40.3-60.5,60.4c-3.2,3.2-6.6,6.1-9.3,8.7c4.9,5.2,9.3,9.8,13.3,14.2c26.1-26.2,52.2-52.4,77.7-78
		C231.4,65.4,224.3,57.9,216.9,50z M233.7,57.1c14.8-15,29.2-29.6,43.4-43.9c-1-1.2-2.4-3-3.4-4.4c-14.8,15.1-29.2,29.7-43.8,44.5
		C230.8,54.2,232.3,55.7,233.7,57.1z M41.6,279c-6.6,0-12.7,0-19.1,0c0,4.8,0,9.3,0,13.9c6.5,0,12.6,0,19.1,0
		C41.6,288.3,41.6,283.9,41.6,279z M239.3,279.1c-6.8,0-13,0-19.2,0c0,4.8,0,9.2,0,13.8c6.5,0,12.7,0,19.2,0
		C239.3,288.2,239.3,283.8,239.3,279.1z M288.2,210.4c-3.5-1.1-4.9-0.3-4.8,3c0.1,3.5,0.1,6.9,0,10.4c-0.1,3.7,1.7,4,4.8,2.8
		c0-4,0-7.7,0-11.5C288.2,213.5,288.2,212.1,288.2,210.4z"/>
	<path class="st0" d="M245,300c0.5-4.4,1.2-8.7,1.6-13.1c0.2-2.5,0-4.9,0-7.1c0.7-0.5,0.9-0.8,1.2-0.8c9-0.7,9-0.7,9-9.8
		c0-2.8,0-5.6,0-9.3c6.8,0,13.4,0,20,0c5.8,0,6.5-0.7,6.6-6.6c0.1-6.3,0-12.6,0-18.6c0.8-0.3,0.9-0.5,1.1-0.5
		c10.4-1.2,10.4-1.2,10.4-11.7c0-4.5-0.2-9,0.1-13.5c0.3-4.3-1.3-6.3-5.7-5.8c-1.6,0.2-3.3,0-5.5,0c-0.1-2.4-0.3-4.5-0.3-6.6
		c-0.2-18.8,0.1-37.7-0.7-56.4c-0.9-21.4-21.6-40.6-43.1-41c-5.2-0.1-10.3,0-16.4,0c1.2-1.5,1.8-2.6,2.7-3.4
		c6.2-6.3,12.4-12.6,18.8-18.7c3.3-3.2,4.1-5.9,0.2-8.9c-2-1.5-3.9-3.2-6-5c10.2-10.2,19.6-19.7,28.9-29.1
		c5.5-5.5,11-11.1,16.7-16.6c2.8-2.7,2.8-4.8,0-7.5c-3.3-3.2-6.3-6.7-9.5-10.1c8.3,0,16.6,0,25,0c0,100,0,200,0,300
		C281.7,300,263.3,300,245,300z"/>
	<path class="st0" d="M47,300c0.6-3.7,1.4-7.3,1.7-11c0.3-3.1,0.1-6.3,0.1-9.8c54.8,0,109.3,0,164.5,0c0,5-0.2,9.9,0.1,14.9
		c0.1,2,1.1,4,1.7,6C159,300,103,300,47,300z"/>
	<path class="st0" d="M88,143.5c28.1,28.3,55.4,55.7,82.7,83.2c-3.2,5.4-7.9,7.6-14.9,7.5c-43.2-0.3-86.3-0.2-129.5-0.2
		c-1.9,0-3.9,0-5.9,0c-1.5-12.4-0.5-22.7,9.3-31.8c18.8-17.5,36.5-36.1,54.6-54.2C85.6,146.7,86.6,145.1,88,143.5z"/>
	<path class="st0" d="M12.1,271.6c0-10.4,0-20.3,0-30.8c3.4,0,6.5,0,9.6,0c47,0,93.9,0,140.9-0.1c2.3,0,5.2-1.2,6.8-2.9
		c11.2-10.9,22.2-22.1,33.4-33c1.6-1.5,4.7-2.5,6.9-2.1c24.6,3.6,40.5,22.2,40.5,47c0,7.1,0,14.3,0,21.9
		C170.7,271.6,91.6,271.6,12.1,271.6z M234.1,238.9c0.1-9.7-7.6-17.6-17.2-17.7c-9.6-0.1-17.6,7.6-17.7,17.2
		c-0.1,10.1,7.5,17.8,17.5,17.8C226.5,256.2,234.1,248.7,234.1,238.9z M31.8,266.8c6.1,0,10.9-4.4,11-10.3c0.1-6-5-11.3-10.9-11.2
		c-5.8,0.1-10.7,5.1-10.7,10.9C21.2,262.1,25.8,266.8,31.8,266.8z M61.4,266.8c6.1,0.1,11-4.5,11.2-10.4c0.2-5.6-5-11-10.7-11.2
		C56.2,245.1,51.1,250,51,256C50.9,262.3,55.2,266.8,61.4,266.8z M105,253.2c-5.1,0-10.3-0.2-15.4,0.1c-1.5,0.1-2.9,1.8-4.4,2.8
		c1.4,1.2,2.8,3.5,4.3,3.5c10.3,0.3,20.6,0.3,30.8,0c1.5,0,2.9-2.2,4.4-3.4c-1.4-1-2.8-2.8-4.3-2.9C115.3,253,110.1,253.2,105,253.2
		z"/>
	<path class="st0" d="M80.9,81.3c39,39.2,77.9,78.4,116.5,117.2c-7,7-14.4,14.4-21.5,21.5c-38.4-38.6-77.5-78-116.4-117.2
		C65.8,96.4,73.1,89,80.9,81.3z"/>
	<path class="st0" d="M276.3,252.9c-6.6,0-12.7,0-19.5,0c0-1.9,0-3.7,0-5.4c0-26.3,0-52.6,0-79c0-17.7-16.7-27.9-32.8-20.5
		c-6.1,2.8-12.6,5.2-19.2,5.9c-7.7,0.9-13.5-5.7-14.3-13.5c-0.6-6.4,0.7-11.2,6-15.5c5.9-4.8,10.8-10.9,16.5-16
		c1.7-1.6,4.5-2.9,6.8-2.9c8.3-0.1,16.7-0.4,24.9,0.9c18.2,2.9,31.5,18.6,31.6,37C276.5,180,276.3,216.2,276.3,252.9z"/>
	<path class="st0" d="M250.2,220c-9.1-11.5-19.7-19.8-33.8-23.2c-0.3-0.1-0.6-0.3-0.9-0.3c-9.7,0.6-15.6-5.5-21.6-11.9
		c-9.2-9.6-18.7-18.8-27.8-27.9c5.7-5.8,11.1-11.3,16.8-17.1c0.3,0.9,0.8,1.9,1,2.9c2.9,13.8,14.1,21.2,27.8,17.8
		c5.1-1.3,10-3.5,14.7-5.8c12.3-5.8,23.7,1.1,23.8,14.6C250.2,186.1,250.2,203,250.2,220z"/>
	<path class="st0" d="M216.9,50c7.4,7.8,14.5,15.3,21.2,22.5c-25.5,25.6-51.6,51.8-77.7,78c-4.1-4.3-8.4-9-13.3-14.2
		c2.8-2.6,6.2-5.5,9.3-8.7c20.2-20.1,40.3-40.2,60.5-60.4c0.9-0.9,2.3-1.8,2.6-2.9c0.3-1.4,0.1-3.4-0.8-4.4
		c-0.5-0.6-2.7-0.4-3.9,0.1c-1.1,0.5-2,1.7-2.9,2.7c-21.9,21.9-43.9,43.8-65.8,65.6c-1.3,1.3-2.6,2.5-4.5,4.3
		c-1.2-1.4-2.3-2.5-3.2-3.5C164.6,102.7,190.5,76.6,216.9,50z"/>
	<path class="st0" d="M233.7,57.1c-1.4-1.4-2.9-2.9-3.8-3.8c14.6-14.9,29-29.5,43.8-44.5c1.1,1.4,2.5,3.2,3.4,4.4
		C263,27.5,248.6,42.1,233.7,57.1z"/>
	<path class="st0" d="M41.6,279c0,4.9,0,9.3,0,13.9c-6.4,0-12.5,0-19.1,0c0-4.6,0-9.1,0-13.9C28.9,279,35,279,41.6,279z"/>
	<path class="st0" d="M239.3,279.1c0,4.7,0,9.1,0,13.8c-6.5,0-12.7,0-19.2,0c0-4.6,0-9,0-13.8C226.4,279.1,232.6,279.1,239.3,279.1z
		"/>
	<path class="st0" d="M288.2,210.4c0,1.7,0,3.2,0,4.6c0,3.8,0,7.6,0,11.5c-3.1,1.2-4.9,0.9-4.8-2.8c0.1-3.5,0.1-6.9,0-10.4
		C283.3,210.1,284.8,209.2,288.2,210.4z"/>
	<path d="M234.1,238.9c-0.1,9.8-7.6,17.3-17.5,17.3c-10,0-17.6-7.8-17.5-17.8c0.1-9.5,8.1-17.3,17.7-17.2
		C226.5,221.3,234.2,229.2,234.1,238.9z M216.9,249.3c6.2-0.1,10.5-4.5,10.4-10.8c-0.1-5.8-5.2-10.8-10.8-10.7
		c-5.7,0.2-10.7,5.4-10.6,11.1C206,244.9,210.8,249.4,216.9,249.3z"/>
	<path d="M31.8,266.8c-6.1,0-10.7-4.7-10.7-10.6c0-5.8,4.9-10.8,10.7-10.9c5.9-0.1,11.1,5.2,10.9,11.2
		C42.7,262.4,37.9,266.9,31.8,266.8z M37.8,255.8c-2.9-1.6-4.7-3.4-6.2-3.2c-1.3,0.1-2.4,2.5-3.6,3.9c1.5,1.2,3,3.2,4.6,3.4
		C33.8,260,35.3,257.9,37.8,255.8z"/>
	<path d="M61.4,266.8c-6.2-0.1-10.5-4.6-10.4-10.9c0.1-5.9,5.1-10.8,10.9-10.7c5.7,0.2,10.9,5.6,10.7,11.2
		C72.4,262.4,67.5,266.9,61.4,266.8z M61.6,250.7c-1.8,2.5-3.8,4.1-3.6,5.3c0.3,1.6,2.3,2.8,3.6,4.2c1.3-1.4,3.3-2.6,3.5-4.2
		C65.4,254.7,63.4,253.2,61.6,250.7z"/>
	<path d="M105,253.2c5.1,0,10.3-0.2,15.4,0.1c1.5,0.1,2.9,1.9,4.3,2.9c-1.5,1.2-2.9,3.4-4.4,3.4c-10.3,0.3-20.6,0.3-30.8,0
		c-1.5,0-2.9-2.3-4.3-3.5c1.4-1,2.8-2.7,4.4-2.8C94.7,253,99.9,253.2,105,253.2z"/>
	<path class="st0" d="M216.9,249.3c-6.1,0.1-10.9-4.4-11-10.4c-0.1-5.7,4.8-10.9,10.6-11.1c5.7-0.2,10.8,4.8,10.8,10.7
		C227.4,244.8,223.1,249.2,216.9,249.3z"/>
	<path class="st0" d="M37.8,255.8c-2.5,2-4,4.2-5.3,4c-1.6-0.2-3.1-2.2-4.6-3.4c1.2-1.4,2.3-3.7,3.6-3.9
		C33.1,252.5,34.9,254.2,37.8,255.8z"/>
	<path class="st0" d="M61.6,250.7c1.8,2.5,3.8,4.1,3.6,5.3c-0.2,1.5-2.3,2.8-3.5,4.2c-1.3-1.4-3.3-2.6-3.6-4.2
		C57.8,254.8,59.9,253.2,61.6,250.7z"/>
</g>
</svg>
