<?xml version="1.0" encoding="utf-8"?>
<!-- Generator: Adobe Illustrator 26.3.1, SVG Export Plug-In . SVG Version: 6.00 Build 0)  -->
<svg version="1.1" id="Layer_1" xmlns="http://www.w3.org/2000/svg" xmlns:xlink="http://www.w3.org/1999/xlink" x="0px" y="0px"
	 viewBox="0 0 293 336" style="enable-background:new 0 0 293 336;" xml:space="preserve">
<style type="text/css">
	.st0{fill:#F26449;}
</style>
<g>
	<path class="st0" d="M17.1,316.6c0-99.3,0-198.1,0-297.3c74.3,0,148.4,0,222.9,0c0,53.4,0,106.8,0,160.7c-2.1,0-3.8,0-6,0
		c0-9.8,0-19.3,0-29.4c-4.7,1.9-6.7,4.4-6.4,9.2c0.4,6.8,0.1,13.6,0.1,20.7c-2,0.1-3.6,0.2-6,0.3c0-7.9,0-15.4,0-23
		c-4.7,0-8.6,0-13,0c0,8.8-0.2,17.3,0.1,25.7c0.1,3.9,3.6,4.3,6.7,4.3c12.3,0,24.7,0,37,0c8.2,0,11.5,3.3,11.7,11.5
		c0,1.5,0.2,3,0,4.5c-0.6,4.6,0.8,7.6,5.1,10.5c3.2,2.1,5.9,7.2,6.1,11.2c0.8,12.8,0.4,25.7,0.2,38.5c-0.1,8.3-6.6,14.6-14.6,14.8
		c-8.1,0.2-14.7-5.9-14.9-14.3c-0.3-12.8-0.2-25.7,0-38.5c0.1-6.2,3.3-10.5,8.8-13.6c1.5-0.8,3-3,3-4.6c0.1-14.8,1.9-13.8-13.4-13.8
		c-9.8,0-19.7,0-29.5,0c-8.9-0.1-12.6-3.9-12.7-12.9c-0.1-7.5,0-15,0-22.9c-18.9,0-37.5,0-56.3,0c0,8.6,0,17,0,26.2
		c6,0,11.9,0,17.9,0c9.3,0,12.9,3.7,13,13.1c0,4.5,0.3,9-0.1,13.5c-0.1,1.4-2,2.7-3,4.1c-1-1.3-2.6-2.6-2.7-3.9
		c-0.4-4.8-0.1-9.7-0.2-14.5c-0.1-4-1.7-6-6.1-6c-24,0.1-48,0.1-72,0c-4.4,0-6,1.9-6,6c0.1,4.5,0.3,9-0.1,13.5
		c-0.2,1.7-1.9,3.3-2.9,4.9c-1.1-1.7-3-3.3-3.2-5.1c-0.5-4.6-0.3-9.3-0.1-14c0.3-7.7,4.3-11.5,12-11.6c5.2-0.1,10.3,0.2,15.5-0.1
		c1.3-0.1,3.6-1.6,3.6-2.6c0.3-7.8,0.2-15.6,0.2-23.7c-25.4,0-50.2,0-75.4,0c-0.1,1.9-0.2,3.7-0.2,5.5c0,36.5,0.1,73-0.1,109.6
		c0,5,1.6,6.3,6.3,6c5.5-0.4,11-0.1,16.7-0.1c-6.2-14.7-2.4-29.9-3.4-44.6c-0.2-3.1,1.4-4.5,4.6-4.4c18.5,0.1,37,0.1,55.5,0
		c3.3,0,4.2,1.5,4.4,4.6c0.5,12.2-1.6,15.5-13.3,20.9c-1.1,0.5-1.8,2.8-2,4.3c-0.4,3.1,0,6.4-0.5,9.5c-0.5,3-1.9,5.9-3,9.3
		c16.6,0,33.3,0,50.2,0c-6.1-13.9-2.1-28.7-3.2-43.1c-0.3-4.1,1.3-5.6,5.4-5.6c17.8,0.2,35.7,0.2,53.5,0c4.2,0,5.5,1.6,5.6,5.6
		c0.2,11.2-2.5,15.3-13.4,19.9c-1.1,0.5-2,2.4-2.2,3.7c-0.9,6.4-1.4,12.9-2.2,19.9c7.4,0,15.8,0.2,24.2-0.2c0.9,0,2.5-3.1,2.5-4.7
		c0.2-20.5,0.1-41,0.1-61.5c0-2.6,0-5.3,0-8.2c2.2-0.1,3.8-0.2,6-0.3c0,24.9,0,49.5,0,73.9c5.9,1.7,6.4,1.4,6.4-3.8
		c0-21.5,0-43,0-64.5c0-2,0-3.9,0-6.1c2.2,0,3.8,0,5.9,0c0,37.8,0,75.4,0,113.2C165.5,316.6,91.6,316.6,17.1,316.6z M23.8,25.8
		c-0.1,1-0.3,1.7-0.3,2.3c0,35.5-0.1,71,0.1,106.6c0,3.1,1.5,6.5,3.2,9.2c3.9,5.9,10.1,7.8,16.9,7.8c25.8-0.2,51.7-0.4,77.5-0.4
		c30,0,60,0.2,90,0.4c15.5,0.1,22.4-6.8,22.4-22.1c0-32.5,0-65,0-97.6c0-2,0-3.9,0-6.2C163.4,25.8,93.8,25.8,23.8,25.8z M233.7,310
		c0-7.1-0.2-13.6,0.1-20c0.2-4-1.1-5.2-5.1-5.1c-20,0.3-40,0.3-60,0.3c-46.5,0-93-0.1-139.4-0.2c-1.8,0-3.6,0.1-5.4,0.2
		c0,8.6,0,16.6,0,24.8C93.7,310,163.3,310,233.7,310z M190.5,236c-11.9,0-23-0.1-34.1,0.1c-0.8,0-2.3,1.9-2.3,3
		c-0.1,9.5-0.3,19,0.1,28.4c0.3,6.6,4.8,10.6,11.4,10.9c4.5,0.2,9,0.2,13.5,0c6.4-0.4,10.9-4.2,11.2-10.5
		C190.8,257.5,190.5,247,190.5,236z M97.8,236.4c-12.5,0-24.2,0-36.3,0c0,9.6,0,18.8,0,27.9c0,1.2-0.1,2.3,0.1,3.5
		c0.6,5.6,4.7,10.1,10.3,10.5c5.1,0.4,10.3,0.3,15.5,0c5.4-0.3,10.1-4.5,10.3-9.8C98.1,257.9,97.8,247.2,97.8,236.4z M23.5,278.2
		c6.1,1.2,6.3,1.1,6.3-4.6c0-37.7-0.1-75.4,0.1-113c0-5-1.7-7.7-6.4-9.6C23.5,193.5,23.5,235.9,23.5,278.2z M252.4,245.1
		c0,6-0.1,12,0,18c0.1,5.9,3.1,9.3,8,9.4c4.9,0.1,8.7-3.3,8.8-8.8c0.2-12.5,0.2-24.9,0-37.4c-0.1-5.7-3.6-8.8-8.8-8.6
		c-4.8,0.2-7.8,3.4-8,8.9C252.3,232.8,252.4,238.9,252.4,245.1z M139.1,158.2c-7.7,0-14.4,0-21.5,0c0,4.6,0,8.7,0,12.8
		c0,4.3,0,8.5,0,12.9c7.5,0,14.2,0,21.5,0c0-6.8,0-13.2,0-19.7C139.1,162.4,139.1,160.4,139.1,158.2z M205.5,235.9
		c-3.1,1-7.3-2.4-8.4,2.6c-0.8,3.2-0.1,6.8-0.1,10.2C204,247.6,206.4,244.1,205.5,235.9z M104.7,248.9c6.3-1.7,10.3-6.4,8.3-10.7
		c-0.8-1.8-5.1-2-8.3-3.1C104.7,240.6,104.7,244.6,104.7,248.9z"/>
	<path class="st0" d="M211,59.8c-0.1,12-9.3,21.2-21.3,21.1c-11.9,0-21.2-9.3-21.2-21.2s10-22,21.5-21.7
		C201.7,38.4,211.1,48.1,211,59.8z M192.7,45.4c0,3.1,0.3,5.8-0.1,8.3c-0.3,1.4-1.8,2.6-2.8,3.8c-1-1.2-2.7-2.4-2.9-3.8
		c-0.5-2.7-0.1-5.5-0.1-8.3c-8,1.5-12.9,8.2-12.1,15.8c0.8,7.5,7.3,13.5,14.8,13.6c7.7,0.1,14.5-6,15.3-13.7
		C205.6,53.7,200.8,47,192.7,45.4z"/>
	<path class="st0" d="M56.8,133.6c-4.2,0-8.3-0.1-12.5,0c-3.7,0.1-5.6-1.3-5.5-5.2c0.2-4.3,0.1-8.7,0-13c0-3.2,1.4-4.5,4.6-4.5
		c9,0.1,18,0.1,27,0c3.2,0,4.7,1.2,4.7,4.4c0,4.5,0,9,0,13.5c0,3.3-1.4,4.9-4.8,4.8C65.8,133.5,61.3,133.6,56.8,133.6z M68.7,117.1
		c-5.6,0-10.7,0-15.8,0c-8.1,0-8.1,0-7.5,8.3c0,0.4,0.3,0.9,0.5,1.4c7.6,0,15.1,0,22.8,0C68.7,123.6,68.7,120.8,68.7,117.1z"/>
	<path class="st0" d="M110.3,111c4.3,0,8.7,0.1,13,0c3.1-0.1,4.6,1.2,4.6,4.4c-0.1,4.5-0.1,9,0,13.5c0.1,3.3-1.3,4.9-4.8,4.8
		c-8.8-0.1-17.6-0.1-26.5,0c-3.2,0-5-1.2-4.9-4.7c0.1-4.5,0.1-9,0-13.5c-0.1-3.2,1.4-4.5,4.5-4.5C101,111,105.7,111,110.3,111z
		 M98.5,126.8c7.8,0,15.3,0,23.1,0c0.1-1.5,0.1-2.6,0.3-3.8c0.6-4.3-0.7-6.5-5.6-6c-4.1,0.4-8.3,0.4-12.4,0
		c-5.2-0.5-6.5,1.8-5.8,6.3C98.2,124.5,98.3,125.6,98.5,126.8z"/>
	<path class="st0" d="M60.9,49.4c0,6.2-5,11.2-11.1,11.1c-6-0.1-11.1-5.4-10.9-11.4c0.2-5.8,5.2-10.8,11-10.8
		C56,38.2,60.9,43.1,60.9,49.4z M55.5,50.1c0-0.7,0-1.4-0.1-2c-1.9-1.1-3.9-3.4-5.6-3.1c-1.7,0.2-4.2,3-4.2,4.5
		c0.1,1.6,2.8,4.1,4.5,4.2C51.9,53.8,53.7,51.4,55.5,50.1z"/>
	<path class="st0" d="M60.9,82c0,6.4-4.6,11-10.9,11c-6.2,0-11.1-5-11-11.1c0.1-5.8,5-10.8,10.9-10.9C55.9,70.8,60.8,75.7,60.9,82z
		 M51.1,76.7c-0.7,0-1.4,0-2.1,0c-1.2,1.8-3.5,3.7-3.3,5.3c0.2,1.8,2.8,3.2,4.3,4.8c1.6-1.6,4.2-3,4.5-4.7
		C54.7,80.5,52.3,78.5,51.1,76.7z"/>
	<path class="st0" d="M174.3,140.3c-1-0.7-2.5-1.2-2.6-2c-0.2-1.3,0-3.1,0.8-3.9c3.8-4.2,7.9-8.1,11.9-12.1c2.9-2.9,5.7-6.1,8.9-8.7
		c1.3-1,3.6-0.7,5.5-1.1c-0.3,1.7-0.1,4-1.1,5.1c-6.6,7-13.5,13.8-20.4,20.6C176.6,139,175.5,139.4,174.3,140.3z"/>
	<path class="st0" d="M195.2,97.6c-0.8,1.2-1.4,2.4-2.2,3.2c-5,5.1-9.9,10.3-15.2,15.1c-1.2,1.1-3.6,0.7-5.5,1
		c0.4-1.8,0.1-4,1.2-5.2c4.9-5.4,10.1-10.5,15.4-15.5c1-0.9,2.9-1.1,4.4-1.1C193.8,95.2,194.4,96.5,195.2,97.6z"/>
	<path class="st0" d="M217,98.9c-3.5,2.7-6.9,5.4-10.4,8.1c-0.8-1.3-2.7-3.5-2.3-3.9c2.4-2.9,5.1-5.6,8.1-7.9c0.6-0.5,2.7,1,4.2,1.5
		C216.7,97.5,216.8,98.2,217,98.9z"/>
	<path class="st0" d="M90.2,42.9c2.1,3,4.2,4.7,4.2,6.4c0,1.4-2.5,4.2-3.6,4c-1.7-0.3-4.2-2.2-4.5-3.8C86,48,88.2,46.1,90.2,42.9z"
		/>
	<path class="st0" d="M105.1,55.7c-2.1-3-4.2-4.7-4.2-6.4c0-1.5,2.5-4.3,3.5-4.1c1.8,0.3,4.2,2.2,4.5,3.8
		C109.3,50.5,107.1,52.5,105.1,55.7z"/>
	<path class="st0" d="M111.4,81.9c-3.2,2-4.9,3.9-6.6,3.9c-1.4,0-4-2.6-3.8-3.7c0.3-1.7,2.4-4.1,3.9-4.3
		C106.4,77.6,108.2,79.8,111.4,81.9z"/>
	<path class="st0" d="M82.1,49.1c-3,2.2-4.6,4.3-6.3,4.3c-1.4,0-4.1-2.4-4-3.6c0.2-1.7,2.1-4.3,3.7-4.5C77.1,45,79,47.1,82.1,49.1z"
		/>
	<path class="st0" d="M75.8,88.1c-2-3.1-4-4.8-3.9-6.4c0.1-1.4,2.6-4,3.7-3.8c1.7,0.3,4.1,2.3,4.3,3.9C80.1,83.2,77.9,85,75.8,88.1z
		"/>
	<path class="st0" d="M90.5,75.5c1.9,3.1,3.9,4.8,3.8,6.5c-0.1,1.4-2.7,4-3.8,3.8c-1.7-0.3-4.1-2.4-4.3-3.9
		C86.1,80.3,88.3,78.5,90.5,75.5z"/>
	<path class="st0" d="M38.6,292.5c1.9,3.1,4,5,3.7,6.5s-2.7,3.6-4.4,3.7c-1.2,0.1-3.8-2.6-3.7-3.9C34.3,297.1,36.4,295.5,38.6,292.5
		z"/>
	<path class="st0" d="M59.4,299.3c-3.2,1.8-5.2,3.8-6.7,3.5s-3.5-2.8-3.6-4.5c-0.1-1.2,2.7-3.7,4-3.6
		C54.8,294.8,56.4,297,59.4,299.3z"/>
	<path class="st0" d="M73.8,299.2c-3.3,1.8-5.1,3.7-6.7,3.6c-1.5-0.2-4-2.9-3.8-3.9c0.5-1.7,2.6-4,4.3-4.2
		C69.1,294.6,70.8,296.9,73.8,299.2z"/>
	<path class="st0" d="M164.6,255.9c0,3.2,0.3,6.4-0.1,9.5c-0.2,1.3-2,2.4-3,3.6c-1-1.1-2.8-2.2-2.8-3.3c-0.3-6.8-0.2-13.6,0-20.5
		c0-1.1,1.9-2.1,3-3.1c1,1.1,2.7,2.2,2.8,3.4C164.8,248.9,164.6,252.4,164.6,255.9z"/>
	<path class="st0" d="M71.9,255.9c0,3.3,0.3,6.7-0.1,10c-0.1,1.2-1.9,2.1-2.9,3.2c-1-1.1-2.8-2.2-2.8-3.3c-0.3-6.8-0.3-13.6,0-20.5
		c0-1.1,1.9-2.1,2.9-3.2c1,1.1,2.7,2.1,2.8,3.3C72.2,248.9,71.9,252.4,71.9,255.9z"/>
</g>
</svg>
