<?xml version="1.0" encoding="utf-8"?>
<!-- Generator: Adobe Illustrator 26.3.1, SVG Export Plug-In . SVG Version: 6.00 Build 0)  -->
<svg version="1.1" id="Layer_1" xmlns="http://www.w3.org/2000/svg" xmlns:xlink="http://www.w3.org/1999/xlink" x="0px" y="0px"
	 viewBox="0 0 315 320" style="enable-background:new 0 0 315 320;" xml:space="preserve">
<style type="text/css">
	.st0{fill:#F26449;}
</style>
<g>
	<path class="st0" d="M59,310c-5.7,0-11.3,0-17,0c-0.6-2.4-1.6-4.7-1.8-7.1c-1-10.6-1.7-21.1-2.5-31.9c-1.8-0.1-3.1-0.3-4.4-0.3
		c-8.1-0.1-8.1-0.1-8.1-8c0-25.1,0-50.3,0-75.4c0-45.8,0-91.5-0.1-137.3c0-2-0.8-4.9-2.2-5.8c-6.3-4-8.9-9.6-8.7-16.8
		c0.1-4-0.2-8,0.1-12c0.1-1.9,1.1-3.7,1.7-5.5c96,0,192,0,288,0c0.6,1.3,1.7,2.6,1.7,4c0.2,6.5,0.8,13.1-0.3,19.4
		c-0.7,3.8-3.6,8-6.8,10.3c-3.1,2.2-3.9,4.2-3.9,7.6c0.1,70,0.1,139.9,0.1,209.9c0,9.3,0,9.3-9.1,9.5c-1,0-1.9,0.2-3.4,0.4
		c-0.5,6.5-0.8,12.9-1.5,19.3c-0.7,6.5-1.8,13-2.8,19.5c-5.7,0-11.3,0-17,0c-0.6-1.5-1.6-2.9-1.8-4.5c-0.5-4.8-0.7-9.6-1.1-14.4
		c-0.5-6.7-1.1-13.4-1.7-20.1c-64.6,0-128.5,0-192.8,0c-0.6,7.7-1,15.1-1.8,22.5C61.1,299.1,59.9,304.5,59,310z M255.8,238.2
		c0.1-1.5,0.3-2.3,0.3-3.1c0-39.8-0.1-79.7,0.1-119.5c0-4.7-2.5-4.5-5.7-4.5c-60.3,0-120.7,0.1-181-0.1c-4.3,0-5.7,1.1-5.7,5.6
		c0.2,38.8,0.1,77.7,0.1,116.5c0,1.6,0.2,3.2,0.3,5.1C128.2,238.2,191.8,238.2,255.8,238.2z M160,90.5c0,0.1,0,0.2,0,0.3
		c41,0,81.9-0.1,122.9,0.1c4.3,0,5.8-1.1,5.7-5.6c-0.3-11-0.1-22-0.1-33c0-6.4,0-6.4-6.6-6.4c-70.1,0-140.2,0-210.3,0
		c-11.8,0-23.7,0.1-35.5-0.1c-3.5-0.1-4.6,1-4.6,4.5c0.2,12,0.2,24,0,36c-0.1,3.7,1.4,4.5,4.7,4.4c8.3-0.3,16.6-0.3,25-0.4
		C94.1,90.5,127.1,90.5,160,90.5z M20.6,16.8c0,3.1,0,5.6,0,8.1c0,12.2,2.8,15.1,14.9,15.1c83.3,0,166.6,0,250,0
		c2.7,0,5.6,0.3,7.9-0.8s5.2-3.4,5.5-5.5c0.8-5.5,0.3-11.1,0.3-16.9C206.1,16.8,113.7,16.8,20.6,16.8z M31.9,97.1
		c0,55.9,0,111.3,0,166.9c8.6,0,16.9,0,25.5,0c0-55.7,0-111.2,0-166.9C48.7,97.1,40.6,97.1,31.9,97.1z M288.5,263.9
		c0-2.3,0-4.2,0-6.2c0-25.3,0-50.7,0-76c0-26.7-0.1-53.3,0.1-80c0-3.6-0.8-5.1-4.7-4.9c-5.6,0.3-11.3,0.3-17,0
		c-3.9-0.2-4.9,1.4-4.7,4.9c0.2,4,0.1,8,0.1,12c0,48.3,0,96.6,0,144.9c0,1.7,0.2,3.5,0.3,5.2C271.4,263.9,279.7,263.9,288.5,263.9z
		 M64.2,263.8c64.1,0,127.8,0,191.4,0c0-6.5,0-12.6,0-18.6c-64,0-127.6,0-191.4,0C64.2,251.5,64.2,257.4,64.2,263.8z M255.4,104.8
		c1.3-7.8,1.2-7.8-5.5-7.8c-60,0-120,0-180,0c-1.9,0-3.8,0.2-6.1,0.3c0.1,2.9,0.2,5.1,0.4,7.6C128.3,104.8,191.7,104.8,255.4,104.8z
		 M44.1,271c0.7,9.7,1.4,18.7,1.9,27.8c0.2,3.1,0.9,4.8,4.6,4.8c3.7,0,4.5-1.7,4.5-4.8c0-3,0.5-5.9,0.7-8.9
		c0.4-6.2,0.8-12.4,1.3-18.8C52.5,271,48.6,271,44.1,271z M262.9,271.1c0.7,10.2,1.3,20.1,2.4,29.9c0.1,1,2.9,2.4,4.3,2.3
		s3.9-1.6,4-2.7c1-9.7,1.6-19.4,2.4-29.5C271.4,271.1,267.4,271.1,262.9,271.1z"/>
	<path class="st0" d="M159.8,149.1c-11.2,0-22.3-0.3-33.5,0.1c-10.4,0.3-19.6-3.5-28.7-7.5c-5-2.2-7.5-8.7-6.2-14
		c1-3.9,4.6-6,8.4-5.2c0.3,0.1,0.6,0.2,0.9,0.4c13.7,7.1,28.6,6.7,43.4,6.5c15.8-0.2,31.7-0.3,47.5,0.1c8.6,0.2,16.4-2.2,24.2-5.3
		c6.8-2.7,10.1-2,12.1,2.1c2.3,4.7,0.5,12.7-4.7,14.8c-8.1,3.3-16.5,6.8-25,7.6C185.5,150,172.6,149,159.8,149.1
		C159.8,149,159.8,149.1,159.8,149.1z M221.7,128.7c-1.8,0.7-3.5,1.2-5.1,1.9c-9.1,4.1-18.7,5.4-28.7,5.3
		c-19.6-0.3-39.3,0.3-58.9-0.3c-7.7-0.2-15.3-2.5-22.9-4.1c-2.6-0.5-5.1-1.8-7.7-2.8c-0.5,0.5-0.9,0.9-1.4,1.4
		c1.3,2.1,2.2,5.2,4.1,6.1c8.2,3.7,16.5,7,25.8,6.9c20.5-0.2,41-0.4,61.4,0.1c10.5,0.2,20-2.3,29.5-6.2
		C221.4,135.4,223.1,133.1,221.7,128.7z"/>
	<path class="st0" d="M271.7,57.2c6.3,0.1,11.4,5.3,11.2,11.6c-0.2,6-5.4,11-11.4,11c-6-0.1-11.2-5.2-11.2-11.2
		C260.1,62.3,265.4,57.1,271.7,57.2z M271.2,61.5c-2.2,3.3-4.1,5-4.4,6.9c-0.4,3,1.7,4.9,4.9,4.8c3.2-0.1,5.1-2.2,4.4-5.2
		C275.7,66.1,273.7,64.6,271.2,61.5z"/>
	<path class="st0" d="M194.5,57.2c6.1,0.1,11.2,5.1,11.3,11.1c0.1,6.1-5.3,11.5-11.5,11.5c-6.3-0.1-11.3-5.3-11.2-11.7
		C183.3,62,188.3,57.1,194.5,57.2z M193.1,74c0.7,0,1.5,0,2.2,0c1.3-1.8,3.3-3.4,3.7-5.3c0.6-3.1-1.6-5.4-4.6-4.8
		c-1.8,0.4-4.4,2.7-4.6,4.4C189.7,70,191.9,72.1,193.1,74z"/>
	<path class="st0" d="M227.1,68.3c0-6.2,4.9-11.1,11.1-11.2c6.3-0.1,11.6,5.2,11.5,11.4c-0.1,6-5.2,11.1-11.2,11.2
		C232.1,79.8,227,74.7,227.1,68.3z M245.3,68.3c-3.2-2.2-4.9-4.2-6.9-4.5c-3.1-0.5-5.5,1.8-4.8,4.7c0.4,1.9,3.1,4.1,5.1,4.5
		C240.2,73.2,242.2,70.6,245.3,68.3z"/>
	<path class="st0" d="M73,68.4c0-6.2,4.7-11.1,10.9-11.3c6.3-0.1,11.6,5,11.6,11.2s-5.4,11.5-11.6,11.3C77.9,79.6,73,74.6,73,68.4z
		 M89.9,69.3c0-0.7,0-1.5,0-2.2c-2-1.1-4.1-3.3-6-3.1c-1.7,0.2-3.1,3-4.6,4.6c1.8,1.5,3.4,4.1,5.4,4.3
		C86.2,73.1,88.1,70.6,89.9,69.3z"/>
	<path class="st0" d="M149.9,68.6c-0.1-6.5,4.9-11.5,11.3-11.4c6.1,0,11.1,5,11.2,11.1c0.1,6.2-5.2,11.5-11.4,11.5
		C154.9,79.7,150,74.8,149.9,68.6z M166.8,69.1c0-0.7,0-1.4-0.1-2.2c-2-1.1-4.2-3.3-6.1-3c-1.7,0.2-3,3-4.5,4.7
		c1.8,1.5,3.5,4,5.5,4.2C163.2,73.1,165.1,70.5,166.8,69.1z"/>
	<path class="st0" d="M50.9,79c-6.1,0-10.8-4.7-10.8-10.6c0-6,4.8-10.6,10.8-10.6s10.8,4.7,10.8,10.6C61.8,74.4,57,79,50.9,79z
		 M51,74.9c2-3.2,4-4.9,4-6.6c-0.1-1.5-2.7-4.2-3.8-4c-1.7,0.4-4.1,2.5-4.3,4.1C46.7,69.9,48.9,71.8,51,74.9z"/>
</g>
</svg>
