<?xml version="1.0" encoding="utf-8"?>
<!-- Generator: Adobe Illustrator 26.3.1, SVG Export Plug-In . SVG Version: 6.00 Build 0)  -->
<svg version="1.1" id="Layer_1" xmlns="http://www.w3.org/2000/svg" xmlns:xlink="http://www.w3.org/1999/xlink" x="0px" y="0px"
	 viewBox="0 0 320 319.89" style="enable-background:new 0 0 320 319.89;" xml:space="preserve">
<style type="text/css">
	.st0{fill:#FFFFFF;}
</style>
<g>
	<path d="M282,310c-81.01,0-162.01,0-243.02,0c-0.93-2.53-2.45-5.01-2.66-7.6c-0.42-5.1-0.12-10.25-0.12-16.02
		c-2.63,0-4.75,0.04-6.88-0.01c-6.16-0.14-7.16-1.16-7.16-7.44c-0.01-87.13-0.03-174.26,0.11-261.39c0-2.51,1.77-5.03,2.71-7.54
		c90.34,0,180.68,0,271.02,0c0.94,2.85,2.7,5.69,2.71,8.54c0.15,86.46,0.12,172.93,0.12,259.39c0,1-0.02,2,0,3
		c0.05,3.49-1.77,5.25-5.16,5.37c-2.79,0.09-5.58,0.02-8.88,0.02c0,5.83,0.3,10.99-0.12,16.09C284.44,304.99,282.93,307.47,282,310z
		 M31.45,188.14c0,29.89,0,59.27,0,88.79c86.21,0,172.05,0,258.07,0c0-29.77,0-59.14,0-88.79
		C203.41,188.14,117.69,188.14,31.45,188.14z M289.67,108.32c0.09-2.07,0.22-3.56,0.22-5.04c0.01-26.16-0.11-52.33,0.12-78.49
		c0.04-4.78-1.59-5.78-6.01-5.78c-82.33,0.11-164.66,0.11-247,0c-4.39-0.01-6.08,0.94-6.03,5.75c0.23,26.16,0.11,52.33,0.13,78.49
		c0,1.6,0.22,3.2,0.35,5c4.69,0,8.91,0,13.65,0c-0.87-1.93-1.55-3.38-2.18-4.85c-6.24-14.55,3.72-31.23,19.46-32.16
		c10.51-0.62,20.06,3.05,25.47,11.93c3.87,6.35,8.18,7.59,14.45,6.84c0.82-0.1,1.67-0.02,2.5-0.01c3.09,0.02,6.27,0.66,8.03-3.23
		c0.42-0.93,3.08-1.59,4.32-1.19c1.26,0.41,2.67,2.18,2.89,3.54c0.48,2.93,0.63,6.03,0.16,8.94c-0.29,1.82-1.62,4.36-3.08,4.86
		c-1.36,0.47-3.81-0.97-5.22-2.21c-2.06-1.8-18.44-2.9-20.36-0.95c-0.23,0.23-0.35,0.56-0.51,0.85c-1.3,2.4-2.6,4.81-4.13,7.65
		c14.76,0,28.99,0,43.56,0c-0.96-6.65-0.05-13.08,6.05-15.83c5.2-2.34,11.41-2.44,17.35-3.57c0.01-0.1,0.16-0.58,0.14-1.06
		c-0.27-11.68,4.65-16.68,16.46-16.71c3.79-0.01,7.58,0,11.47,0c0.08-1.23,0.17-1.87,0.16-2.51c-0.14-11.01,4.98-16.26,16.01-16.35
		c5.17-0.04,10.33-0.05,15.5,0.02c5.12,0.07,9.88,1.65,12.25,6.32c1.78,3.51,2.18,7.73,3.43,12.52c3.45,0,7.94-0.39,12.32,0.13
		c3.34,0.39,7,1.25,9.7,3.1c5.21,3.56,5.95,9.24,5.01,14.56c6.03,1.16,12.26,1.27,17.46,3.64c6.06,2.76,6.82,9.28,5.87,15.77
		C283.21,108.32,286.14,108.32,289.67,108.32z M200.59,178.69c-6.5-9.51-4.4-19.41-4.42-28.93c-0.01-10.81,7.73-19.95,18.47-21.69
		c5.86-0.95,11.94-0.8,17.92-0.75c8.35,0.08,13.29,4.5,14.46,12.81c0.6,4.23,2.64,6.27,6.94,6.03c1.83-0.1,3.66-0.02,5.5-0.01
		c10.42,0.04,15.74,5.18,15.9,15.52c0.09,5.6,0.02,11.2,0.02,17.35c3.3,0,6.45-0.25,9.55,0.06c4.07,0.41,5.09-1.29,5.05-5.13
		c-0.17-17.16-0.07-34.32-0.09-51.48c0-1.45-0.23-2.89-0.35-4.33c-86.28,0-172.13,0-258.46,0c0,3.74,0,7.05,0,10.35
		c0,15.33-0.07,30.66,0.11,45.98c0.02,1.51,1.4,4.17,2.41,4.3c3.86,0.51,7.82,0.21,11.39,0.21c0.84-3.2,1.85-5.57,1.99-7.98
		c0.13-2.33-0.82-4.69-0.99-7.06c-0.13-1.8,0.28-3.63,0.33-5.45c0.07-2.14,0.47-4.41-0.07-6.4c-1.99-7.37,2.22-14.79,9.58-14.98
		c14.98-0.39,29.98-0.27,44.97-0.03c5.27,0.08,10.11,4.49,9.8,9.51c-0.36,5.81,0.74,11.86-0.27,17.2c-1.03,5.44,0.85,9.84,0.85,14.9
		c4.66,0,9.03,0,14.33,0c-6.28-7.77-9.99-15.78-9.32-25.19c0.69-9.61,4.68-17.62,12.28-23.65c11.87-9.44,28.98-9.4,40.72,0.01
		c5.93,4.76,9.86,10.88,11.46,18.26c2.45,11.29-0.76,21.28-8.66,30.59C181.83,178.69,190.69,178.69,200.59,178.69z M275.24,286.39
		c-2.37,0-4.5,0-6.63,0c-72.12,0-144.25,0-216.37,0c-1.5,0-3.01-0.05-4.49,0.11c-0.75,0.08-2.08,0.56-2.1,0.91
		c-0.21,3.97-0.63,8.01,0.04,11.86c0.16,0.91,4.18,1.62,6.43,1.62c70.62,0.08,141.25,0.07,211.87,0.07
		C277.34,300.96,277.34,300.96,275.24,286.39z M172.34,155.2c-0.03-13.05-10.44-23.41-23.53-23.41c-12.97,0-23.63,10.5-23.74,23.39
		c-0.11,12.89,11.06,23.98,23.97,23.81C162,178.83,172.37,168.23,172.34,155.2z M239.66,165.01c5.99,0,11.98,0.04,17.98-0.01
		c3.82-0.03,8.49,0.47,8.44-5.12c-0.05-5.24-4.5-4.79-8.18-4.85c-2.16-0.03-4.33,0.04-6.49-0.08c-6.13-0.33-10.66-3.88-12.51-9.7
		c-2.85-9-2.85-9-12.38-8.99c-2.16,0-4.33-0.07-6.49,0.05c-9.06,0.52-15.3,6.61-15.08,14.64c0.22,8.1,6.63,13.87,15.73,14.03
		C227.01,165.09,233.34,165.01,239.66,165.01z M64.32,108.51c8.97-0.01,18.65-7.18,18.81-13.94c0.16-6.83-9.93-14.58-18.88-14.5
		c-7.73,0.06-14.33,6.68-14.32,14.33C49.94,102.14,56.44,108.52,64.32,108.51z M207.44,172.4c2.15,4.05,6.32,6.42,11.38,6.5
		c13.97,0.24,27.95,0.15,41.93,0.05c3.07-0.02,5.42-1.3,5.23-5.08c-12.46,0-24.74,0.17-37.01-0.06
		C221.78,173.67,214.61,172.89,207.44,172.4z M176.88,89.97c2.98,0,6.14,0.61,8.89-0.2c2.07-0.61,3.59-3.05,5.35-4.67
		c-1.7-1.67-3.28-4.59-5.14-4.78c-5.9-0.63-11.94-0.62-17.84-0.02c-1.9,0.19-3.53,3.01-5.29,4.62c1.7,1.68,3.13,4.21,5.15,4.83
		C170.72,90.58,173.9,89.95,176.88,89.97z M233.4,80.07c-2.98,0-6.14-0.61-8.89,0.2c-2.08,0.61-3.64,3.02-5.43,4.63
		c1.72,1.69,3.31,4.62,5.19,4.82c5.89,0.64,11.94,0.63,17.84,0.02c1.9-0.19,4.63-2.78,5.04-4.69c0.73-3.38-2.12-4.85-5.3-4.97
		C239.03,79.97,236.21,80.06,233.4,80.07z M256.77,108.49c3.16,0,6.48,0.58,9.44-0.21c1.87-0.5,3.2-3.04,4.77-4.67
		c-1.66-1.57-3.21-4.32-5-4.48c-6.11-0.56-12.34-0.55-18.45,0.01c-1.75,0.16-4.47,2.87-4.53,4.49c-0.06,1.57,2.49,4.17,4.34,4.66
		C250.28,109.07,253.6,108.49,256.77,108.49z M153.32,108.48c0,0.01,0,0.02,0,0.03c3.14,0,6.43,0.56,9.38-0.2
		c1.89-0.49,4.52-2.91,4.54-4.48c0.01-1.62-2.63-4.53-4.31-4.68c-6.24-0.57-12.58-0.57-18.82-0.02c-1.76,0.16-3.28,2.94-4.92,4.51
		c1.57,1.61,2.9,4.13,4.77,4.63C146.88,109.06,150.18,108.48,153.32,108.48z M204.86,98.91c-3,0-6.16-0.57-8.94,0.2
		c-1.94,0.53-3.37,2.91-5.03,4.46c1.54,1.64,2.97,4.55,4.65,4.7c6.28,0.57,12.67,0.56,18.95,0.01c1.69-0.15,4.4-3.05,4.35-4.61
		c-0.05-1.63-2.64-4.05-4.53-4.54C211.34,98.35,208.03,98.91,204.86,98.91z M205.16,71.11c2.81,0,5.63,0.03,8.44-0.01
		c3.24-0.04,5.55-1.34,5.59-4.88c0.04-3.33-2.24-4.73-5.17-4.81c-5.95-0.15-11.95-0.43-17.85,0.19c-1.89,0.2-4.69,2.86-4.98,4.73
		c-0.52,3.27,2.27,4.77,5.52,4.78C199.53,71.12,202.34,71.11,205.16,71.11z M77.98,159.86c-6.49,0-12.98-0.13-19.46,0.11
		c-1.24,0.05-2.42,1.54-3.64,2.37c1.2,0.88,2.38,2.51,3.59,2.53c13.14,0.19,26.28,0.21,39.42,0c1.31-0.02,2.6-1.79,3.9-2.75
		c-1.29-0.76-2.55-2.12-3.86-2.17C91.29,159.74,84.63,159.86,77.98,159.86z M78.49,179c6.49,0,12.98,0.13,19.46-0.11
		c1.31-0.05,2.57-1.49,3.86-2.28c-1.31-0.91-2.61-2.59-3.93-2.61c-12.97-0.2-25.94-0.2-38.91-0.01c-1.37,0.02-2.72,1.6-4.09,2.46
		c1.39,0.85,2.74,2.38,4.16,2.44C65.51,179.16,72.01,179.01,78.49,179z M78.51,145.83c-6.48,0-12.97-0.14-19.45,0.11
		c-1.42,0.05-2.78,1.5-4.16,2.31c1.35,0.9,2.7,2.56,4.06,2.58c12.8,0.2,25.6,0.22,38.4,0c1.49-0.03,2.96-1.78,4.44-2.74
		c-1.45-0.75-2.87-2.1-4.34-2.16C91.15,145.69,84.83,145.83,78.51,145.83z M210.1,89.7c0-3.18,0-6.09,0-9.32c-3.39,0-6.59,0-9.96,0
		c0,3.23,0,6.12,0,9.32C203.55,89.7,206.75,89.7,210.1,89.7z M233.64,99.33c-1.88,0-3.71,0-5.45,0c0,3.2,0,5.94,0,8.96
		c1.93,0,3.66,0,5.45,0C233.64,105.13,233.64,102.24,233.64,99.33z M176.57,99.15c0,3.17,0,6.08,0,9c1.96,0,3.67,0,5.32,0
		c0-3.2,0-5.98,0-9C179.94,99.15,178.2,99.15,176.57,99.15z"/>
	<path class="st0" d="M24.98,10c-0.94,2.51-2.7,5.02-2.71,7.54c-0.14,87.13-0.12,174.26-0.11,261.39c0,6.28,1,7.3,7.16,7.44
		c2.13,0.05,4.25,0.01,6.88,0.01c0,5.77-0.3,10.92,0.12,16.02c0.22,2.59,1.73,5.07,2.66,7.6c-9.65,0-19.31,0-28.98,0
		c0-100,0-200,0-300C14.99,10,19.99,10,24.98,10z"/>
	<path class="st0" d="M282,310c0.93-2.53,2.44-5.01,2.66-7.6c0.42-5.1,0.12-10.25,0.12-16.09c3.29,0,6.09,0.07,8.88-0.02
		c3.39-0.11,5.21-1.88,5.16-5.37c-0.01-1,0-2,0-3c0-86.46,0.03-172.93-0.12-259.39c0-2.85-1.77-5.69-2.71-8.54c4.67,0,9.33,0,14,0
		c0,100,0,200,0,300C300.67,310,291.33,310,282,310z"/>
	<path class="st0" d="M31.45,188.14c86.23,0,171.96,0,258.07,0c0,29.64,0,59.02,0,88.79c-86.02,0-171.85,0-258.07,0
		C31.45,247.41,31.45,218.03,31.45,188.14z"/>
	<path class="st0" d="M289.67,108.32c-3.53,0-6.46,0-10.03,0c0.95-6.49,0.19-13.01-5.87-15.77c-5.2-2.37-11.43-2.48-17.46-3.64
		c0.95-5.32,0.2-11-5.01-14.56c-2.7-1.85-6.36-2.71-9.7-3.1c-4.38-0.51-8.87-0.13-12.32-0.13c-1.25-4.79-1.64-9.01-3.43-12.52
		c-2.37-4.68-7.13-6.26-12.25-6.32c-5.17-0.07-10.33-0.06-15.5-0.02c-11.02,0.09-16.14,5.34-16.01,16.35
		c0.01,0.64-0.08,1.27-0.16,2.51c-3.9,0-7.68-0.01-11.47,0c-11.81,0.03-16.72,5.03-16.46,16.71c0.01,0.48-0.13,0.96-0.14,1.06
		c-5.95,1.13-12.15,1.23-17.35,3.57c-6.11,2.75-7.01,9.17-6.05,15.83c-14.57,0-28.8,0-43.56,0c1.53-2.84,2.83-5.24,4.13-7.65
		c0.16-0.29,0.28-0.62,0.51-0.85c1.92-1.95,18.31-0.85,20.36,0.95c1.41,1.24,3.86,2.68,5.22,2.21c1.46-0.51,2.79-3.04,3.08-4.86
		c0.47-2.91,0.32-6.02-0.16-8.94c-0.22-1.36-1.64-3.14-2.89-3.54c-1.25-0.4-3.9,0.26-4.32,1.19c-1.76,3.89-4.94,3.25-8.03,3.23
		c-0.83,0-1.68-0.09-2.5,0.01c-6.26,0.76-10.58-0.49-14.45-6.84c-5.42-8.88-14.97-12.55-25.47-11.93
		c-15.75,0.93-25.7,17.61-19.46,32.16c0.63,1.47,1.31,2.92,2.18,4.85c-4.73,0-8.96,0-13.65,0c-0.13-1.81-0.35-3.4-0.35-5
		c-0.02-26.16,0.11-52.33-0.13-78.49c-0.04-4.82,1.64-5.76,6.03-5.75c82.33,0.11,164.66,0.11,247,0c4.42-0.01,6.05,0.99,6.01,5.78
		c-0.23,26.16-0.11,52.33-0.12,78.49C289.89,104.77,289.76,106.25,289.67,108.32z"/>
	<path class="st0" d="M200.59,178.69c-9.9,0-18.76,0-28.59,0c7.89-9.31,11.11-19.3,8.66-30.59c-1.6-7.38-5.53-13.5-11.46-18.26
		c-11.74-9.41-28.84-9.45-40.72-0.01c-7.59,6.04-11.59,14.04-12.28,23.65c-0.67,9.41,3.04,17.42,9.32,25.19c-5.3,0-9.67,0-14.33,0
		c0-5.06-1.88-9.46-0.85-14.9c1.01-5.34-0.09-11.39,0.27-17.2c0.31-5.01-4.54-9.42-9.8-9.51c-14.99-0.24-29.99-0.35-44.97,0.03
		c-7.36,0.19-11.57,7.61-9.58,14.98c0.54,2,0.14,4.26,0.07,6.4c-0.06,1.82-0.46,3.65-0.33,5.45c0.17,2.37,1.12,4.73,0.99,7.06
		c-0.13,2.41-1.14,4.78-1.99,7.98c-3.57,0-7.53,0.3-11.39-0.21c-1.01-0.13-2.39-2.79-2.41-4.3c-0.18-15.33-0.11-30.65-0.11-45.98
		c0-3.3,0-6.61,0-10.35c86.33,0,172.18,0,258.46,0c0.12,1.44,0.34,2.88,0.35,4.33c0.02,17.16-0.08,34.32,0.09,51.48
		c0.04,3.85-0.98,5.54-5.05,5.13c-3.09-0.31-6.24-0.06-9.55-0.06c0-6.14,0.07-11.75-0.02-17.35c-0.17-10.34-5.48-15.48-15.9-15.52
		c-1.83-0.01-3.67-0.09-5.5,0.01c-4.3,0.23-6.34-1.8-6.94-6.03c-1.17-8.31-6.11-12.73-14.46-12.81c-5.98-0.06-12.05-0.2-17.92,0.75
		c-10.74,1.74-18.48,10.88-18.47,21.69C196.18,159.29,194.08,169.18,200.59,178.69z"/>
	<path class="st0" d="M275.24,286.39c2.1,14.58,2.1,14.58-11.25,14.58c-70.62,0-141.25,0.02-211.87-0.07
		c-2.25,0-6.27-0.71-6.43-1.62c-0.67-3.85-0.25-7.9-0.04-11.86c0.02-0.35,1.34-0.83,2.1-0.91c1.48-0.16,2.99-0.11,4.49-0.11
		c72.12,0,144.25,0,216.37,0C270.74,286.39,272.87,286.39,275.24,286.39z"/>
	<path class="st0" d="M172.34,155.2c0.03,13.03-10.35,23.63-23.3,23.8c-12.91,0.17-24.07-10.93-23.97-23.81
		c0.11-12.89,10.76-23.39,23.74-23.39C161.9,131.79,172.31,142.15,172.34,155.2z"/>
	<path class="st0" d="M239.66,165.01c-6.33,0-12.65,0.08-18.98-0.02c-9.1-0.15-15.51-5.93-15.73-14.03
		c-0.22-8.03,6.02-14.13,15.08-14.64c2.16-0.12,4.33-0.05,6.49-0.05c9.53,0,9.53,0,12.38,8.99c1.84,5.82,6.38,9.37,12.51,9.7
		c2.16,0.12,4.33,0.05,6.49,0.08c3.68,0.05,8.14-0.4,8.18,4.85c0.05,5.59-4.62,5.08-8.44,5.12
		C251.65,165.05,245.66,165.01,239.66,165.01z"/>
	<path class="st0" d="M64.32,108.51c-7.88,0.01-14.39-6.37-14.4-14.12c-0.01-7.65,6.6-14.26,14.32-14.33
		c8.96-0.08,19.04,7.67,18.88,14.5C82.97,101.33,73.29,108.5,64.32,108.51z"/>
	<path class="st0" d="M207.44,172.4c7.18,0.49,14.35,1.28,21.53,1.42c12.27,0.24,24.55,0.06,37.01,0.06
		c0.19,3.78-2.17,5.05-5.23,5.08c-13.98,0.09-27.96,0.18-41.93-0.05C213.76,178.81,209.59,176.45,207.44,172.4z"/>
	<path class="st0" d="M176.88,89.96c-2.98-0.01-6.16,0.62-8.88-0.22c-2.02-0.62-3.46-3.15-5.15-4.83c1.76-1.61,3.39-4.43,5.29-4.62
		c5.9-0.6,11.95-0.61,17.84,0.02c1.86,0.2,3.43,3.11,5.14,4.78c-1.77,1.62-3.29,4.06-5.35,4.67
		C183.02,90.58,179.86,89.97,176.88,89.96z"/>
	<path class="st0" d="M233.4,80.07c2.82-0.01,5.63-0.09,8.45,0.02c3.18,0.12,6.03,1.59,5.3,4.97c-0.41,1.91-3.14,4.49-5.04,4.69
		c-5.9,0.61-11.94,0.61-17.84-0.02c-1.88-0.2-3.47-3.14-5.19-4.82c1.79-1.61,3.35-4.02,5.43-4.63
		C227.26,79.47,230.41,80.07,233.4,80.07z"/>
	<path class="st0" d="M256.77,108.49c-3.16,0-6.48,0.58-9.44-0.21c-1.85-0.49-4.4-3.09-4.34-4.66c0.06-1.62,2.78-4.33,4.53-4.49
		c6.11-0.56,12.34-0.57,18.45-0.01c1.79,0.16,3.34,2.92,5,4.48c-1.57,1.63-2.9,4.17-4.77,4.67
		C263.25,109.07,259.93,108.49,256.77,108.49z"/>
	<path class="st0" d="M153.32,108.48c-3.14,0-6.44,0.58-9.37-0.21c-1.87-0.5-3.2-3.02-4.77-4.63c1.63-1.58,3.16-4.36,4.92-4.51
		c6.24-0.55,12.59-0.55,18.82,0.02c1.68,0.15,4.33,3.06,4.31,4.68c-0.01,1.57-2.65,4-4.54,4.48c-2.95,0.76-6.23,0.2-9.38,0.2
		C153.32,108.5,153.32,108.49,153.32,108.48z"/>
	<path class="st0" d="M204.86,98.91c3.17,0,6.48-0.56,9.45,0.21c1.89,0.49,4.48,2.92,4.53,4.54c0.05,1.56-2.66,4.46-4.35,4.61
		c-6.28,0.55-12.67,0.55-18.95-0.01c-1.68-0.15-3.11-3.06-4.65-4.7c1.66-1.55,3.09-3.92,5.03-4.46
		C198.7,98.34,201.86,98.91,204.86,98.91z"/>
	<path class="st0" d="M205.16,71.11c-2.81,0-5.63,0.01-8.44,0c-3.25-0.01-6.04-1.51-5.52-4.78c0.3-1.87,3.09-4.53,4.98-4.73
		c5.89-0.62,11.89-0.34,17.85-0.19c2.94,0.07,5.21,1.48,5.17,4.81c-0.04,3.54-2.36,4.85-5.59,4.88
		C210.79,71.14,207.97,71.11,205.16,71.11z"/>
	<path class="st0" d="M77.98,159.86c6.65,0,13.31-0.12,19.96,0.1c1.31,0.04,2.58,1.41,3.86,2.17c-1.3,0.96-2.59,2.73-3.9,2.75
		c-13.14,0.2-26.28,0.19-39.42,0c-1.21-0.02-2.4-1.65-3.59-2.53c1.21-0.83,2.4-2.32,3.64-2.37C65,159.73,71.49,159.86,77.98,159.86z
		"/>
	<path class="st0" d="M78.49,179c-6.49,0-12.98,0.15-19.45-0.11c-1.42-0.06-2.78-1.59-4.16-2.44c1.36-0.86,2.71-2.44,4.09-2.46
		c12.97-0.19,25.95-0.19,38.91,0.01c1.32,0.02,2.62,1.7,3.93,2.61c-1.28,0.8-2.55,2.23-3.86,2.28C91.47,179.13,84.98,179,78.49,179z
		"/>
	<path class="st0" d="M78.51,145.83c6.32,0,12.64-0.14,18.95,0.1c1.47,0.06,2.89,1.4,4.34,2.16c-1.48,0.95-2.94,2.71-4.44,2.74
		c-12.8,0.22-25.6,0.2-38.4,0c-1.37-0.02-2.71-1.68-4.06-2.58c1.39-0.81,2.75-2.26,4.16-2.31
		C65.54,145.69,72.02,145.83,78.51,145.83z"/>
	<path class="st0" d="M210.1,89.7c-3.35,0-6.55,0-9.96,0c0-3.2,0-6.09,0-9.32c3.38,0,6.57,0,9.96,0
		C210.1,83.62,210.1,86.53,210.1,89.7z"/>
	<path class="st0" d="M233.64,99.33c0,2.92,0,5.81,0,8.96c-1.8,0-3.52,0-5.45,0c0-3.02,0-5.77,0-8.96
		C229.93,99.33,231.77,99.33,233.64,99.33z"/>
	<path class="st0" d="M176.57,99.15c1.63,0,3.37,0,5.32,0c0,3.01,0,5.79,0,9c-1.65,0-3.36,0-5.32,0
		C176.57,105.23,176.57,102.33,176.57,99.15z"/>
</g>
</svg>
