<?xml version="1.0" encoding="utf-8"?>
<!-- Generator: Adobe Illustrator 26.3.1, SVG Export Plug-In . SVG Version: 6.00 Build 0)  -->
<svg version="1.1" id="Layer_1" xmlns="http://www.w3.org/2000/svg" xmlns:xlink="http://www.w3.org/1999/xlink" x="0px" y="0px"
	 viewBox="0 0 300 321" style="enable-background:new 0 0 300 321;" xml:space="preserve">
<style type="text/css">
	.st0{fill:#F26449;}
</style>
<g>
	<path class="st0" d="M251,10c0.6,2,1.7,4,1.8,6c0.1,91.9,0.1,183.8,0.1,275.7c0,4.3-1.5,6.1-5.8,5.9c-3-0.2-5.9,0-8.9,0
		c-0.8,4.5-1.5,8.5-2.3,12.5c-6,0-12,0-18,0c-0.9-3.9-1.8-7.8-2.7-12.1c-43.4,0-87.2,0-130.6,0c-1,4.3-1.8,8.2-2.7,12.1
		c-6,0-12,0-18,0c-0.7-3.9-1.4-7.7-2.2-12.5c-3,0-6.4,0-9.9,0c-3.3,0-5-1.4-4.7-4.9c0.1-0.7,0-1.3,0-2c0-91.2,0-182.5,0.1-273.7
		c0-2.3,1.1-4.6,1.8-7C116.3,10,183.7,10,251,10z M147,241.2c0-2.3,0-4.3,0-6.2c0-14.7-0.1-29.3,0.1-44c0-1.6,1.7-3.1,2.6-4.6
		c1.1,1.6,2.3,3,3.1,4.7c0.4,1,0.1,2.3,0.1,3.5c0,13.5,0,27,0,40.5c0,1.9,0,3.9,0,6c31.5,0,62.4,0,93.4,0c0-57.8,0-115.2,0-172.7
		c-31.2,0-62.1,0-93.4,0c0,2.2,0,4,0,5.8c0,17.3,0,34.7,0,52c0,1.3,0.3,2.8-0.2,3.9c-0.5,1-1.8,2.2-2.7,2.2s-2.3-1.3-2.7-2.3
		c-0.5-1.1-0.2-2.6-0.2-3.9c0-17.3,0-34.7,0-52c0-1.9,0-3.9,0-6c-31.6,0-62.3,0-93.4,0c-0.1,1.9-0.3,3.5-0.3,5.1
		c0,54.3,0,108.6-0.1,162.9c0,4.2,1.2,5.4,5.4,5.3c27.7-0.2,55.3-0.1,83-0.1C143.1,241.4,144.8,241.3,147,241.2z M53.5,16.9
		c-0.1,2-0.3,3.8-0.3,5.5c0,8.5,0,17,0,25.5c0,13.8,0,13.9,13.7,13.8c27.8-0.1,55.6-0.3,83.4-0.3c30.5,0,61,0.1,91.4,0.4
		c4.1,0,5-1.5,5-5.2c-0.2-11.7-0.1-23.3-0.1-35c0-1.5-0.2-2.9-0.3-4.7C182.1,16.9,118,16.9,53.5,16.9z M53.6,248.1
		c0,14.6,0,28.6,0,42.7c64.4,0,128.5,0,192.7,0c0-14.4,0-28.5,0-42.7C182,248.1,118.1,248.1,53.6,248.1z M77.1,303.2
		c0-1.9,0-3.6,0-5.4c-2.9,0-5.3,0-7.9,0c0,2,0,3.7,0,5.4C72,303.2,74.4,303.2,77.1,303.2z M230.9,297.8c-2.9,0-5.4,0-8,0
		c0,1.9,0,3.6,0,5.4c2.9,0,5.3,0,8,0C230.9,301.4,230.9,299.8,230.9,297.8z"/>
	<path class="st0" d="M62.6,153.4c0-23.2,0-46.3,0-69.5c0-6.9,0.3-7.2,6.9-7.2c18.8,0,37.7,0,56.5,0c6.2,0,6.7,0.5,6.7,6.4
		c0,47,0,94,0,141c0,5.9-0.6,6.5-6.7,6.5c-18.8,0-37.7,0-56.5,0c-6.4,0-6.9-0.5-6.9-6.8C62.6,200.4,62.6,176.9,62.6,153.4z
		 M125.9,224c0-47.2,0-93.9,0-140.7c-19.1,0-37.9,0-56.8,0c0,47,0,93.7,0,140.7C88.1,224,106.9,224,125.9,224z"/>
	<path class="st0" d="M237.4,153.9c0,23.3,0,46.7,0,70c0,6.3-0.5,6.8-6.9,6.8c-18.8,0-37.7,0-56.5,0c-6.1,0-6.7-0.6-6.7-6.5
		c0-47,0-94,0-141c0-6,0.5-6.5,6.6-6.5c19,0,38,0,57,0c6,0,6.4,0.4,6.4,6.7C237.4,106.9,237.4,130.4,237.4,153.9z M174,83.1
		c0,47.2,0,93.9,0,140.7c19.2,0,38.1,0,56.7,0c0-47.1,0-93.8,0-140.7C211.7,83.1,193.1,83.1,174,83.1z"/>
	<path class="st0" d="M145.8,161.8c0,5.3,0.2,10.7-0.1,15.9c-0.1,1.5-1.8,3-2.7,4.5c-1.1-1.5-3-3-3.1-4.5c-0.3-10.6-0.3-21.3,0-31.9
		c0-1.5,1.7-3,2.7-4.5c1.1,1.5,3,3,3.1,4.6C146.1,151.2,145.8,156.5,145.8,161.8z"/>
	<path class="st0" d="M160.3,162.1c0,5.3,0.2,10.7-0.1,15.9c-0.1,1.5-1.9,2.8-3,4.2c-1-1.4-2.8-2.9-2.8-4.3
		c-0.2-10.6-0.3-21.3,0-31.9c0-1.6,2-3.2,3-4.7c1,1.6,2.7,3.2,2.8,4.9C160.5,151.5,160.3,156.8,160.3,162.1z"/>
	<path class="st0" d="M149.6,272c-26.6,0-53.3,0-79.9,0c-1.5,0-3.1,0.3-4.4-0.2c-1-0.4-2.2-1.7-2.2-2.7s1.1-2.4,2-2.8
		c1.3-0.5,2.9-0.3,4.4-0.3c53.6,0,107.2,0,160.8,0c1.2,0,2.5-0.3,3.5,0.1c1.3,0.6,2.2,1.9,3.4,2.8c-1,1-1.9,2.4-3.2,3
		c-1.1,0.5-2.6,0.1-3.9,0.1C203.2,272,176.4,272,149.6,272z"/>
	<path class="st0" d="M150.1,284.1c-26.6,0-53.3,0-79.9,0c-1.5,0-3.1,0.3-4.5-0.2c-1.1-0.4-2.6-1.8-2.7-2.8c0-1,1.4-2.3,2.5-2.9
		c0.9-0.5,2.3-0.2,3.4-0.2c53.9,0,107.9,0,161.8,0c1.2,0,2.5-0.3,3.4,0.2c1.1,0.6,2.6,1.8,2.7,2.8c0,1-1.4,2.4-2.5,2.9
		c-1.3,0.5-2.9,0.2-4.4,0.2C203.4,284.1,176.7,284.1,150.1,284.1z"/>
	<path class="st0" d="M211.6,256.4c-2.9,2.1-4.6,4.2-6.3,4.2c-1.4,0-4.1-2.5-3.9-3.6c0.2-1.7,2.2-4.3,3.7-4.5
		S208.5,254.4,211.6,256.4z"/>
	<path class="st0" d="M240.7,256.9c-3.1,1.9-5,3.9-6.6,3.7c-1.5-0.3-3.5-2.8-3.7-4.5c-0.1-1.2,2.6-3.7,4-3.7
		C236.1,252.6,237.7,254.7,240.7,256.9z"/>
	<path class="st0" d="M226.1,256.7c-3.1,2-4.8,4-6.4,3.9c-1.5-0.1-4.1-2.7-3.9-3.8c0.3-1.7,2.4-4.1,4-4.3
		C221.2,252.2,223,254.5,226.1,256.7z"/>
	<path class="st0" d="M98.7,138.3c5.3,0,10.7-0.3,16,0.2c1.6,0.1,3,2.2,4.4,3.3c-1.5,1-2.9,2.8-4.4,2.8c-10.8,0.2-21.6,0.2-32.4,0
		c-1.5,0-3-1.8-4.4-2.8c1.5-1.2,2.9-3.2,4.4-3.4C87.7,138.1,93.2,138.3,98.7,138.3z"/>
	<path class="st0" d="M98.9,170.1c5.3,0,10.6-0.2,15.9,0.1c1.5,0.1,2.8,1.9,4.2,2.9c-1.4,1.1-2.7,3-4.1,3.1c-11,0.3-21.9,0.3-32.9,0
		c-1.4,0-2.8-1.9-4.3-2.9c1.5-1.1,3-2.9,4.6-3C87.9,169.9,93.4,170.1,98.9,170.1z"/>
	<path class="st0" d="M98.5,106.9c5.5,0,11-0.2,16.4,0.1c1.4,0.1,2.8,1.9,4.2,2.9c-1.4,1-2.8,2.8-4.2,2.8c-10.9,0.2-21.9,0.2-32.8,0
		c-1.4,0-2.8-1.9-4.2-2.9c1.4-1,2.8-2.7,4.3-2.8C87.5,106.7,93,106.9,98.5,106.9z"/>
	<path class="st0" d="M98,208c-5.3,0-10.6,0.2-15.9-0.1c-1.5-0.1-2.8-1.9-4.2-2.9c1.4-1,2.8-2.9,4.2-2.9c10.9-0.2,21.9-0.2,32.8,0
		c1.4,0,2.8,1.9,4.2,2.9c-1.4,1-2.7,2.8-4.2,2.9C109.3,208.2,103.6,208,98,208z"/>
	<path class="st0" d="M201.3,144.8c-5.3,0-10.7,0.2-16-0.1c-1.5-0.1-2.9-1.8-4.4-2.8c1.5-1.2,2.9-3.3,4.4-3.3
		c10.8-0.3,21.6-0.3,32.4,0c1.5,0,2.9,2.2,4.4,3.4c-1.5,1-2.9,2.7-4.4,2.8C212.3,145,206.7,144.8,201.3,144.8z"/>
	<path class="st0" d="M201.6,170.1c5.3,0,10.6-0.2,15.9,0.1c1.6,0.1,3.1,1.9,4.7,3c-1.4,1-2.8,2.9-4.2,3c-11,0.2-21.9,0.2-32.9,0
		c-1.4,0-2.8-2-4.1-3c1.4-1,2.8-2.8,4.2-2.9C190.6,169.9,196.1,170.1,201.6,170.1z"/>
	<path class="st0" d="M201.7,112.9c-5.5,0-11,0.2-16.4-0.1c-1.5-0.1-2.9-1.8-4.3-2.7c1.4-1.1,2.7-3,4.1-3c11.1-0.2,22.2-0.2,33.3,0
		c1.3,0,2.6,1.8,3.9,2.7c-1.4,1-2.7,2.9-4.1,3C212.6,113.1,207.1,112.9,201.7,112.9z"/>
	<path class="st0" d="M201.8,208c-5.6,0-11.3,0.2-16.9-0.1c-1.4-0.1-2.7-2-4-3.1c1.3-0.9,2.6-2.7,3.9-2.7c11.1-0.2,22.2-0.2,33.3,0
		c1.4,0,2.7,2,4,3.1c-1.3,0.9-2.6,2.6-3.9,2.7C212.8,208.2,207.3,208,201.8,208z"/>
</g>
</svg>
