<?xml version="1.0" encoding="utf-8"?>
<!-- Generator: Adobe Illustrator 26.3.1, SVG Export Plug-In . SVG Version: 6.00 Build 0)  -->
<svg version="1.1" id="Layer_1" xmlns="http://www.w3.org/2000/svg" xmlns:xlink="http://www.w3.org/1999/xlink" x="0px" y="0px"
	 viewBox="0 0 320 319.9" style="enable-background:new 0 0 320 319.9;" xml:space="preserve">
<style type="text/css">
	.st0{fill:#F26449;}
</style>
<g>
	<path class="st0" d="M281.5,309.9c-81,0-162,0-243,0c-0.9-2.5-2.5-5-2.7-7.6c-0.4-5.1-0.1-10.2-0.1-16c-2.6,0-4.8,0-6.9,0
		c-6.2-0.1-7.2-1.2-7.2-7.4c0-87.1,0-174.3,0.1-261.4c0-2.5,1.8-5,2.7-7.5c90.3,0,180.7,0,271,0c0.9,2.8,2.7,5.7,2.7,8.5
		c0.1,86.5,0.1,172.9,0.1,259.4c0,1,0,2,0,3c0,3.5-1.8,5.2-5.2,5.4c-2.8,0.1-5.6,0-8.9,0c0,5.8,0.3,11-0.1,16.1
		C283.9,304.9,282.4,307.4,281.5,309.9z M31,188.1c0,29.9,0,59.3,0,88.8c86.2,0,172,0,258.1,0c0-29.8,0-59.1,0-88.8
		C202.9,188.1,117.2,188.1,31,188.1z M289.2,108.3c0.1-2.1,0.2-3.6,0.2-5c0-26.2-0.1-52.3,0.1-78.5c0-4.8-1.6-5.8-6-5.8
		c-82.3,0.1-164.7,0.1-247,0c-4.4,0-6.1,0.9-6,5.8c0.2,26.2,0.1,52.3,0.1,78.5c0,1.6,0.2,3.2,0.4,5c4.7,0,8.9,0,13.6,0
		c-0.9-1.9-1.5-3.4-2.2-4.8c-6.2-14.6,3.7-31.2,19.5-32.2c10.5-0.6,20.1,3.1,25.5,11.9c3.9,6.3,8.2,7.6,14.4,6.8
		c0.8-0.1,1.7,0,2.5,0c3.1,0,6.3,0.7,8-3.2c0.4-0.9,3.1-1.6,4.3-1.2c1.3,0.4,2.7,2.2,2.9,3.5c0.5,2.9,0.6,6,0.2,8.9
		c-0.3,1.8-1.6,4.4-3.1,4.9c-1.4,0.5-3.8-1-5.2-2.2c-2.1-1.8-18.4-2.9-20.4-0.9c-0.2,0.2-0.3,0.6-0.5,0.8c-1.3,2.4-2.6,4.8-4.1,7.7
		c14.8,0,29,0,43.6,0c-1-6.7-0.1-13.1,6.1-15.8c5.2-2.3,11.4-2.4,17.4-3.6c0-0.1,0.2-0.6,0.1-1.1c-0.3-11.7,4.6-16.7,16.5-16.7
		c3.8,0,7.6,0,11.5,0c0.1-1.2,0.2-1.9,0.2-2.5c-0.1-11,5-16.3,16-16.3c5.2,0,10.3,0,15.5,0c5.1,0.1,9.9,1.7,12.2,6.3
		c1.8,3.5,2.2,7.7,3.4,12.5c3.4,0,7.9-0.4,12.3,0.1c3.3,0.4,7,1.2,9.7,3.1c5.2,3.6,6,9.2,5,14.6c6,1.2,12.3,1.3,17.5,3.6
		c6.1,2.8,6.8,9.3,5.9,15.8C282.7,108.3,285.6,108.3,289.2,108.3z M200.1,178.6c-6.5-9.5-4.4-19.4-4.4-28.9
		c0-10.8,7.7-19.9,18.5-21.7c5.9-1,11.9-0.8,17.9-0.8c8.4,0.1,13.3,4.5,14.5,12.8c0.6,4.2,2.6,6.3,6.9,6c1.8-0.1,3.7,0,5.5,0
		c10.4,0,15.7,5.2,15.9,15.5c0.1,5.6,0,11.2,0,17.4c3.3,0,6.5-0.2,9.5,0.1c4.1,0.4,5.1-1.3,5-5.1c-0.2-17.2-0.1-34.3-0.1-51.5
		c0-1.4-0.2-2.9-0.4-4.3c-86.3,0-172.1,0-258.5,0c0,3.7,0,7.1,0,10.4c0,15.3-0.1,30.7,0.1,46c0,1.5,1.4,4.2,2.4,4.3
		c3.9,0.5,7.8,0.2,11.4,0.2c0.8-3.2,1.8-5.6,2-8c0.1-2.3-0.8-4.7-1-7.1c-0.1-1.8,0.3-3.6,0.3-5.4c0.1-2.1,0.5-4.4-0.1-6.4
		c-2-7.4,2.2-14.8,9.6-15c15-0.4,30-0.3,45,0c5.3,0.1,10.1,4.5,9.8,9.5c-0.4,5.8,0.7,11.9-0.3,17.2c-1,5.4,0.8,9.8,0.8,14.9
		c4.7,0,9,0,14.3,0c-6.3-7.8-10-15.8-9.3-25.2c0.7-9.6,4.7-17.6,12.3-23.6c11.9-9.4,29-9.4,40.7,0c5.9,4.8,9.9,10.9,11.5,18.3
		c2.4,11.3-0.8,21.3-8.7,30.6C181.3,178.6,190.2,178.6,200.1,178.6z M274.7,286.3c-2.4,0-4.5,0-6.6,0c-72.1,0-144.2,0-216.4,0
		c-1.5,0-3,0-4.5,0.1c-0.8,0.1-2.1,0.6-2.1,0.9c-0.2,4-0.6,8,0,11.9c0.2,0.9,4.2,1.6,6.4,1.6c70.6,0.1,141.2,0.1,211.9,0.1
		C276.8,300.9,276.8,300.9,274.7,286.3z M171.8,155.1c0-13.1-10.4-23.4-23.5-23.4c-13,0-23.6,10.5-23.7,23.4s11.1,24,24,23.8
		C161.5,178.8,171.9,168.2,171.8,155.1z M239.2,165c6,0,12,0,18,0c3.8,0,8.5,0.5,8.4-5.1c0-5.2-4.5-4.8-8.2-4.9
		c-2.2,0-4.3,0-6.5-0.1c-6.1-0.3-10.7-3.9-12.5-9.7c-2.9-9-2.9-9-12.4-9c-2.2,0-4.3-0.1-6.5,0.1c-9.1,0.5-15.3,6.6-15.1,14.6
		c0.2,8.1,6.6,13.9,15.7,14C226.5,165,232.8,165,239.2,165z M63.8,108.5c9,0,18.7-7.2,18.8-13.9c0.2-6.8-9.9-14.6-18.9-14.5
		c-7.7,0.1-14.3,6.7-14.3,14.3C49.4,102.1,55.9,108.5,63.8,108.5z M206.9,172.3c2.1,4.1,6.3,6.4,11.4,6.5c14,0.2,27.9,0.1,41.9,0.1
		c3.1,0,5.4-1.3,5.2-5.1c-12.5,0-24.7,0.2-37-0.1C221.3,173.6,214.1,172.8,206.9,172.3z M176.4,89.9c3,0,6.1,0.6,8.9-0.2
		c2.1-0.6,3.6-3.1,5.4-4.7c-1.7-1.7-3.3-4.6-5.1-4.8c-5.9-0.6-11.9-0.6-17.8,0c-1.9,0.2-3.5,3-5.3,4.6c1.7,1.7,3.1,4.2,5.1,4.8
		C170.2,90.5,173.4,89.9,176.4,89.9z M232.9,80c-3,0-6.1-0.6-8.9,0.2c-2.1,0.6-3.6,3-5.4,4.6c1.7,1.7,3.3,4.6,5.2,4.8
		c5.9,0.6,11.9,0.6,17.8,0c1.9-0.2,4.6-2.8,5-4.7c0.7-3.4-2.1-4.8-5.3-5C238.5,79.9,235.7,80,232.9,80z M256.3,108.4
		c3.2,0,6.5,0.6,9.4-0.2c1.9-0.5,3.2-3,4.8-4.7c-1.7-1.6-3.2-4.3-5-4.5c-6.1-0.6-12.3-0.6-18.5,0c-1.8,0.2-4.5,2.9-4.5,4.5
		c-0.1,1.6,2.5,4.2,4.3,4.7C249.8,109,253.1,108.4,256.3,108.4z M152.8,108.4C152.8,108.4,152.8,108.4,152.8,108.4
		c3.1,0,6.4,0.6,9.4-0.2c1.9-0.5,4.5-2.9,4.5-4.5c0-1.6-2.6-4.5-4.3-4.7c-6.2-0.6-12.6-0.6-18.8,0c-1.8,0.2-3.3,2.9-4.9,4.5
		c1.6,1.6,2.9,4.1,4.8,4.6C146.4,109,149.7,108.4,152.8,108.4z M204.4,98.9c-3,0-6.2-0.6-8.9,0.2c-1.9,0.5-3.4,2.9-5,4.5
		c1.5,1.6,3,4.6,4.6,4.7c6.3,0.6,12.7,0.6,18.9,0c1.7-0.2,4.4-3.1,4.4-4.6c-0.1-1.6-2.6-4.1-4.5-4.5
		C210.8,98.3,207.5,98.9,204.4,98.9z M204.7,71.1c2.8,0,5.6,0,8.4,0c3.2,0,5.6-1.3,5.6-4.9c0-3.3-2.2-4.7-5.2-4.8
		c-5.9-0.2-11.9-0.4-17.9,0.2c-1.9,0.2-4.7,2.9-5,4.7c-0.5,3.3,2.3,4.8,5.5,4.8C199,71.1,201.8,71.1,204.7,71.1z M77.5,159.8
		c-6.5,0-13-0.1-19.5,0.1c-1.2,0.1-2.4,1.5-3.6,2.4c1.2,0.9,2.4,2.5,3.6,2.5c13.1,0.2,26.3,0.2,39.4,0c1.3,0,2.6-1.8,3.9-2.8
		c-1.3-0.8-2.6-2.1-3.9-2.2C90.8,159.7,84.1,159.8,77.5,159.8z M78,178.9c6.5,0,13,0.1,19.5-0.1c1.3-0.1,2.6-1.5,3.9-2.3
		c-1.3-0.9-2.6-2.6-3.9-2.6c-13-0.2-25.9-0.2-38.9,0c-1.4,0-2.7,1.6-4.1,2.5c1.4,0.9,2.7,2.4,4.2,2.4C65,179.1,71.5,179,78,178.9z
		 M78,145.8c-6.5,0-13-0.1-19.5,0.1c-1.4,0.1-2.8,1.5-4.2,2.3c1.3,0.9,2.7,2.6,4.1,2.6c12.8,0.2,25.6,0.2,38.4,0
		c1.5,0,3-1.8,4.4-2.7c-1.4-0.8-2.9-2.1-4.3-2.2C90.7,145.6,84.3,145.8,78,145.8z M209.6,89.6c0-3.2,0-6.1,0-9.3c-3.4,0-6.6,0-10,0
		c0,3.2,0,6.1,0,9.3C203.1,89.6,206.3,89.6,209.6,89.6z M233.1,99.3c-1.9,0-3.7,0-5.4,0c0,3.2,0,5.9,0,9c1.9,0,3.7,0,5.4,0
		C233.1,105.1,233.1,102.2,233.1,99.3z M176.1,99.1c0,3.2,0,6.1,0,9c2,0,3.7,0,5.3,0c0-3.2,0-6,0-9
		C179.4,99.1,177.7,99.1,176.1,99.1z"/>
</g>
</svg>
