<svg width="58" height="37" viewBox="0 0 58 37" fill="none" xmlns="http://www.w3.org/2000/svg">
<g clip-path="url(#clip0_1485_7665)">
<path d="M53.413 0.20874H4.32067C2.07681 0.20874 0.257812 2.02774 0.257812 4.27159V32.7947C0.257812 35.0385 2.07681 36.8575 4.32067 36.8575H53.413C55.6571 36.8575 57.4761 35.0385 57.4761 32.7947V4.27159C57.4761 2.02774 55.6571 0.20874 53.413 0.20874Z" fill="#5A31F4"/>
<path d="M12.3517 9.57883C10.1841 9.56343 8.09299 10.3792 6.50836 11.8583C6.44031 11.9204 6.39788 12.0057 6.38939 12.0974C6.3809 12.1891 6.40698 12.2808 6.46248 12.3543L7.44309 13.6933C7.47489 13.7379 7.51605 13.7751 7.56374 13.8022C7.61142 13.8292 7.66447 13.8455 7.71911 13.8498C7.77376 13.8542 7.82869 13.8466 7.88008 13.8275C7.93146 13.8083 7.97804 13.7782 8.01654 13.7392C8.58628 13.1695 9.26388 12.7191 10.0097 12.4143C10.7556 12.1096 11.5547 11.9566 12.3604 11.9643C15.7236 11.9643 17.4812 14.4961 17.4812 16.9963C17.4812 19.7144 15.6347 21.6269 12.9825 21.6641C10.9325 21.6641 9.38706 20.3051 9.38706 18.5102C9.38908 18.0567 9.4917 17.6093 9.68754 17.2002C9.88341 16.7912 10.1676 16.4307 10.5196 16.1447C10.5942 16.0827 10.6414 15.9938 10.651 15.8973C10.6607 15.8007 10.632 15.7043 10.5712 15.6287L9.53902 14.3269C9.50784 14.2875 9.46906 14.2548 9.42497 14.2306C9.3809 14.2065 9.33244 14.1914 9.28245 14.1863C9.23246 14.1813 9.18193 14.1863 9.13391 14.2011C9.08589 14.2159 9.04131 14.2401 9.00283 14.2725C8.36967 14.7826 7.85873 15.4279 7.50746 16.1612C7.1562 16.8945 6.97352 17.6971 6.97285 18.5102C6.97285 21.6011 9.59923 24.0239 12.9625 24.0439H13.0084C17.0024 23.9923 19.8897 21.0334 19.8897 16.9906C19.8897 13.4008 17.2461 9.57883 12.3517 9.57883Z" fill="white"/>
<path fill-rule="evenodd" clip-rule="evenodd" d="M24.9931 23.3062V18.3919H28.0867C30.913 18.3919 32.4162 16.8083 32.4162 14.4083C32.4162 12.0083 30.913 10.5715 28.0867 10.5715H23V23.3062H24.9931ZM24.9931 12.4654H27.6292C29.4591 12.4654 30.3575 13.2164 30.3575 14.4736C30.3575 15.7307 29.4917 16.4817 27.7109 16.4817H24.9931V12.4654ZM35.9301 23.5674C37.4494 23.5674 38.446 22.8981 38.9035 21.7552C39.0341 23.0286 39.802 23.6818 41.4685 23.2409L41.4848 21.8859C40.8149 21.951 40.6843 21.7061 40.6843 21.0041V17.6736C40.6843 15.7144 39.3936 14.5552 37.0082 14.5552C34.6557 14.5552 33.2997 15.7307 33.2997 17.7225H35.1294C35.1294 16.7756 35.7994 16.2042 36.9756 16.2042C38.2173 16.2042 38.789 16.743 38.7727 17.6736V18.0981L36.6652 18.3266C34.2964 18.5878 32.9893 19.4858 32.9893 21.0532C32.9893 22.3429 33.9043 23.5674 35.9301 23.5674ZM36.3385 22.098C35.3093 22.098 34.9007 21.5429 34.9007 20.9878C34.9007 20.2368 35.7503 19.894 37.4168 19.698L38.7238 19.5511C38.642 20.9878 37.6781 22.098 36.3385 22.098ZM47.5365 23.9429C46.7033 25.9674 45.3636 26.5715 43.2724 26.5715H42.3737V24.9061H43.3378C44.4815 24.9061 45.0369 24.547 45.6413 23.5185L41.9328 14.8164H43.9912L46.6379 21.1674L48.9905 14.8164H51L47.5365 23.9429Z" fill="white"/>
</g>
<defs>
<clipPath id="clip0_1485_7665">
<rect width="57.6993" height="37" fill="white"/>
</clipPath>
</defs>
</svg>
